<svg id="cheonsa" xmlns="http://www.w3.org/2000/svg" viewBox="0 0 1000 1000"><g id="tail"><path d="M510.48 601.57s-30-27.58-31 58.92c0 0-35.32 222.66-29 263.68 3.71 24.26 9.49 41.45 13.58 51.46a39.93 39.93 0 0 0 21.4 21.9c10.52 4.36 24.4 4.64 36.47-13.22C545 950 546.2 881.37 546.2 881.37S538.3 683 533.44 652.9s-22.96-51.33-22.96-51.33Z" style="fill:#c56fff"/><path d="M536.66 722s-27.69 16-65.51-2.34l-.56-.27c-1.34 9.26-2.76 19.23-4.21 29.62 2.25 1.3 32.28 17.89 72.13.68.57-.24 1.12-.49 1.66-.73-.47-9-.95-17.9-1.43-26.42-1.28-.4-2.08-.54-2.08-.54ZM541 780.47c-36.6 19.87-78.73-.74-78.73-.74h-.07c-1.07 8.14-2.13 16.35-3.14 24.51 46.64 21.13 83.83 2.9 83.83 2.9l.11-.14c-.4-8.69-.82-17.75-1.26-26.93ZM456 829.92c-1 8.85-1.93 17.5-2.75 25.77 55.45 17.29 91.68 3.17 91.68 3.17l.32-.36c-.31-7.28-.68-16-1.11-25.67-40.25 19.55-82.39-.05-88.14-2.91ZM451.09 880.13c-.62 8.15-1 15.61-1.27 22.15a146.5 146.5 0 0 0 95 .63c.79-8.13 1.14-14.61 1.29-18.27-15.18 3.36-45.74 6.47-95.02-4.51ZM451.42 925l-.92-.31c1.3 8.37 2.84 15.89 4.47 22.55l.55.37s36.08 23.76 80 .28l1.79-1c1.62-6.23 2.94-12.52 4-18.61l-.71-.13s-26.41 18.18-89.18-3.15Z" style="fill:#ff79ef"/></g><rect id="right-leg" x="414.91" y="595.42" width="63.33" height="148.71" rx="31.67" style="fill:#613bb2"/><rect id="left-leg" x="519.53" y="595.42" width="63.33" height="148.71" rx="31.67" style="fill:#613bb2"/><rect id="left-hand-upper" x="536.71" y="413.44" width="137.33" height="53.98" rx="26.99" transform="rotate(21.99 605.412 440.454)" style="fill:#613bb2"/><rect id="left-hand-sleeve" x="536.71" y="406.82" width="137.33" height="67.22" rx="33.61" transform="rotate(21.99 605.412 440.454)" style="fill:#bdd8ec"/><rect id="right-hand-upper" x="314.45" y="425.45" width="143.04" height="53.98" rx="26.99" transform="rotate(-26.04 385.913 452.405)" style="fill:#613bb2"/><rect id="right-hand-sleeve" x="313.46" y="425.13" width="137.33" height="68.04" rx="34.02" transform="rotate(156.99 382.116 459.154)" style="fill:#bdd8ec"/><g id="body"><path d="M581.26 633.1c-9.09 25.92-141.48 17.23-141.48 17.23a27.67 27.67 0 0 1-27.67-27.67V391.79H573S594.09 566 581.26 633.1Z" style="fill:#613bb2"/><rect x="462.34" y="426" width="88.45" height="194.27" rx="27.31" style="fill:#c56fff"/></g><g id="cloth"><path d="M589.58 512.87s-4.71-104.52-14-117.42c-1.27-1.77-11.89-2.53-17.26-3.8-3.45 6.89-8.47 16.13-15.61 28.5-36.49 63.16-82.39 8.32-82.39 8.32l-16.14-33.3c-16 4.2-42.22 12.39-44.86 20.93 0 0 6.2 88.51 7.74 102.45 0 0-27.35 108.39-24.77 138.84 0 0 26.84 16 53.68 12.38 0 0 59.35 30 130.06.54 0 0 36.13 3.08 48.52-14.47 0 0-2.45-62.97-24.97-142.97Z" style="fill:#bdd8ec"/><path d="M414.68 669.09a71.28 71.28 0 0 0 18.56 1c.1-18.71-.22-57.86-4.5-66.62 0-.02-12.49 26.66-14.06 65.62ZM589.74 669c-1.59-38.92-14.06-65.55-14.06-65.55-4.31 8.83-4.6 48.52-4.49 67.06a98.67 98.67 0 0 0 18.55-1.51Z" style="fill:#aac8e1"/><path d="M436 669.77s59.35 30 130.06.54c0 0 36.13 3.08 48.52-14.47 0 0-.15-3.86-.72-10.88a76.33 76.33 0 0 1-47 12.47c-63.75 38.48-134.46-.3-134.46-.3-28 2.11-42.79-7.56-49.76-14.16a90.59 90.59 0 0 0-.3 14.42s26.79 16 53.66 12.38Z" style="fill:#efefef"/><path style="fill:#424573" d="m546.93 541 41.33-8.47 1.48 13.11-18.57 10.59-22.17-1.55-2.07-13.68z"/><path style="fill:#efefef" d="m553.24 551.25 17.93.59 14.93-8.23-1.47-10.34-33.68 6.91 2.29 11.07z"/><path style="fill:#424573" d="m460.32 543.96-41.72-6.25-.77 13.18 19.11 9.57 22.05-2.73 1.33-13.77z"/><path style="fill:#efefef" d="m454.58 554.53-17.88 1.55-15.34-7.42.91-10.4 34 5.09-1.69 11.18z"/><path d="M565.52 401.9s3.61 46.71-23.23 78.71l-38.19-18.84L468 485s-44.58-27-34.52-70.92 26.87 14.39 26.87 14.39 46.67 51 82.39-8.32l1.36-13.86Z" style="fill:#424573"/><path d="M560.1 414.08s-6.48-1.54-16.45-3.52l-.94 9.59c-35.72 59.29-82.39 8.32-82.39 8.32s-4.35-15.08-9.94-24.13c-6.68 1.87-11.27 5-12.57 9.74-11.87 43.57 31.71 65.24 31.71 65.24l33.8-21.42L542 475.71c21.19-30.45 18.1-61.63 18.1-61.63Z" style="fill:#efefef"/><path d="M508.87 453.29 500 454c-22.94-3.35-30 5.68-30 5.68 3.23 15.74 11.75 17.55 11.75 17.55 1.68-2.45 13.8-11.49 13.8-11.49h1.56l-6.07 51.86a1.12 1.12 0 0 0 1 1.24l12.14.82-1.13-54c1.18-.05 2.4-.11 3.56-.21l4.15 61.58 12.3-6.09a1 1 0 0 0 .55-1.15l-12.13-53.88c6.41 1.82 16.05 7.32 16.05 7.32 5.55-4.52 7.36-17.81 7.36-17.81-6.79-4.87-26.02-2.13-26.02-2.13Z" style="fill:#424573"/><path d="M498.23 453.65s6.06-4.26 12 0c0 0 .13 8.51-2.2 12.38 0 0-2.19 1.16-6.45 0 0-.03-3.22-4.13-3.35-12.38Z" style="fill:#363457"/></g><g id="clock"><rect id="clock-base" x="323.66" y="484.09" width="365.82" height="110.73" rx="30.44" transform="rotate(-2.44 506.677 539.527)" style="opacity:.7000000000000001"/><text id="clock-text" transform="rotate(-3 11097.175 -6210.486)" style="font-size:71.15160369873047px;fill:#edd8f6;font-family:Rubik-Bold,Rubik;font-weight:700">00:00<tspan x="215.66" y="0" style="letter-spacing:-.02499339747885022em"> </tspan><tspan x="228.82" y="0">AM</tspan></text></g><g id="left-ear"><path d="M559.1 154.17s28.56-73.24 58.71-71.58 39.46 95.21 39.46 95.21l3.7 31.31 37.59 13.32s-31.21 16.64-31 20.79 10.55 11.63 10.55 11.63l-42 8.62s-59.05-35.3-77.01-109.3Z" style="fill:#ffd6e1"/><path d="M579.73 180.23s19.17-43.38 40.82-60.23c0 0 12.05-8.31 14.13 35.5s-5.42 75.29-5.42 75.29Z" style="fill:#ff79ef"/></g><g id="head"><path d="M451.27 142.52s-145.44 25.62-117.92 166.15c0 0-19.87 22.63-33 32.55 0 0-4.92 9 35.61 33.62l-16.6-1.2s-7.4 5.68 28.7 21.86l-10-.72s-6.52 9.62 65.79 24.14 157.42 2 157.42 2 43.39-4.25 86.07-36.5l-8-1.93s30.53-14.3 26.59-27l-15.13 5.31s27-24.25 25.63-35.21l-14.7-11.54a86.56 86.56 0 0 0-14.57-21.23s18.6-67-64.57-135.44c0 0-18.69-20.75-54.4-20.61l11.23-12.26s-19.74-.77-36.11 11l8.7-23.7s-21.53 1.84-60.74 30.71Z" style="fill:#c56fff"/><path d="M443.29 320.67c-42.36-23.43-76.56 68.8-76.56 68.8-5.09-3.11-25.82-45.72-30.55-55.56a2.14 2.14 0 0 0-2.85-1c-7.32 3.47-23.86 6.48-32.45 7.88l-.53.41s-4.92 9 35.61 33.62l-16.6-1.2s-7.4 5.68 28.7 21.86l-10-.72s-6.51 9.61 65.67 24.12c-2.21-28.56 50-82.73 50-82.73 8.77-14.1-10.44-15.48-10.44-15.48ZM572.78 418.67l-.58.39a195.31 195.31 0 0 0 75.1-34.61l-8-1.93s30.53-14.3 26.59-27l-15.13 5.31s27-24.25 25.63-35.21l-.42-.33-22.89-3-4-7.09a10 10 0 0 0-7-5.06c-15.15-2.43 2.53 40.64 2.53 40.64-14.61 44.46-71.83 67.89-71.83 67.89Z" style="fill:#ffd6e1"/><path d="M492.84 352.3c4.55-11.56 17.28-31 52.48-41.34a33.35 33.35 0 0 1 19.09.05c11.14 3.38 28.21 13.62 39.48 38.49 0 0 12.15 19.9-14.51 34.53-21.12 11.59-70.17 14.84-90.25-3.34a25.64 25.64 0 0 1-6.29-28.39Z" style="fill:#ffd6e1"/><path d="m543.13 336.7 38.41-2.23a3.27 3.27 0 0 1 2.49 5.59l-14.82 14.63a5 5 0 0 1-6.16.63l-21.21-13.75a2.65 2.65 0 0 1 1.29-4.87Z" style="fill:#8a1880"/><ellipse cx="465.04" cy="247.73" rx="20.45" ry="31.83" transform="rotate(-75 463.508 246.61)" style="fill:#ffd6e1"/><ellipse cx="596.73" cy="240.8" rx="31" ry="20.02" transform="rotate(-20.77 596.676 240.786)" style="fill:#ffd6e1"/><circle cx="462.95" cy="317.62" r="24.77"/><ellipse cx="604.97" cy="310.53" rx="24.34" ry="21.82" transform="rotate(-86 603.67 309.634)"/></g><g id="rigth-ear"><path d="M417 152s10.07 85.8-86 137.1l-37.2 13.62 13.88-27.46-38.43 1.89L310.48 240s-35.13-90.5-11.55-112.6 86.23 6.21 86.23 6.21S415 146.89 417 152Z" style="fill:#ffd6e1"/><path d="M355.33 265.27S302.05 164 313.88 150.67c0 0 4.69-19.26 94.65 33 0 .02-8.36 49.12-53.2 81.6Z" style="fill:#ff79ef"/></g><rect id="right-hand-lower" x="261.77" y="481.31" width="137.33" height="53.98" rx="26.99" transform="rotate(-60 330.44 508.3)" style="fill:#613bb2"/><g id="right-hand-sleeve-lower"><path transform="rotate(28.88 330.46 508.289)" style="fill:#e0e7f4" d="M298.05 498.92h64.88v18.88h-64.88z"/><path d="M363.53 520.15 378 492.84a34.81 34.81 0 0 0-14.4-47.08 34.82 34.82 0 0 0-47.08 14.41l-14.51 27.3Z" style="fill:#bdd8ec"/><path style="fill:#42416b" d="m302.05 487.47 61.48 32.68 2.02-3.79-61.16-33.29-2.34 4.4z"/></g><rect id="left-hand-lower" x="598.78" y="459.29" width="143.04" height="53.98" rx="26.99" transform="rotate(-135 670.293 486.28)" style="fill:#613bb2"/><g id="left-hand-sleeve-lower"><path transform="rotate(-43.93 669.195 485.528)" style="fill:#e0e7f4" d="M636.8 476.1h64.88v18.88H636.8z"/><path d="m690.28 457.46-21.8-21.94a34.81 34.81 0 0 0-49.23-.16 34.82 34.82 0 0 0-.16 49.24l21.79 21.93Z" style="fill:#bdd8ec"/><path style="fill:#42416b" d="m640.88 506.53 49.39-49.07-3.02-3.04L637.37 503l3.51 3.53z"/></g><g id="hat"><path d="M509.26 34.84C506.46 14.53 471.92 2.5 432.1 8s-69.83 26.39-67 46.7 37.31 32.3 77.12 26.83 69.83-26.38 67.04-46.69Zm-69.79 29c-27.94 3.85-51.72-1.28-53.12-11.46s20.11-21.54 48-25.38 51.73 1.28 53.13 11.46S467.42 60 439.47 63.83Z" style="fill:#ffec47"/><path d="M433 18.33c-29.11 4-51.28 17.58-49.53 30.32.44 3.21 2.37 6.07 5.47 8.47a8.15 8.15 0 0 1-2.6-4.75C385 42.2 406.46 30.83 434.4 27s51.73 1.28 53.13 11.46a7.33 7.33 0 0 1-.35 3.36 12.09 12.09 0 0 0 1.7-7.66c-1.75-12.75-26.77-19.83-55.88-15.83Z" style="fill:#dba700"/></g></svg>