<?xml version="1.0" encoding="UTF-8"?><svg id="cheonsa" xmlns="http://www.w3.org/2000/svg" viewBox="0 0 1000 1000"><g id="tail"><path d="M510.48,601.57s-30-27.58-31.03,58.92c0,0-35.32,222.65-29.04,263.68,3.71,24.25,9.49,41.45,13.58,51.46s11.61,17.83,21.4,21.9c10.52,4.37,24.4,4.64,36.47-13.22,23.17-34.29,24.33-102.94,24.33-102.94,0,0-7.9-198.34-12.76-228.47-4.86-30.13-22.96-51.33-22.96-51.33Z" style="fill:#c56fff;"/><path d="M536.66,721.96s-27.69,16.05-65.51-2.34c-.19-.09-.37-.17-.56-.27-1.34,9.26-2.76,19.23-4.21,29.62,2.25,1.3,32.28,17.89,72.13,.69,.57-.25,1.12-.49,1.66-.73-.47-9.02-.95-17.9-1.43-26.42-1.28-.36-2.08-.54-2.08-.54Z" style="fill:#ff79ef;"/><path d="M541.02,780.47c-36.6,19.87-78.73-.74-78.73-.74h-.07c-1.07,8.14-2.12,16.35-3.14,24.52,46.64,21.12,83.83,2.89,83.83,2.89l.08-.11c-.4-8.69-.82-17.75-1.27-26.93-.24,.13-.46,.24-.7,.37Z" style="fill:#ff79ef;"/><path d="M456.01,829.92c-1.01,8.86-1.94,17.5-2.76,25.77,55.45,17.29,91.68,3.17,91.68,3.17,0,0,.11-.13,.32-.36-.31-7.28-.68-16-1.11-25.67-40.26,19.55-82.4-.06-88.14-2.92Z" style="fill:#ff79ef;"/><path d="M451.09,880.13c-.62,8.15-1.05,15.6-1.27,22.15,14.99,5.4,51.87,15.14,94.99,.64,.79-8.13,1.14-14.62,1.29-18.27-15.16,3.4-45.72,6.47-95-4.51Z" style="fill:#ff79ef;"/><path d="M451.42,924.98c-.32-.11-.61-.2-.92-.31,1.3,8.37,2.84,15.88,4.47,22.55,.35,.24,.56,.37,.56,.37,0,0,36.08,23.75,80.04,.28,.61-.33,1.2-.64,1.79-.96,1.61-6.23,2.94-12.52,4.02-18.61l-.71-.13s-26.47,18.16-89.23-3.19Z" style="fill:#ff79ef;"/></g><g id="right-leg"><rect x="414.91" y="595.42" width="63.33" height="148.71" rx="31.67" ry="31.67" style="fill:#613bb2;"/><g><rect x="410.16" y="622.44" width="70.84" height="76.65" style="fill:#706778;"/><rect x="410.16" y="668.89" width="70.84" height="16.26" style="fill:#fff;"/></g></g><g id="left-leg"><rect x="519.53" y="595.42" width="63.33" height="148.71" rx="31.67" ry="31.67" style="fill:#613bb2;"/><g><rect x="515.19" y="622.44" width="70.84" height="76.65" style="fill:#706778;"/><rect x="515.19" y="668.89" width="70.84" height="16.26" style="fill:#fff;"/></g></g><rect id="left-hand-upper" x="536.67" y="413.66" width="138.49" height="53.98" rx="26.99" ry="26.99" transform="translate(209.09 -194.83) rotate(21.99)" style="fill:#613bb2;"/><rect id="right-hand-upper" x="323.5" y="423.36" width="133.49" height="53.98" rx="26.99" ry="26.99" transform="translate(-158.08 217.01) rotate(-26.04)" style="fill:#613bb2;"/><g id="body"><path id="body_base" d="M581.26,633.1c-9.09,25.92-141.48,17.24-141.48,17.24-15.28,0-27.67-12.39-27.67-27.67v-230.87h160.87s21.11,174.23,8.28,241.3Z" style="fill:#613bb2;"/><rect id="body_pattern" x="462.34" y="426" width="88.45" height="194.27" rx="27.31" ry="27.31" style="fill:#c56fff;"/></g><g id="left-hand-sleeve"><rect x="575.79" y="428.93" width="67.14" height="28.54" transform="translate(-3.19 881.98) rotate(-71.64)" style="fill:#fff;"/><path d="M575.46,397.5h0c23.84,0,43.19,19.35,43.19,43.19v12.74c0,7.17-5.82,12.98-12.98,12.98h-60.41c-7.17,0-12.98-5.82-12.98-12.98v-12.74c0-23.84,19.35-43.19,43.19-43.19Z" transform="translate(-15.74 842.1) rotate(-71.64)" style="fill:#395f94;"/></g><g id="cloth"><path d="M378,628.3l-1.49,14.8s32.23,15.38,124.63,14.09c92.4-1.3,124.11-13.13,124.11-13.13l-2.11-19.59-245.13,3.83Z" style="fill:#ba0008;"/><g><path d="M394.22,630.84l-1.46,17.35c3.69,.9,8.07,1.84,13.19,2.77l1.6-18.99-13.33-1.12Z" style="fill:#fff;"/><path d="M607,632.93l-13.36,.68,.86,17.04c5.12-.77,9.53-1.54,13.28-2.27l-.78-15.45Z" style="fill:#fff;"/><path d="M542.44,636.26l.99,19.45c4.68-.27,9.13-.58,13.35-.9l-.97-19.22-13.36,.68Z" style="fill:#fff;"/><path d="M444.41,634.38l-1.26,21.19c4.22,.33,8.67,.62,13.35,.86l1.27-21.25-13.36-.8Z" style="fill:#fff;"/><path d="M493.42,637.15v20.11c2.53-.01,5.1-.03,7.72-.07,1.91-.03,3.79-.06,5.66-.1v-19.95h-13.38Z" style="fill:#fff;"/></g><path d="M582.61,413.9l4.67,104.38s29.6,58.13,38.43,113.17c0,0-99.7,30.64-248.74,0,0,0,1.53-48.78,32.16-113.17l3.41-104.38h170.06Z" style="fill:#395f94;"/><g><path d="M410.89,502.95c-6.68-3.05-17.01-7.9-20.21-9.4-.57-.27-1.25-.1-1.62,.42-2.14,2.97-8.54,10.77-7.28,15.22,.77,2.72,18.37,5.55,25.76,6.74-6.15,4.78-20.08,16.92-23.25,19.69-.32,.28-.26,.79,.11,.99l8.48,4.64-10.57,18.18c-.35,.61-.04,1.39,.64,1.59l6.33,1.83c.57,.17,1.18-.13,1.41-.68l18.1-43.89h35.48l4.37,48.81s4.67,23.63,65.43,25.7c60.76,2.08,64.91-29.86,64.91-29.86l1.99-44.66h6.31v-15.32h-176.39Z" style="fill:#fff;"/><path d="M543.67,554.79v-3.12h11.44l.76-7.25h-79.97l.63,7.25h11.05v3.12h-10.78l.8,9.18c.09,1.07,.46,2.1,1.08,2.97,2.61,3.63,11.48,11.95,38.24,12.35,25.74,.39,33.62-8.3,35.94-12.65,.58-1.09,.92-2.3,1.05-3.53l.87-8.32h-11.12Zm-39.6,0h-11.13v-3.12h11.13v3.12Zm17.38,0h-11.13v-3.12h11.13v3.12Zm16.8,0h-11.13v-3.12h11.13v3.12Z" style="fill:#e4e3e4;"/><path d="M386.63,511.72c-1.6-.5-4.32-1.21-4.32-2.89,0-1.47,2.39-3.86,6.09-3.54,7.4,.65,22.33,11.03,22.33,11.03-7.83-1-19.53-3.18-24.1-4.61Z" style="fill:#e4e3e4;"/></g><path d="M485.31,616.86c-2.27-7.94-13.41,.72-13.41,.72,0,0,7.18-12.98-3.46-12.98s-3.46,12.98-3.46,12.98c0,0-10.49-8.81-13.41-.72s11.27,7.3,11.27,7.3c0,0-12.38,6.61-4.83,12.53,7.55,5.93,10.43-8.46,10.43-8.46,0,0,1.82,14.29,10.43,8.46,8.61-5.82-4.83-12.53-4.83-12.53,0,0,13.55,.63,11.27-7.3Zm-16.94,9.47c-2.53,0-4.58-1.74-4.58-3.89s2.05-3.89,4.58-3.89,4.58,1.74,4.58,3.89-2.05,3.89-4.58,3.89Z" style="fill:#f9e768;"/><path d="M547.94,616.86c-2.27-7.94-13.41,.72-13.41,.72,0,0,7.18-12.98-3.46-12.98s-3.46,12.98-3.46,12.98c0,0-10.49-8.81-13.41-.72-2.92,8.1,11.27,7.3,11.27,7.3,0,0-12.38,6.61-4.83,12.53,7.55,5.93,10.43-8.46,10.43-8.46,0,0,1.82,14.29,10.43,8.46,8.61-5.82-4.83-12.53-4.83-12.53,0,0,13.55,.63,11.27-7.3Zm-16.94,9.47c-2.53,0-4.58-1.74-4.58-3.89s2.05-3.89,4.58-3.89,4.58,1.74,4.58,3.89-2.05,3.89-4.58,3.89Z" style="fill:#f9e768;"/><path d="M430.25,611.96c-.36-7.94-13.18-2.58-13.18-2.58,0,0,9.98-10.35-.35-12.92-10.33-2.58-6.37,11.25-6.37,11.25,0,0-8.14-10.75-12.85-3.91-4.71,6.83,9.24,9.53,9.24,9.53,0,0-13.54,3.16-7.59,10.5,5.95,7.35,12.08-5.36,12.08-5.36,0,0-1.55,13.74,8.15,10.41,9.71-3.34-1.77-12.84-1.77-12.84,0,0,13,3.87,12.63-4.07Zm-18.64,4.72c-2.45-.61-4.04-2.73-3.54-4.73s2.89-3.12,5.34-2.51,4.04,2.73,3.54,4.73-2.89,3.12-5.34,2.51Z" style="fill:#f9e768;"/><path d="M602.37,605.45c-3.81-6.98-12.98,3.46-12.98,3.46,0,0,4.44-13.67-5.97-11.47-10.41,2.21-.8,12.9-.8,12.9,0,0-12.02-6.1-13.26,2.11-1.24,8.21,12.48,4.52,12.48,4.52,0,0-10.79,8.77-2.23,12.77,8.56,4,8.52-10.11,8.52-10.11,0,0,4.62,13.04,11.89,5.78,7.27-7.25-7.22-10.77-7.22-10.77,0,0,13.38-2.21,9.57-9.19Zm-14.69,12.4c-2.47,.52-4.82-.68-5.25-2.7s1.23-4.07,3.7-4.6,4.82,.68,5.25,2.7-1.23,4.07-3.7,4.6Z" style="fill:#f9e768;"/><ellipse cx="525.05" cy="477.97" rx="5.65" ry="5.28" style="fill:#ffeb63;"/><ellipse cx="525.05" cy="493.99" rx="5.65" ry="5.28" style="fill:#ffeb63;"/><path d="M583.08,424.3c-1.73-3.47-3.93-6.96-6.76-10.4h-4.45c.06,.2,.1,.41,.1,.63,0,1.3-1.06,2.36-2.36,2.36s-2.36-1.06-2.36-2.36c0-.22,.04-.43,.1-.63h-102.23c.21,.35,.33,.76,.33,1.19,0,1.3-1.06,2.36-2.36,2.36s-2.36-1.06-2.36-2.36c0-.44,.13-.84,.33-1.19h-5.93c-5.89,19.27-15.22,64.79,25.77,70.3,0,0,26.87,2.92,43.23-21.62,0,0,14.02,23.39,36.03,21.72,22-1.67,24.86-16.84,24.86-16.84,0,0,9.05-21.09-1.93-43.16Zm-121.99-4.17c1.3,0,2.36,1.06,2.36,2.36s-1.06,2.36-2.36,2.36-2.36-1.06-2.36-2.36,1.06-2.36,2.36-2.36Zm-1.19,7.4c1.3,0,2.36,1.06,2.36,2.36s-1.06,2.36-2.36,2.36-2.36-1.06-2.36-2.36,1.06-2.36,2.36-2.36Zm-1.17,7.4c1.3,0,2.36,1.06,2.36,2.36s-1.06,2.36-2.36,2.36-2.36-1.06-2.36-2.36,1.06-2.36,2.36-2.36Zm-.37,6.84c1.3,0,2.36,1.06,2.36,2.36s-1.06,2.36-2.36,2.36-2.36-1.06-2.36-2.36,1.06-2.36,2.36-2.36Zm-2,9.66c0-1.3,1.06-2.36,2.36-2.36s2.36,1.06,2.36,2.36-1.06,2.36-2.36,2.36-2.36-1.06-2.36-2.36Zm2.36,6.82c0-1.3,1.06-2.36,2.36-2.36s2.36,1.06,2.36,2.36-1.06,2.36-2.36,2.36-2.36-1.06-2.36-2.36Zm5.33,9.18c-1.3,0-2.36-1.06-2.36-2.36s1.06-2.36,2.36-2.36,2.36,1.06,2.36,2.36-1.06,2.36-2.36,2.36Zm4.72,5.26c-1.3,0-2.36-1.06-2.36-2.36s1.06-2.36,2.36-2.36,2.36,1.06,2.36,2.36-1.06,2.36-2.36,2.36Zm6.38,3.99c-1.3,0-2.36-1.06-2.36-2.36s1.06-2.36,2.36-2.36,2.36,1.06,2.36,2.36-1.06,2.36-2.36,2.36Zm7.5,1.85c-1.3,0-2.36-1.06-2.36-2.36s1.06-2.36,2.36-2.36,2.36,1.06,2.36,2.36-1.06,2.36-2.36,2.36Zm8.08-.49c-1.3,0-2.36-1.06-2.36-2.36s1.06-2.36,2.36-2.36,2.36,1.06,2.36,2.36-1.06,2.36-2.36,2.36Zm7.74-1.36c-1.3,0-2.36-1.06-2.36-2.36s1.06-2.36,2.36-2.36,2.36,1.06,2.36,2.36-1.06,2.36-2.36,2.36Zm6.77-3.99c-1.3,0-2.36-1.06-2.36-2.36s1.06-2.36,2.36-2.36,2.36,1.06,2.36,2.36-1.06,2.36-2.36,2.36Zm6.72-4.72c-1.3,0-2.36-1.06-2.36-2.36s1.06-2.36,2.36-2.36,2.36,1.06,2.36,2.36-1.06,2.36-2.36,2.36Zm5.55-4.99c-1.3,0-2.36-1.06-2.36-2.36s1.06-2.36,2.36-2.36,2.36,1.06,2.36,2.36-1.06,2.36-2.36,2.36Zm4.26-6.35c-1.3,0-2.36-1.06-2.36-2.36s1.06-2.36,2.36-2.36,2.36,1.06,2.36,2.36-1.06,2.36-2.36,2.36Zm7.76,3.99c-1.3,0-2.36-1.06-2.36-2.36s1.06-2.36,2.36-2.36,2.36,1.06,2.36,2.36-1.06,2.36-2.36,2.36Zm5.21,4.99c-1.3,0-2.36-1.06-2.36-2.36s1.06-2.36,2.36-2.36,2.36,1.06,2.36,2.36-1.06,2.36-2.36,2.36Zm5.55,5.82c-1.3,0-2.36-1.06-2.36-2.36s1.06-2.36,2.36-2.36,2.36,1.06,2.36,2.36-1.06,2.36-2.36,2.36Zm6.23,4.26c-1.3,0-2.36-1.06-2.36-2.36s1.06-2.36,2.36-2.36,2.36,1.06,2.36,2.36-1.06,2.36-2.36,2.36Zm7.69,2.36c-1.3,0-2.36-1.06-2.36-2.36s1.06-2.36,2.36-2.36,2.36,1.06,2.36,2.36-1.06,2.36-2.36,2.36Zm28.16-36.15c0,1.3-1.06,2.36-2.36,2.36s-2.36-1.06-2.36-2.36,1.06-2.36,2.36-2.36,2.36,1.06,2.36,2.36Zm-1.66-7.2c0,1.3-1.06,2.36-2.36,2.36s-2.36-1.06-2.36-2.36,1.06-2.36,2.36-2.36,2.36,1.06,2.36,2.36Zm-2.36-6.72c0,1.3-1.06,2.36-2.36,2.36s-2.36-1.06-2.36-2.36,1.06-2.36,2.36-2.36,2.36,1.06,2.36,2.36Zm-16.55,50.07c-1.3,0-2.36-1.06-2.36-2.36s1.06-2.36,2.36-2.36,2.36,1.06,2.36,2.36-1.06,2.36-2.36,2.36Zm7.21-1.87c-1.3,0-2.36-1.06-2.36-2.36s1.06-2.36,2.36-2.36,2.36,1.06,2.36,2.36-1.06,2.36-2.36,2.36Zm1.83-54.91c0-1.3,1.06-2.36,2.36-2.36s2.36,1.06,2.36,2.36-1.06,2.36-2.36,2.36-2.36-1.06-2.36-2.36Zm3.82,50.17c-1.3,0-2.36-1.06-2.36-2.36s1.06-2.36,2.36-2.36,2.36,1.06,2.36,2.36-1.06,2.36-2.36,2.36Zm3.7-5.82c-1.3,0-2.36-1.06-2.36-2.36s1.06-2.36,2.36-2.36,2.36,1.06,2.36,2.36-1.06,2.36-2.36,2.36Zm1.66-7.35c-1.3,0-2.36-1.06-2.36-2.36s1.06-2.36,2.36-2.36,2.36,1.06,2.36,2.36-1.06,2.36-2.36,2.36Zm.71-7.35c-1.3,0-2.36-1.06-2.36-2.36s1.06-2.36,2.36-2.36,2.36,1.06,2.36,2.36-1.06,2.36-2.36,2.36Z" style="fill:#fff;"/><path d="M458.72,439.66c1.3,0,2.36-1.06,2.36-2.36s-1.06-2.36-2.36-2.36-2.36,1.06-2.36,2.36,1.06,2.36,2.36,2.36Z" style="fill:#e7e7e7;"/><path d="M459.89,432.26c1.3,0,2.36-1.06,2.36-2.36s-1.06-2.36-2.36-2.36-2.36,1.06-2.36,2.36,1.06,2.36,2.36,2.36Z" style="fill:#e7e7e7;"/><path d="M461.08,424.86c1.3,0,2.36-1.06,2.36-2.36s-1.06-2.36-2.36-2.36-2.36,1.06-2.36,2.36,1.06,2.36,2.36,2.36Z" style="fill:#e7e7e7;"/><path d="M460.72,415.1c0,1.3,1.06,2.36,2.36,2.36s2.36-1.06,2.36-2.36c0-.44-.13-.84-.33-1.19h-4.05c-.21,.35-.33,.76-.33,1.19Z" style="fill:#e7e7e7;"/><path d="M458.36,446.5c1.3,0,2.36-1.06,2.36-2.36s-1.06-2.36-2.36-2.36-2.36,1.06-2.36,2.36,1.06,2.36,2.36,2.36Z" style="fill:#e7e7e7;"/><path d="M461.08,451.44c0-1.3-1.06-2.36-2.36-2.36s-2.36,1.06-2.36,2.36,1.06,2.36,2.36,2.36,2.36-1.06,2.36-2.36Z" style="fill:#e7e7e7;"/><path d="M463.44,458.25c0-1.3-1.06-2.36-2.36-2.36s-2.36,1.06-2.36,2.36,1.06,2.36,2.36,2.36,2.36-1.06,2.36-2.36Z" style="fill:#e7e7e7;"/><path d="M461.69,465.07c0,1.3,1.06,2.36,2.36,2.36s2.36-1.06,2.36-2.36-1.06-2.36-2.36-2.36-2.36,1.06-2.36,2.36Z" style="fill:#e7e7e7;"/><path d="M468.78,472.69c1.3,0,2.36-1.06,2.36-2.36s-1.06-2.36-2.36-2.36-2.36,1.06-2.36,2.36,1.06,2.36,2.36,2.36Z" style="fill:#e7e7e7;"/><path d="M475.15,476.68c1.3,0,2.36-1.06,2.36-2.36s-1.06-2.36-2.36-2.36-2.36,1.06-2.36,2.36,1.06,2.36,2.36,2.36Z" style="fill:#e7e7e7;"/><path d="M482.65,478.53c1.3,0,2.36-1.06,2.36-2.36s-1.06-2.36-2.36-2.36-2.36,1.06-2.36,2.36,1.06,2.36,2.36,2.36Z" style="fill:#e7e7e7;"/><path d="M490.73,478.04c1.3,0,2.36-1.06,2.36-2.36s-1.06-2.36-2.36-2.36-2.36,1.06-2.36,2.36,1.06,2.36,2.36,2.36Z" style="fill:#e7e7e7;"/><path d="M498.47,476.68c1.3,0,2.36-1.06,2.36-2.36s-1.06-2.36-2.36-2.36-2.36,1.06-2.36,2.36,1.06,2.36,2.36,2.36Z" style="fill:#e7e7e7;"/><path d="M505.24,472.69c1.3,0,2.36-1.06,2.36-2.36s-1.06-2.36-2.36-2.36-2.36,1.06-2.36,2.36,1.06,2.36,2.36,2.36Z" style="fill:#e7e7e7;"/><path d="M511.96,467.97c1.3,0,2.36-1.06,2.36-2.36s-1.06-2.36-2.36-2.36-2.36,1.06-2.36,2.36,1.06,2.36,2.36,2.36Z" style="fill:#e7e7e7;"/><path d="M517.51,462.98c1.3,0,2.36-1.06,2.36-2.36s-1.06-2.36-2.36-2.36-2.36,1.06-2.36,2.36,1.06,2.36,2.36,2.36Z" style="fill:#e7e7e7;"/><path d="M521.77,456.62c1.3,0,2.36-1.06,2.36-2.36s-1.06-2.36-2.36-2.36-2.36,1.06-2.36,2.36,1.06,2.36,2.36,2.36Z" style="fill:#e7e7e7;"/><path d="M529.53,460.61c1.3,0,2.36-1.06,2.36-2.36s-1.06-2.36-2.36-2.36-2.36,1.06-2.36,2.36,1.06,2.36,2.36,2.36Z" style="fill:#e7e7e7;"/><path d="M534.74,465.6c1.3,0,2.36-1.06,2.36-2.36s-1.06-2.36-2.36-2.36-2.36,1.06-2.36,2.36,1.06,2.36,2.36,2.36Z" style="fill:#e7e7e7;"/><path d="M540.29,471.42c1.3,0,2.36-1.06,2.36-2.36s-1.06-2.36-2.36-2.36-2.36,1.06-2.36,2.36,1.06,2.36,2.36,2.36Z" style="fill:#e7e7e7;"/><path d="M546.52,475.68c1.3,0,2.36-1.06,2.36-2.36s-1.06-2.36-2.36-2.36-2.36,1.06-2.36,2.36,1.06,2.36,2.36,2.36Z" style="fill:#e7e7e7;"/><path d="M554.21,478.04c1.3,0,2.36-1.06,2.36-2.36s-1.06-2.36-2.36-2.36-2.36,1.06-2.36,2.36,1.06,2.36,2.36,2.36Z" style="fill:#e7e7e7;"/><path d="M561.81,478.04c1.3,0,2.36-1.06,2.36-2.36s-1.06-2.36-2.36-2.36-2.36,1.06-2.36,2.36,1.06,2.36,2.36,2.36Z" style="fill:#e7e7e7;"/><path d="M569.01,476.17c1.3,0,2.36-1.06,2.36-2.36s-1.06-2.36-2.36-2.36-2.36,1.06-2.36,2.36,1.06,2.36,2.36,2.36Z" style="fill:#e7e7e7;"/><path d="M574.66,466.7c-1.3,0-2.36,1.06-2.36,2.36s1.06,2.36,2.36,2.36,2.36-1.06,2.36-2.36-1.06-2.36-2.36-2.36Z" style="fill:#e7e7e7;"/><path d="M578.36,460.88c-1.3,0-2.36,1.06-2.36,2.36s1.06,2.36,2.36,2.36,2.36-1.06,2.36-2.36-1.06-2.36-2.36-2.36Z" style="fill:#e7e7e7;"/><path d="M580.02,453.53c-1.3,0-2.36,1.06-2.36,2.36s1.06,2.36,2.36,2.36,2.36-1.06,2.36-2.36-1.06-2.36-2.36-2.36Z" style="fill:#e7e7e7;"/><path d="M578.36,448.54c0,1.3,1.06,2.36,2.36,2.36s2.36-1.06,2.36-2.36-1.06-2.36-2.36-2.36-2.36,1.06-2.36,2.36Z" style="fill:#e7e7e7;"/><path d="M577.65,441.9c0,1.3,1.06,2.36,2.36,2.36s2.36-1.06,2.36-2.36-1.06-2.36-2.36-2.36-2.36,1.06-2.36,2.36Z" style="fill:#e7e7e7;"/><path d="M576,434.69c0,1.3,1.06,2.36,2.36,2.36s2.36-1.06,2.36-2.36-1.06-2.36-2.36-2.36-2.36,1.06-2.36,2.36Z" style="fill:#e7e7e7;"/><path d="M573.64,427.97c0,1.3,1.06,2.36,2.36,2.36s2.36-1.06,2.36-2.36-1.06-2.36-2.36-2.36-2.36,1.06-2.36,2.36Z" style="fill:#e7e7e7;"/><path d="M573.2,423.62c1.3,0,2.36-1.06,2.36-2.36s-1.06-2.36-2.36-2.36-2.36,1.06-2.36,2.36,1.06,2.36,2.36,2.36Z" style="fill:#e7e7e7;"/><path d="M567.24,414.54c0,1.3,1.06,2.36,2.36,2.36s2.36-1.06,2.36-2.36c0-.22-.04-.43-.1-.63h-4.53c-.06,.2-.1,.41-.1,.63Z" style="fill:#e7e7e7;"/></g><g id="clock"><rect id="clock-base" x="323.66" y="484.09" width="365.82" height="110.73" rx="30.44" ry="30.44" transform="translate(-22.51 22.06) rotate(-2.44)" style="opacity:.7;"/><text id="clock-text" transform="translate(340.29 572.27) rotate(-3)" style="fill:#edd8f6; font-family:Rubik-Bold, Rubik; font-size:71.15px;"><tspan x="0" y="0">00:00</tspan><tspan x="214.31" y="0" style="letter-spacing:-.03em;"> </tspan><tspan x="227.68" y="0">AM</tspan></text></g><g id="left-ear"><path d="M559.1,154.17s28.56-73.23,58.71-71.58,39.46,95.21,39.46,95.21l3.7,31.31,37.59,13.32s-31.21,16.64-30.99,20.79c.22,4.16,10.55,11.63,10.55,11.63l-42.02,8.62s-59.04-35.3-76.99-109.3Z" style="fill:#ffd6e1;"/><path d="M579.73,180.23s19.17-43.38,40.82-60.19c0,0,12.05-8.32,14.13,35.49s-5.42,75.29-5.42,75.29l-49.53-50.59Z" style="fill:#ff79ef;"/></g><g id="head"><path d="M451.27,142.52s-145.44,25.62-117.92,166.15c0,0-19.87,22.63-33,32.55,0,0-4.91,8.96,35.61,33.61l-16.6-1.2s-7.39,5.68,28.7,21.86l-10.04-.72s-6.51,9.62,65.79,24.14c72.3,14.52,157.42,2.02,157.42,2.02,0,0,43.39-4.25,86.07-36.49l-8.01-1.94s30.53-14.3,26.59-27l-15.13,5.31s26.97-24.25,25.63-35.22l-14.69-11.54s-4.85-10.83-14.58-21.23c0,0,18.6-66.97-64.57-135.44,0,0-18.69-20.75-54.4-20.61l11.23-12.26s-19.74-.77-36.11,10.98l8.69-23.69s-21.48,1.82-60.68,30.69Z" style="fill:#c56fff;"/><path d="M443.29,320.67c-42.36-23.43-76.56,68.81-76.56,68.81-5.09-3.11-25.82-45.73-30.55-55.56-.51-1.06-1.78-1.48-2.84-.98-7.32,3.47-23.86,6.48-32.45,7.88-.18,.14-.36,.28-.53,.41,0,0-4.91,8.96,35.61,33.61l-16.6-1.2s-7.39,5.68,28.7,21.86l-10.04-.72s-6.51,9.61,65.67,24.12h.01c-2.21-28.57,50.02-82.73,50.02-82.73,8.78-14.12-10.43-15.5-10.43-15.5Z" style="fill:#ffd6e1;"/><path d="M572.78,418.67l-.58,.39c15.57-3.35,45.5-12.25,75.11-34.61l-8.01-1.94s30.53-14.3,26.59-27l-15.13,5.31s26.97-24.25,25.63-35.22l-.42-.33-22.88-3.03-4.02-7.09c-1.49-2.63-4.04-4.58-7.03-5.06-15.16-2.43,2.53,40.64,2.53,40.64-14.59,44.49-71.77,67.92-71.77,67.92Z" style="fill:#ffd6e1;"/><path d="M492.84,352.3c4.56-11.56,17.28-31,52.48-41.34,6.23-1.83,12.88-1.84,19.1,.04,11.14,3.39,28.21,13.62,39.48,38.5,0,0,12.15,19.89-14.52,34.53-21.11,11.59-70.16,14.84-90.24-3.35-7.85-7.12-10.18-18.52-6.3-28.38Z" style="fill:#ffd6e1;"/><path d="M543.13,336.7l38.41-2.23c3.01-.18,4.63,3.47,2.49,5.59l-14.82,14.63c-1.65,1.63-4.21,1.89-6.15,.63l-21.21-13.75c-2.15-1.39-1.27-4.72,1.29-4.87Z" style="fill:#8a1880;"/><ellipse cx="465.04" cy="247.73" rx="20.45" ry="31.83" transform="translate(105.75 633.14) rotate(-75.05)" style="fill:#ffd6e1;"/><ellipse cx="596.73" cy="240.8" rx="31" ry="20.02" transform="translate(-46.61 227.24) rotate(-20.77)" style="fill:#ffd6e1;"/><circle cx="462.95" cy="317.62" r="24.77"/><ellipse cx="604.97" cy="310.53" rx="24.34" ry="21.82" transform="translate(251.78 891.63) rotate(-85.88)"/></g><g id="rigth-ear"><path d="M416.96,151.95s10.12,85.85-85.95,137.15l-37.2,13.62,13.88-27.46-38.43,1.89,41.23-37.13s-35.14-90.5-11.55-112.6c23.58-22.1,86.23,6.21,86.23,6.21,0,0,29.83,13.27,31.8,18.33Z" style="fill:#ffd6e1;"/><path d="M355.33,265.27s-53.28-101.28-41.46-114.6c0,0,4.69-19.26,94.65,33.01,0,0-8.36,49.11-53.19,81.58Z" style="fill:#ff79ef;"/></g><rect id="right-hand-lower" x="261.77" y="481.31" width="137.33" height="53.98" rx="26.99" ry="26.99" transform="translate(-274.98 540.32) rotate(-60)" style="fill:#613bb2;"/><rect id="left-hand-lower" x="610.12" y="461.72" width="137.61" height="53.98" rx="26.99" ry="26.99" transform="translate(813.44 1314.36) rotate(-135)" style="fill:#613bb2;"/><g id="right-hand-sleeve"><rect x="341.41" y="442.11" width="67.14" height="28.54" transform="translate(597.18 -90.9) rotate(61.51)" style="fill:#fff;"/><path d="M406.37,404.88h0c23.84,0,43.19,19.35,43.19,43.19v12.74c0,7.17-5.82,12.98-12.98,12.98h-60.41c-7.17,0-12.98-5.82-12.98-12.98v-12.74c0-23.84,19.35-43.19,43.19-43.19Z" transform="translate(598.62 -127.4) rotate(61.51)" style="fill:#395f94;"/></g><g id="hat"><path d="M509.26,34.84c-2.79-20.31-37.34-32.33-77.15-26.85-39.82,5.48-69.83,26.39-67.03,46.7,2.79,20.31,37.34,32.33,77.15,26.85,39.82-5.48,69.83-26.39,67.03-46.7Zm-69.78,29c-27.94,3.85-51.73-1.29-53.13-11.46-1.4-10.17,20.12-21.54,48.06-25.38,27.94-3.85,51.73,1.29,53.13,11.46,1.4,10.17-20.12,21.54-48.06,25.38Z" style="fill:#ffec47;"/><path d="M433.01,18.33c-29.11,4.01-51.28,17.58-49.53,30.32,.44,3.21,2.37,6.07,5.47,8.47-1.46-1.42-2.36-3.01-2.6-4.75-1.4-10.17,20.12-21.54,48.06-25.38,27.94-3.85,51.73,1.29,53.13,11.46,.15,1.11,.02,2.24-.36,3.37,1.43-2.53,2.05-5.12,1.7-7.67-1.75-12.74-26.77-19.82-55.87-15.81Z" style="fill:#dba700;"/></g><path id="glasses" d="M688.73,282.65h-7.09c-4.22-33.09-28.88-58.49-58.69-58.49-27.9,0-51.29,22.26-57.62,52.24-16.22-15.88-29.27-5.27-34.94,1.31-8.56-27.53-33.39-47.45-62.7-47.45-34.41,0-62.65,27.45-65.62,62.46h-7.18c-4.31,0-7.8,3.63-7.8,8.12v1.13c0,4.48,3.49,8.12,7.8,8.12h7.81c5.17,32.5,32.29,57.28,64.99,57.28,36.39,0,65.89-30.69,65.89-68.56,0-2.83-.18-5.61-.5-8.34,14.47-20.49,25.9-8.11,30.61-.84-.04,1.02-.07,2.05-.07,3.09,0,37.86,26.56,68.56,59.33,68.56,30.62,0,55.81-26.8,58.99-61.21h6.79c4.62,0,8.37-3.9,8.37-8.71s-3.75-8.71-8.37-8.71Zm-221.03,73.07c-30.21,0-54.7-25.48-54.7-56.91s24.49-56.91,54.7-56.91,54.7,25.48,54.7,56.91-24.49,56.91-54.7,56.91Zm155.26-6.1c-27.2,0-49.25-25.48-49.25-56.91s22.05-56.91,49.25-56.91,49.25,25.48,49.25,56.91-22.05,56.91-49.25,56.91Z" style="fill:#8857a7;"/><g id="sunflower"><path d="M872.47,303.86c-1.36,.64-29.42-30.08-68.19-2.05-.83,.6-1.53,1.37-2.02,2.28-1.49,2.8-3.32,9.36,2.38,20.79l1.86,3.99s-3.99,5.72,.18,20.68c3.77,13.52,20.77,.98,24.03-1.58,.35-.28,.66-.57,.95-.91,2.48-2.89,15.59-18.31,22.16-28.61,6.25-9.8,18.65-14.6,18.65-14.6Z" style="fill:#447d1b;"/><path d="M763.88,379.2s12.05-36.77,70.13-67.64c0,0-15.09-2.21-61.65,38.62l-8.48,29.02Z" style="fill:#528a21;"/><path d="M752.58,347.54s15.23-6.66,15.17-19.98c-.05-10.34-16.11-14.44-23.31-15.76-2.29-.42-4.64-.2-6.81,.63-8.68,3.31-34.37,17.07-57.56,46.83,1.34-.57,38.22,8.86,53.5,15.97,1.34,.62,2.93,.41,4.23-.29,2.15-1.16,6.8-6.28,7.75-11.92,1.58-9.32,3.95-13.81,7.03-15.48Z" style="fill:#447d1b;"/><path d="M764.22,369.27s-15.09-53.94-45.3-34.5c0,0,30.18-6.79,38.53,30.77,8.35,37.56,3.23,9.92,3.23,9.92l3.53-6.19Z" style="fill:#528a21;"/><path d="M691.98,556.98l-15.34-4.24s106.5-195.47,110.42-300.77l8.59,4.07s-16.45,140.04-103.67,300.94Z" style="fill:#447d1b;"/><path d="M710.92,165.61c-3.9,8.77,29.35,23,29.35,23,0,0-34.92,8.83-32.38,18.49,2.55,9.66,36.91,5.24,36.91,5.24,0,0-24.25,24.46-18.79,32.2s34.59-13.91,34.59-13.91c0,0-8.38,33.18-.17,37.28,8.21,4.1,23-29.35,23-29.35,0,0,9.26,36.71,18.49,32.38,9.23-4.34,5.24-36.91,5.24-36.91,0,0,24.87,24.48,32.2,18.79,7.34-5.69-13.92-34.59-13.92-34.59,0,0,32.85,9.31,37.28,.17s-29.35-23-29.35-23c0,0,33.96-7.19,32.38-18.49s-36.91-5.24-36.91-5.24c0,0,25.56-22.45,18.79-32.2-6.76-9.75-34.59,13.92-34.59,13.92,0,0,9.03-34.09,.17-37.28s-23,29.35-23,29.35c0,0-8.92-35.23-18.49-32.38s-5.24,36.91-5.24,36.91c0,0-24.47-26.69-32.2-18.79-7.73,7.9,13.92,34.59,13.92,34.59,0,0-33.39-8.94-37.28-.17Z" style="fill:#efa400;"/><path d="M721.02,145.92c-6.14,7.37,21.97,30.13,21.97,30.13,0,0-36.01-1.02-36.19,8.97-.18,9.99,34.09,15.11,34.09,15.11,0,0-30,16.92-26.86,25.86s37.07-3.96,37.07-3.96c0,0-17.11,29.64-10.33,35.83,6.78,6.18,30.13-21.97,30.13-21.97,0,0-1.1,37.85,8.97,36.19,10.07-1.66,15.11-34.09,15.11-34.09,0,0,17.25,30.33,25.86,26.86,8.61-3.47-3.96-37.07-3.96-37.07,0,0,29.07,17.91,35.83,10.33,6.76-7.59-21.97-30.13-21.97-30.13,0,0,34.63,2.34,36.19-8.97s-34.09-15.11-34.09-15.11c0,0,30.71-14.64,26.86-25.86-3.85-11.23-37.07,3.96-37.07,3.96,0,0,17.98-30.33,10.33-35.83-7.65-5.49-30.13,21.97-30.13,21.97,0,0,1.02-36.33-8.97-36.19-9.99,.14-15.11,34.09-15.11,34.09,0,0-16.27-32.35-25.86-26.86-9.59,5.49,3.96,37.07,3.96,37.07,0,0-29.69-17.7-35.83-10.33Z" style="fill:#ffc90d;"/><circle cx="786.86" cy="192" r="44.99" style="fill:#421c10;"/><circle cx="786.86" cy="192" r="28.07" style="fill:#291005;"/><path d="M719.23,529.01c-9.55,9.55-16.21,18.37-26.84,7.74-10.63-10.63-11.51-26.99-1.96-36.54s25.91-8.67,36.54,1.96c10.63,10.63,1.81,17.29-7.74,26.84Z" style="fill:#613bb2;"/></g></svg>