<svg id="deer-banana" xmlns="http://www.w3.org/2000/svg" viewBox="0 0 1000 1000"><g id="tail-static"><path d="M441.21 664.11s-19.3-33.88-46.33-39.46-79.78 31.74-79.78 31.74 10.54 5.79 10.74 8.58c0 0-7.72 5.58-28-3.43 0 0 41.65 78.93 128.11 35 .05-.04 19.98-10.12 15.26-32.43Z" style="fill:#fef89f"/><path d="M428.13 659.61s-10.08-21.61-33.68-27.24-57.69 33.89-57.69 33.89 10.72 2.79 9.65 4.29c0 0-5.57 6.65-18 2.57 0 0 21.87 23.38 56.62 19.09s45.47-32 45.47-32Z" style="fill:#ffd313"/></g><g id="right-leg"><rect x="414.22" y="643.57" width="65.19" height="153.08" rx="32.6" style="fill:#ffd313"/><path d="M414.22 755.62v8.44a32.59 32.59 0 0 0 32.59 32.59 32.59 32.59 0 0 0 32.6-32.59v-8.44Z" style="fill:#6b3d26"/></g><g id="left-leg"><rect x="521.91" y="643.57" width="65.19" height="153.08" rx="32.6" style="fill:#ffd313"/><path d="M521.91 755.62v8.44a32.59 32.59 0 0 0 32.6 32.59 32.59 32.59 0 0 0 32.59-32.59v-8.44Z" style="fill:#6b3d26"/></g><rect id="left-hand-upper" x="538.39" y="458.76" width="141.36" height="55.57" rx="27.78" transform="rotate(25.75 609.091 486.566)" style="fill:#ffd313"/><rect id="right-hand-upper" x="306.73" y="457.91" width="147.24" height="55.57" rx="27.78" transform="rotate(-12.24 380.442 485.824)" style="fill:#ffd313"/><g id="body"><path d="M585.45 682.36C576.1 709 439.81 700.1 439.81 700.1a28.48 28.48 0 0 1-28.48-28.48V434h165.6s21.73 179.31 8.52 248.36Z" style="fill:#ffd313"/><rect x="463.04" y="469.17" width="91.05" height="199.98" rx="28.11" style="fill:#fef89f"/></g><g id="head"><path id="leftantler" d="M654.89 6.27s-8.06-.75-12.29 7.73c-1.15 2.29 2.28 44.61 2.28 44.61L624.06 45a15.67 15.67 0 0 0-11.17-2.44c-3.82.64-8.18 2.35-10.33 6.64a21.67 21.67 0 0 0-1.67 4.54 16 16 0 0 0 6.65 17.08 52.28 52.28 0 0 0 9.32 5.27c6.58 2.57 22.88 29.74 22.88 29.74s-18.31 50.33-36 71.49L626 192.54l28.88-40.71s60.91-3.15 76.64-70.64c0 0 1-5.5-3.93-10.68a17.46 17.46 0 0 0-16.12-5.1 9.17 9.17 0 0 0-4.54 2.06c-4 3.71-6.58 12.58-6.58 12.58s-9.43 28.31-32.31 38c0 0 10.74-52.31 4.39-98.31a15.22 15.22 0 0 0-7.86-11.45 19.68 19.68 0 0 0-9.68-2.02Z" style="fill:#9f5d34"/><path d="M401.75 3.24S409.81 2.49 414 11c1.15 2.28-2.28 44.61-2.28 44.61l20.82-13.65a15.71 15.71 0 0 1 11.17-2.44c3.82.65 8.18 2.36 10.33 6.65a21.6 21.6 0 0 1 1.67 4.53 16 16 0 0 1-6.65 17.08 51.07 51.07 0 0 1-9.28 5.22c-6.58 2.58-22.88 29.74-22.88 29.74s18.31 50.33 36 71.5l-22.31 15.26-28.88-40.72s-60.91-3.14-76.64-70.63c0 0-.95-5.5 3.93-10.68a17.44 17.44 0 0 1 16.12-5.11 9.26 9.26 0 0 1 4.54 2.06c4 3.72 6.58 12.59 6.58 12.59s9.43 28.31 32.31 38c0 0-10.74-52.31-4.39-98.31a15.23 15.23 0 0 1 7.86-11.46 19.58 19.58 0 0 1 9.73-2Z" style="fill:#9f5d34"/><path d="M340.24 262.68a73.45 73.45 0 0 0-5.64 20.83c-3.55 29.47-7.84 109.72 43.41 149 0 0 49.05 40.87 152.14 36.6 107-4.43 153.14-41 156.42-75.49 0 0 .86-15.16-7.72-23.74 0 0 2.86-76.64-10-108.1s-43.75-85.22-56.9-92.08l25.58-22.19a2.83 2.83 0 0 0-.33-4.53c-5.73-3.61-22.08-8.68-63.86 4.13l14-43.68a3 3 0 0 0-2.78-4c-9-.3-33.83 3-76.17 38.23l1.1-15.66a1.75 1.75 0 0 0-1.95-1.87c-8.27 1-40 6.86-74.34 41l-24.88 15.73s-42.48 27.77-68.08 85.82Z" style="fill:#ffd313"/><path d="m561.43 399.47-15-3.88S523.86 315.23 481 292.64s-79.78 2-79.78 2-46.62 29.74-24.6 100.95 103.81 72.35 103.81 72.35 111 12.29 166.72-25.45 37.46-62.63 37.46-62.63l-5.72-10.58s4-85.44-31.74-86.19-49.19 29-49.19 29-19.2 41.32-22.63 78.91l-2.86 6.29Z" style="fill:#fef89f"/><path id="nose" d="m563.28 410.69 15.82-17.35a1.56 1.56 0 0 0-1.16-2.61h-34.43a1.56 1.56 0 0 0-1.09 2.68l17.94 17.38a2 2 0 0 0 2.92-.1Z" style="fill:#a15e2e"/><circle cx="550.7" cy="262.32" r="22.59" style="fill:#fef89f"/><circle cx="578.73" cy="218.04" r="15.01" style="fill:#fef89f"/><circle cx="538.73" cy="201.91" r="12.4" style="fill:#fef89f"/><circle cx="475.67" cy="374.68" r="21.98" style="fill:#221f1f"/><ellipse cx="617.8" cy="375.43" rx="20.45" ry="22.17" style="fill:#221f1f"/><ellipse cx="473.8" cy="322.59" rx="19.7" ry="33.8" transform="rotate(-68.91 473.797 322.587)" style="fill:#eeb923"/><ellipse cx="622.84" cy="323.01" rx="30.31" ry="20.18" transform="rotate(-22.43 622.953 323.044)" style="fill:#eeb923"/></g><g id="clock"><rect id="clock-base" x="306.94" y="527.13" width="405.38" height="122.7" rx="33.73" transform="rotate(2.47 509.958 589.058)" style="opacity:.7000000000000001"/><text id="clock-text" transform="rotate(2.47 -13919.163 7788.189)" style="font-size:78.84545135498047px;fill:#42c17f;font-family:Rubik-Bold,Rubik;font-weight:700">00:00<tspan x="238.98" y="0" style="letter-spacing:-.024994506228741574em"> </tspan><tspan x="253.56" y="0">AM</tspan></text></g><g id="right-hand-lower"><rect x="241.65" y="506.76" width="141.36" height="55.57" rx="27.78" transform="rotate(-60 312.329 534.55)" style="fill:#ffd313"/><path d="m270.75 551-4.11 7.15a27.78 27.78 0 1 0 48.18 27.68l4.11-7.15Z" style="fill:#6b3d26"/></g><g id="left-hand-lower"><rect x="613.83" y="509.38" width="147.24" height="55.57" rx="27.78" transform="rotate(-139.72 687.443 537.163)" style="fill:#ffd313"/><path d="m698.16 582.66 6.29 5.33a27.78 27.78 0 1 0 35.93-42.39l-6.29-5.33Z" style="fill:#6b3d26"/></g><g id="right-ear"><path d="M425.34 205.13s-8.15-34.74-47.19-39.89-64.77 19.94-64.77 19.94S288.5 197 269.2 257c0 0 11.15 14.59 99.52 19.31Z" style="fill:#ffd313"/><path d="M370.67 207.06s-40.34-6.22-69.3 43.33l36 5.57Z" style="fill:#eeb925"/></g><g id="left-ear"><path d="M602.21 184s30.89-16.59 73.5-4 60.34 59.76 60.34 59.76-37.47 25.74-82.36 22.59Z" style="fill:#ffd313"/><path d="M655.55 219.29s11.15-5.87 28 0 28.17 20.44 28.17 20.44-14.16 7.72-42.18 8.44c.02 0-7.27-18.59-13.99-28.88Z" style="fill:#eeb925"/></g></svg>