<svg id="deer" xmlns="http://www.w3.org/2000/svg" viewBox="0 0 1000 1000"><g id="tail-static"><path d="M439.79,824s-23.67-41.57-56.82-48.4-97.85,38.93-97.85,38.93,12.92,7.1,13.17,10.52c0,0-9.46,6.84-34.34-4.21,0,0,51.08,96.81,157.13,42.88C421.08,863.73,445.58,851.36,439.79,824Z" style="fill:#dbb078"/><path d="M423.74,818.48s-12.36-26.57-41.29-33.4-70.77,41.56-70.77,41.56,13.16,3.42,11.84,5.26c0,0-6.84,8.15-22.09,3.16,0,0,26.83,28.67,69.44,23.41s55.77-39.2,55.77-39.2Z" style="fill:#8a5324"/></g><g id="right-leg"><rect x="406.68" y="798.81" width="79.96" height="187.75" rx="39.98" style="fill:#8a5324"/><path d="M406.68,936.24v10.34a40,40,0,0,0,40,40h0a40,40,0,0,0,40-40V936.24Z" style="fill:#3b2114"/></g><g id="left-leg"><rect x="538.77" y="798.81" width="79.96" height="187.75" rx="39.98" style="fill:#8a5324"/><path d="M538.77,936.24v10.34a40,40,0,0,0,40,40h0a40,40,0,0,0,40-40V936.24Z" style="fill:#3b2114"/></g><rect id="left-hand-upper" x="558.98" y="572.15" width="173.38" height="68.15" rx="34.07" transform="translate(327.5 -220.31) rotate(25.75)" style="fill:#8a5324"/><rect id="right-hand-upper" x="274.85" y="571.11" width="180.58" height="68.15" rx="34.07" transform="translate(-120.03 91.2) rotate(-12.24)" style="fill:#8a5324"/><g id="body"><path id="body_base" data-name="body base" d="M616.7,846.38c-11.47,32.73-178.62,21.76-178.62,21.76a34.93,34.93,0,0,1-34.94-34.93V541.73h203.1S632.89,761.7,616.7,846.38Z" style="fill:#8a5324"/><rect id="body_pattern" data-name="body pattern" x="466.57" y="584.92" width="111.67" height="245.27" rx="34.48" style="fill:#dbb179"/></g><g id="head"><path id="leftantler" d="M701.87,17.18s-9.89-.92-15.09,9.47c-1.4,2.8,2.81,54.71,2.81,54.71L664.05,64.63a19.25,19.25,0,0,0-13.7-3c-4.69.79-10,2.9-12.67,8.16a26.93,26.93,0,0,0-2,5.56,19.67,19.67,0,0,0,8.16,20.94,62.64,62.64,0,0,0,11.43,6.47c8.07,3.15,28.06,36.47,28.06,36.47s-22.45,61.73-44.2,87.69l27.36,18.72,35.43-49.94s74.7-3.86,94-86.63c0,0,1.16-6.75-4.82-13.1a21.41,21.41,0,0,0-19.77-6.26,11.17,11.17,0,0,0-5.57,2.53c-4.91,4.55-8.07,15.43-8.07,15.43S746.06,142.39,718,154.32c0,0,13.17-64.16,5.38-120.58a18.69,18.69,0,0,0-9.63-14A24.11,24.11,0,0,0,701.87,17.18Z" style="fill:#563422"/><path id="right_antler" data-name="right antler" d="M391.39,13.46s9.89-.92,15.08,9.47c1.4,2.8-2.81,54.71-2.81,54.71l25.55-16.73a19.24,19.24,0,0,1,13.69-3c4.69.79,10,2.9,12.67,8.16a27,27,0,0,1,2.06,5.56,19.68,19.68,0,0,1-8.16,20.94A63.31,63.31,0,0,1,438,99C430,102.19,410,135.51,410,135.51s22.44,61.73,44.19,87.69l-27.36,18.72L391.39,192s-74.71-3.86-94-86.63c0,0-1.16-6.75,4.83-13.1A21.41,21.41,0,0,1,322,86a11.25,11.25,0,0,1,5.56,2.52c4.92,4.56,8.07,15.44,8.07,15.44s11.58,34.72,39.63,46.65c0,0-13.16-64.16-5.38-120.58a18.67,18.67,0,0,1,9.64-14A24.11,24.11,0,0,1,391.39,13.46Z" style="fill:#563422"/><path id="head_base" data-name="head base" d="M316,331.66A90.2,90.2,0,0,0,309,357.21c-4.36,36.14-9.62,134.57,53.24,182.7,0,0,60.15,50.14,186.59,44.9,131.17-5.44,187.82-50.34,191.85-92.6,0,0,1-18.59-9.47-29.11,0,0,3.51-94-12.27-132.58S665.31,226,649.18,217.59l31.38-27.22a3.48,3.48,0,0,0-.4-5.56c-7-4.42-27.09-10.64-78.33,5.07L619,136.31a3.74,3.74,0,0,0-3.41-4.89c-11.06-.37-41.49,3.65-93.42,46.88l1.33-19.22a2.16,2.16,0,0,0-2.4-2.29c-10.15,1.2-49,8.42-91.17,50.27l-30.51,19.29S347.35,260.46,316,331.66Z" style="fill:#8a5324"/><path id="head_face" data-name="head face" d="M587.23,499.43l-18.37-4.76s-27.71-98.56-80.32-126.27-97.85,2.46-97.85,2.46-57.17,36.47-30.17,123.81S487.84,583.4,487.84,583.4s136.09,15.08,204.48-31.21,45.95-76.81,45.95-76.81l-7-13s4.91-104.79-38.93-105.71S632,392.25,632,392.25s-23.5,50.68-27.7,96.8l-3.51,7.72Z" style="fill:#dbb179"/><path id="nose" d="M589.5,513.2l19.41-21.29a1.92,1.92,0,0,0-1.42-3.21H565.26a1.92,1.92,0,0,0-1.34,3.29l22,21.32A2.49,2.49,0,0,0,589.5,513.2Z"/><circle id="head_face_pattern_1" data-name="head face pattern 1" cx="574.08" cy="331.22" r="27.71" style="fill:#dbb179"/><circle id="head_face_pattern_2" data-name="head face pattern 2" cx="608.45" cy="276.9" r="18.41" style="fill:#dbb179"/><circle id="head_face_pattern_3" data-name="head face pattern 3" cx="559.39" cy="257.13" r="15.21" style="fill:#dbb179"/><circle id="right_eye" data-name="right eye" cx="482.05" cy="469.03" r="26.95" style="fill:#221f1f"/><ellipse id="left_eye" data-name="left eye" cx="656.37" cy="469.94" rx="25.08" ry="27.18" style="fill:#221f1f"/><ellipse id="right_eyebrow" data-name="right eyebrow" cx="479.76" cy="405.14" rx="24.16" ry="41.45" transform="translate(-70.87 706.98) rotate(-68.91)" style="fill:#8a5324"/><ellipse id="left_eyebrow" data-name="left eyebrow" cx="662.55" cy="405.66" rx="37.17" ry="24.75" transform="translate(-104.66 283.54) rotate(-22.43)" style="fill:#8a5324"/></g><g id="clock"><rect id="clock-base" x="275.11" y="656" width="497.19" height="150.49" rx="41.37" transform="translate(32.03 -21.91) rotate(2.47)" style="opacity:0.7000000000000001"/><text id="clock-text" transform="translate(294.47 754.06) rotate(2.47)" style="font-size:96.70179748535156px;fill:#42c17f;font-family:Rubik-Bold, Rubik;font-weight:700">00:00<tspan x="293.1" y="0" style="letter-spacing:-0.024994283977669878em"> </tspan><tspan x="310.99" y="0">AM</tspan></text></g><g id="right-hand-lower"><rect x="195.03" y="631.02" width="173.38" height="68.15" rx="34.07" transform="translate(-435.13 576.53) rotate(-60)" style="fill:#8a5324"/><path d="M230.73,685.32l-5,8.77a34.08,34.08,0,0,0,59.09,34l5-8.77Z" style="fill:#3b2114"/></g><g id="left-hand-lower"><rect x="651.5" y="634.23" width="180.58" height="68.15" rx="34.07" transform="translate(875.62 1657.73) rotate(-139.72)" style="fill:#8a5324"/><path d="M754.93,724.1l7.72,6.54a34.07,34.07,0,0,0,44.06-52L799,672.11Z" style="fill:#3b2114"/></g><g id="right-ear"><path d="M420.32,261.08s-10-42.62-57.87-48.93S283,236.61,283,236.61s-30.51,14.47-54.19,88.13c0,0,13.68,17.88,122.06,23.67Z" style="fill:#8a5324"/><path d="M353.28,263.44s-49.49-7.62-85,53.14l44.19,6.84Z" style="fill:#dbb179"/></g><g id="left-ear"><path d="M637.25,235.12s37.88-20.34,90.14-4.91,74,73.31,74,73.31-45.95,31.56-101,27.7Z" style="fill:#8a5324"/><path d="M702.67,278.44s13.68-7.19,34.37,0,34.55,25.08,34.55,25.08-17.37,9.47-51.74,10.34C719.85,313.86,710.91,291.06,702.67,278.44Z" style="fill:#dbb179"/></g></svg>