<svg id="dog-labrador-golden" xmlns="http://www.w3.org/2000/svg" viewBox="0 0 1000 1000"><path id="tail" d="M372.2 725.76s-19.2-10.48-9.46 10.5c9.74 20.99 45.29 30.38 45.29 30.38s40.78 10.5 71.86-17.14c31.09-27.64 36.91-54.18 36.91-54.18s6.76-29.41 1.16-65.11c-5.59-35.7-41.53-20.81-41.53-20.81l1.36 40.49s5.19 48.99-28.04 71.18c-27.75 18.52-54.55 13.2-54.55 13.2s-7.2-1.18-23.01-8.52Z" style="fill:#f3ab55"/><path id="left-ear" d="M708.74 230.56s2.71-29.86-53.15-57.88c0 0-17.66-12.55-33.03-29.24-8.86-9.62-16.94-16.73-22.2-21.03-4.44-3.63-9.57-6.32-15.1-7.8-9.61-2.57-25.43-4.86-39.57 2.05-2.06 1.01-3.57 2.95-3.9 5.22-.55 3.79.73 10.11 10.36 18.23 16.22 13.68 32.05 79.35 32.05 79.35s8.27 30.66 11.29 93.01c0 0 2.65 49.05 35 49.56 0 0 11.67-.05 18.59-16.99 6.92-16.94 36.44-44.81 36.44-44.81s27.5-30.6 23.22-69.66Z" style="fill:#f3ab55"/><path id="right-ear" d="M251.84 263.45s-5.81-29.42 46.84-63.1c0 0 16.26-14.32 29.81-32.52 7.81-10.49 15.11-18.4 19.89-23.23 4.03-4.07 8.86-7.28 14.21-9.33 9.29-3.55 24.79-7.48 39.57-2.08 2.16.79 3.86 2.56 4.42 4.79.94 3.72.33 10.13-8.41 19.21-14.71 15.29-23.61 82.26-23.61 82.26s-5.03 31.35-1.55 93.68c0 0 2.32 39.48-29.81 43.35 0 0-11.61 1.16-20.26-14.97s-40.9-40.77-40.9-40.77-30.39-18-30.19-57.29Z" style="fill:#f3ab55"/><rect id="right-leg" x="414.91" y="595.42" width="63.33" height="148.71" rx="31.67" ry="31.67" style="fill:#ffd782"/><rect id="left-leg" x="519.53" y="595.42" width="63.33" height="148.71" rx="31.67" ry="31.67" style="fill:#ffd782"/><rect id="left-hand-upper" x="536.71" y="413.44" width="137.33" height="53.98" rx="26.99" ry="26.99" transform="rotate(21.99 605.412 440.454)" style="fill:#ffd782"/><rect id="right-hand-upper" x="314.45" y="425.45" width="143.04" height="53.98" rx="26.99" ry="26.99" transform="rotate(-26.04 385.913 452.405)" style="fill:#ffd782"/><g id="body"><path d="M580.87 633.1c-9.09 25.92-141.48 17.24-141.48 17.24-15.28 0-27.67-12.39-27.67-27.67V391.8h160.87s21.11 174.23 8.28 241.3Z" style="fill:#ffd782"/><rect x="461.95" y="426" width="88.45" height="194.27" rx="27.31" ry="27.31" style="fill:#ffebb2"/></g><g id="clock"><rect id="clock-base" x="323.66" y="484.09" width="365.82" height="110.73" rx="30.44" ry="30.44" transform="rotate(-2.44 506.677 539.527)" style="opacity:.7"/><text id="clock-text" transform="rotate(-3 11097.2 -6211.44)" style="fill:#42c17f;font-family:Rubik-Bold,Rubik;font-size:71.15px"><tspan x="0" y="0">00:00</tspan><tspan x="215.66" y="0" style="letter-spacing:-.02em"> </tspan><tspan x="228.82" y="0">AM</tspan></text></g><rect id="right-hand-lower" x="253.98" y="483.55" width="137.33" height="53.98" rx="26.99" ry="26.99" transform="rotate(-60 322.645 510.542)" style="fill:#ffd782"/><rect id="left-hand-lower" x="607.45" y="462.68" width="143.04" height="53.98" rx="26.99" ry="26.99" transform="rotate(-135 678.965 489.664)" style="fill:#ffd782"/><g id="head"><path d="M486.03 111.71s17.55-37.55 31.48-32.9c13.94 4.65 0 18.06 0 18.06s34.9-9.35 35.29 2.06c.39 11.42-9.1 15.68-9.1 15.68s104.39 3.42 109.55 155.68c17.02 17.36 62.14 86.53-21.16 132.13 0 0-14.9 20.65-132.1 24.26S360.6 366.29 360.6 366.29s-59.87-174.97 60.9-240.52c0 0 27.03-12.32 64.52-14.06Z" style="fill:#ffd782"/><circle cx="500" cy="292.48" r="21.54"/><circle cx="632.94" cy="283" r="21.54"/><path d="M580.87 288.61s80.13-3.48 80.13 12-12.77 41.81-12.77 41.81-49.94 23.61-62.71 0-4.65-53.81-4.65-53.81Z" style="fill:#ffd782"/><path d="M605.07 311.68a4.137 4.137 0 0 1 .49-5.62c4.33-3.92 14.11-10.58 29.9-9.66 14.84.86 21.37 4.26 24.07 6.42 1.19.95 1.73 2.48 1.46 3.97-.94 5.13-5.02 18.2-22.42 24.68-.56.21-1.16.29-1.76.24-3.82-.3-18.26-2.6-31.74-20.03Z" style="fill:#ef7f7b"/><ellipse cx="498.36" cy="221.37" rx="19.6" ry="31.9" transform="rotate(-73.13 498.353 221.377)" style="fill:#f3ab55"/><ellipse cx="626.59" cy="210.55" rx="31.9" ry="19.6" transform="rotate(-20.98 626.497 210.543)" style="fill:#f3ab55"/></g></svg>