<svg id="dog-pomeranian" xmlns="http://www.w3.org/2000/svg" viewBox="0 0 1000 1000"><g id="tail"><path d="M433.48 648.33s-15.77 5.25-23.32 20.7c0 0-7.1 21.29 7.9 52.05 0 0-6-7.12-9-6.75 0 0-2.31 6.59.25 11.4 0 0 21.91 39.58 84.84 46.47 0 0 41.49-10.68 46.69-67 0 0 4.83 10 8.24 9.16 0 0 9-.62.93-29.29 0 0-13.28-39.32-16.73-44.31l.73-77.52-62.83.1-1.48 69.71Z" style="fill:#ffdeb7"/><path d="M450.52 732.34s12.5 17.82 32.65 24.46c0 0 19 .76 42.89-29.6 0 0 15.66-21.2 4.59-76.14l-32.57-30.64 9 31.18s17.45 28.39-.92 22.63c0 0 19 17.82-4.72 31.16-24.44 13.72-19.57 13.53-49.9 24.61 0 0-1.54 0-1.02 2.34Z" style="fill:#ffa25a"/></g><g id="right-leg"><rect x="414.05" y="595.71" width="63.72" height="149.62" rx="31.86" style="fill:#ffa25a"/><path d="M414.05 705.93v7.55a31.87 31.87 0 0 0 31.86 31.86 31.86 31.86 0 0 0 31.86-31.86v-7.55Z" style="fill:#ffdeb7"/></g><g id="left-leg"><rect x="518.8" y="595.71" width="63.72" height="149.62" rx="31.86" style="fill:#ffa25a"/><path d="M518.8 705.93v7.55a31.86 31.86 0 0 0 31.86 31.86 31.86 31.86 0 0 0 31.86-31.86v-7.55Z" style="fill:#ffdeb7"/></g><rect id="left-hand-upper" x="536.6" y="412.62" width="138.17" height="54.31" rx="27.16" transform="rotate(21.99 605.714 439.808)" style="fill:#ffa25a"/><rect id="right-hand-upper" x="312.97" y="424.71" width="143.91" height="54.31" rx="27.16" transform="rotate(-26.04 384.886 451.825)" style="fill:#ffa25a"/><g id="body"><path d="M573.48 644.07C558.39 655.72 473.17 650.58 439 651c-22.67-2.35-27.84-12.46-27.84-27.84V390.84H573c-3.63 14.84 28.6 234.03.48 253.23Z" style="fill:#ffa25a"/><rect x="461.67" y="425.25" width="88.99" height="195.46" rx="27.48" style="fill:#ffdeb7"/></g><g id="clock"><rect id="clock-base" x="323.66" y="484.09" width="365.82" height="110.73" rx="30.44" transform="rotate(-2.44 506.677 539.527)" style="opacity:.7000000000000001"/><text id="clock-text" transform="rotate(-3 11097.2 -6211.44)" style="font-size:71.15160369873047px;fill:#42c17f;font-family:Rubik-Bold,Rubik;font-weight:700">00:00<tspan x="215.66" y="0" style="letter-spacing:-.02499339747885022em"> </tspan><tspan x="228.82" y="0">AM</tspan></text></g><g id="head"><path d="M364.74 208.87s40.26-77.42 148.13-77.42 138.84 77.42 138.84 77.42S686 230 687.58 245.52c0 0 1.81 7.74-10.06 15.48 0 0 25 12.9 26.58 23.74 0 0 6.84 41.81-35.36 94.45s-132.12 61.16-132.12 61.16-203.1 24-226.72-156c0 0 .78-12 28.26-24.38 0 0-9.68-5-11.61-15.49 0 0 1.68-14.32 38.19-35.61Z" style="fill:#ffa25a"/><ellipse cx="464.01" cy="332.87" rx="29.87" ry="29.29" style="fill:#ffdeb7"/><ellipse cx="466.84" cy="336.61" rx="24.9" ry="24.26"/><ellipse cx="603.05" cy="333.87" rx="27.24" ry="29.29" style="fill:#ffdeb7"/><ellipse cx="601.58" cy="336.61" rx="21.74" ry="24.26"/><ellipse cx="482.84" cy="277.1" rx="20.29" ry="32.55" transform="rotate(-46.53 482.795 277.09)" style="fill:#e5813d"/><ellipse cx="587.61" cy="277.1" rx="32.55" ry="20.29" transform="rotate(-43.47 587.669 277.1)" style="fill:#e5813d"/><path d="M512.61 336.61s25.55-21.67 46.71 0 21.42 26.55 21.42 26.55 18.84 47.78-44.9 50.1c0 0-41.72 2.1-48.86-27.47a35.74 35.74 0 0 1 5.71-28.67c3.89-5.58 10.11-12.72 19.92-20.51Z" style="fill:#ffdeb6"/><path d="M522.81 355.07a5.27 5.27 0 0 1 1.05-6.26c2.25-2.1 7.8-3.64 16-3.38 15 .47 16.57 1.89 17.54 5.86 1.39 5.7-6.77 14.55-16.64 16.1.05 0-11.21.85-17.95-12.32Z"/></g><g id="right-ear"><path d="M449.8 108a11.82 11.82 0 0 0-8.68.71c-8.69 4.25-29 18.75-45.09 65.31-21.09 61 94.84-14.71 94.84-14.71S475.1 115.66 449.8 108Z" style="fill:#ffa25a"/><path d="M440.78 121.56C434 125.8 417.36 140 416 177.71a1.1 1.1 0 0 0 1.7 1c6.84-4.45 32-20.1 48-20.34a1.3 1.3 0 0 0 1.25-1.57c-1.27-6.18-6.72-28.56-20.26-35.48a6 6 0 0 0-5.91.24Z" style="fill:#ffdeb7"/></g><g id="left-ear"><path d="M581.59 108a12 12 0 0 1 8.77.72c8.72 4.29 29 18.82 45 65.29 21.1 61-94.84-14.71-94.84-14.71s15.79-43.58 41.07-51.3Z" style="fill:#ffa25a"/><path d="M590.66 121.56c6.79 4.24 23.41 18.42 24.75 56.15a1.11 1.11 0 0 1-1.71 1c-6.83-4.45-32-20.1-48-20.34a1.31 1.31 0 0 1-1.26-1.57c1.27-6.18 6.73-28.56 20.26-35.48a6 6 0 0 1 5.96.24Z" style="fill:#ffdeb7"/></g><g id="left-hand-lower"><rect x="606.63" y="461.91" width="143.91" height="54.31" rx="27.16" transform="rotate(-135 678.587 489.065)" style="fill:#ffa25a"/><path d="M729.47 540a27.17 27.17 0 0 0 0-38.41L715.94 488c-6.76.72-17.43 3.23-24.92 11.56-7.82 8.69-11.32 20.57-12.79 27.54l12.83 12.9a27.17 27.17 0 0 0 38.41 0Z" style="fill:#ffdeb7"/></g><g id="right-hand-lower"><rect x="249.13" y="484.75" width="143.91" height="54.31" rx="27.16" transform="rotate(-60.09 321.071 511.891)" style="fill:#ffa25a"/><path d="M285.21 574.27a27.15 27.15 0 0 0 37.07-10l9.54-16.58c-2.46-6.35-7.66-16-17.64-21.06-10.44-5.29-22.81-5.57-29.92-5.17l-9.05 15.72a27.16 27.16 0 0 0 10 37.08Z" style="fill:#ffdeb7"/></g></svg>