<svg id="fluffubsheepub" xmlns="http://www.w3.org/2000/svg" viewBox="0 0 1000 1000">
  <g id="right-leg">
    <rect x="414.91" y="659.68" width="63.33" height="148.71" rx="31.67" style="fill: #fff"/>
    <path d="M414.91,766v10.69a31.67,31.67,0,0,0,31.67,31.67h0a31.66,31.66,0,0,0,31.66-31.67V766Z" style="fill: #596977"/>
  </g>
  <g id="left-leg">
    <rect x="519.53" y="659.68" width="63.33" height="148.71" rx="31.67" style="fill: #fff"/>
    <path d="M519.53,766v10.69A31.67,31.67,0,0,0,551.2,808.4h0a31.66,31.66,0,0,0,31.66-31.67V766Z" style="fill: #596977"/>
  </g>
  <rect id="left-hand-upper" x="536.71" y="477.71" width="137.33" height="53.98" rx="26.99" transform="translate(233.04 -189.97) rotate(21.99)" style="fill: #fff"/>
  <rect id="right-hand-upper" x="314.45" y="483.72" width="143.04" height="53.98" rx="26.99" transform="translate(-185.01 221.25) rotate(-26.04)" style="fill: #fff"/>
  <g id="body">
    <path id="body_base" data-name="body base" d="M581.26,697.36c-9.09,25.92-141.48,17.24-141.48,17.24a27.67,27.67,0,0,1-27.67-27.67V456.06H573S594.09,630.29,581.26,697.36Z" style="fill: #fff"/>
    <rect id="body_pattern" data-name="body pattern" x="462.34" y="490.26" width="88.45" height="194.27" rx="27.31" style="fill: #dfdbd8"/>
  </g>
  <g id="clock">
    <rect id="clock-base" x="321.38" y="540.97" width="365.82" height="110.73" rx="30.44" transform="translate(-24.94 22.02) rotate(-2.44)" style="opacity: 0.7000000000000001"/>
    <text id="clock-text" transform="translate(338.01 629.15) rotate(-3)" style="font-size: 71.15160369873047px;fill: #ffa4f0;font-family: Rubik-Bold, Rubik;font-weight: 700">00:00<tspan x="215.66" y="0" style="letter-spacing: -0.02499339747885022em"> </tspan><tspan x="228.82" y="0">AM</tspan></text>
  </g>
  <g id="right-ear">
    <path d="M308.66,298.11s-8.53,5.2-21.8,5.77-33.49-2.14-33.49-2.14-19.25-2.06-10.26,23.66,34.59,32,34.59,32,21.49,8.24,37.85-3.19Z" style="fill: #362e2d"/>
    <path d="M312.64,330.54l-4-32.43s-8.53,5.2-21.8,5.77-33.49-2.14-33.49-2.14-19.25-2.06-10.26,23.66a48.64,48.64,0,0,0,6.56,12.54c11.2,2.06,25.12,3.53,33.25,4.54,12.68,1.58,28.51-5.49,28.51-5.49Z" style="fill: #524740"/>
  </g>
  <g id="left-ear">
    <path d="M680.16,278.34s8.84,4.62,22.12,4.31,33.29-4.35,33.29-4.35,19.06-3.33,11.79,22.93S715,335.43,715,335.43s-20.9,9.64-38-.68Z" style="fill: #362e2d"/>
    <path d="M678.32,311l1.84-32.62s8.84,4.62,22.12,4.31,33.29-4.35,33.29-4.35,19.06-3.33,11.79,22.93a48.58,48.58,0,0,1-5.71,12.95c-11,2.79-24.83,5.18-32.88,6.73-12.55,2.41-28.81-3.6-28.81-3.6Z" style="fill: #524740"/>
  </g>
  <g id="head">
    <path d="M701.3,312.45c.76-17.79-3.62-33.81-11-44.19a3.09,3.09,0,0,1-.48-2.6c3.31-12.73,1.74-30-5.33-47.35-9.33-22.87-25.49-39-40.13-41.92a3,3,0,0,1-2.3-2.12c-3.86-13.46-17-29-36-40.51-20.37-12.4-41.8-16.77-55.52-12.61l-3.52-.71c-10.45-8.75-28.44-14.86-49.06-15.51-23.54-.74-44.11,5.82-54.15,16a3.07,3.07,0,0,1-1.34.8h0a3,3,0,0,1-1.56,0c-14.8-3.67-37,1.6-57.82,15.09-20.12,13-33.75,30.34-37.11,45l-2.77,3.27c-12.84,5.17-26.25,19.08-35,38-9.66,20.92-10.95,42.21-4.64,55.23a2.92,2.92,0,0,1-.21,2.94c-7.87,11.73-10.57,31.73-5.88,53,4.27,19.37,13.64,35.2,24.4,43.41a3.05,3.05,0,0,1,1.19,2.38c.13,13.61,7.41,30.74,20.68,45.78,15.41,17.46,34.6,27.24,49.12,26.49a3,3,0,0,1,2.54,1.26c7.8,10.56,21.77,20.52,39.17,26.74,23.75,8.5,47,7.56,59.22-1.09a3,3,0,0,1,1.84-.58l1.79,0a3.13,3.13,0,0,1,1.13.24c14.05,6,36.91,5.77,60.82-1.76,21.56-6.79,39-18,48.16-29.6a3.14,3.14,0,0,1,.71-.65l1.63-1.07a3.14,3.14,0,0,1,1.29-.47c14-1.75,31-11.89,45-28.16C671,400,678.55,380.32,677.15,366a2.89,2.89,0,0,1,.21-1.45l.28-.69a3.1,3.1,0,0,1,1.21-1.42C691.11,354.65,700.33,335.37,701.3,312.45Z" style="fill: #fff"/>
    <path d="M647.49,320.72a18.81,18.81,0,0,1-12.44.45c-9-2.92-14.41-12.71-14.55-24.33a32.76,32.76,0,0,1-57.17-14.27c-4.94,14.07-22.7,24.9-44.23,25.65-21.05.74-39.19-8.39-45.51-21.59-1.52,10.15-7.68,20.18-17.65,26.95-17,11.52-38.65,9.33-49.13-4.72-.23,1.27-.51,2.54-.86,3.82-4.47,16.36-17.44,27.19-29.52,25.06-.26,1.21-.51,2.42-.75,3.68-11.52,61.75,65.5,115.91,144.26,111.09,77.43-4.73,136.47-48.45,128.23-126.56C648,324.15,647.75,322.41,647.49,320.72Z" style="fill: #534741"/>
    <circle cx="468.91" cy="375.57" r="21.97" style="fill: #dce0e5"/>
    <ellipse cx="608.01" cy="368.62" rx="22.71" ry="20.56" transform="translate(184.25 939.57) rotate(-84.64)" style="fill: #dce0e5"/>
    <path d="M577.85,383.3a3.51,3.51,0,0,0-4.93-.48l-12,9.88-18.46-7.85a3.5,3.5,0,0,0-2.74,6.44l18.23,7.76-.47,21.52a3.49,3.49,0,0,0,3.17,3.56l.25,0a3.51,3.51,0,0,0,3.58-3.43l.48-22.28,12.42-10.21A3.5,3.5,0,0,0,577.85,383.3Z" style="fill: #dce0e5"/>
  </g>
  <g id="right-hand-lower">
    <rect x="607.45" y="526.94" width="143.04" height="53.98" rx="26.99" transform="translate(767.38 1425.72) rotate(-135)" style="fill: #fff"/>
    <path d="M729.54,604.5a27,27,0,0,0,0-38.17L727.22,564l-40.3,36,4.45,4.45a27,27,0,0,0,38.17,0Z" style="fill: #596977"/>
  </g>
  <g id="left-hand-lower">
    <rect x="257.48" y="546.4" width="143.04" height="53.98" rx="26.99" transform="translate(-321.53 690.95) rotate(-70.4)" style="fill: #fff"/>
    <path d="M305,640.76a27,27,0,0,0,34.48-16.37l1.1-3.09-49.84-20.95-2.11,5.93A27,27,0,0,0,305,640.76Z" style="fill: #596977"/>
  </g>
  <g id="hat">
    <path d="M399.73,66.56s-23.1,1.72-27.52,3.25l3.21,7.3s23.06-1.34,30.27-3.58l-1.88,6.24-12.51.77S351.12,75,333.16,92.46L338.77,99s14.16-10.08,25.39-8.25c0,0-28.57,9-32.19,39.23,0,0-5,.31-4.15-16.46l-8.56,0s-2.69,20.48,13.23,33.12c0,0,2.23,12.13,5.31,15.27,0,0-11.48-10.28-13.5-20.58,0,0-4.83.33-8,3.28,0,0,15,31.33,31.57,35.22,0,0,11.28,9.62,21,14.81A66.68,66.68,0,0,1,342,190.23l-5.59,4.4s17.33,14.19,48.4,7.64c0,0,5.31,1.41,12.46,2.6,0,0-15.28,8.16-37.48,4.39l-1.13,6.5s32.94,5.29,52.23-6.89a217.32,217.32,0,0,0,23.87,2.49s28.49,19.52,55.92,11.73l.09-7.9a90.55,90.55,0,0,1-33.19-2.59s72.9.74,96.75-6.23c0,0-22.76,7.72-32,6.85l1.81,8.34s29.19-3.1,45.93-12.94c0,0,27.26,9.17,49-4.09l-5.54-7.25s-8.17,8.3-31.37,5.61V200s36.28,0,55.6-12.54l-4-8.42s-3.33,6.43-21.12,8.26c0,0,26.46-14.1,29.23-24.34,0,0,4.24,6,3.85,10.08l7.58.71s.89-12.23-5.66-18.42L651,146.1s6.4,7.72,5.47,10.75l9-.46s-3.17-13.12-11.81-19.12c0,0,15.48-38.66-29.37-60S553.81,55,553.81,55Z" style="fill: #d19c62"/>
    <path d="M639.69,92.6A7.6,7.6,0,0,0,638.3,86a72.07,72.07,0,0,0-14.07-8.65c-5.38-2.56-10.48-4.81-15.3-6.82a36.8,36.8,0,0,1,25.59,3.19l2.76-5.32A43.25,43.25,0,0,0,600.17,67q-2.85-1.08-5.54-2c2.41-2.08,6.42-5.81,8.36-9.14l-6-3.53c-1.78,3-7,7.64-10.14,10-21.34-6.85-33-7.34-33-7.34L399.73,66.56s-23.1,1.72-27.52,3.25l3.21,7.3s23.06-1.34,30.27-3.58l-1.88,6.24-6.82.42a98.75,98.75,0,0,0-27.33-.29c-2.07.12-4.49.79-6.66,1a103.2,103.2,0,0,0-27.85,9.5l3.19,6.24a94.91,94.91,0,0,1,19.72-7.44c2.38-.42,3.82,1.08,6.1,1.45a51.46,51.46,0,0,0-15.33,8.76c-1.26,2.94-1.17,7.36,2.78,13.89a20.68,20.68,0,0,0,6.62,6.32c1.22,4.23,4.63,10.9,14,17.67l3.51-4.87a38,38,0,0,1-8.69-8.32c11.45,4.66,26.12,7.43,35.55,8.86,4.91,6.47,14.76,16.18,30.53,17.66l.86.07.44-6a36,36,0,0,1-22.73-10.55l.39,0s77.85,14.92,152.42-3.88a83.39,83.39,0,0,0-4.86,7.51l5.23,2.94a77.53,77.53,0,0,1,9.68-13.2c19.52-5.78,38.57-14,55.65-25.7a26.67,26.67,0,0,0,2.93-1.69,41.91,41.91,0,0,1-3.51,7.87l5.25,2.92C640,101.79,640.5,96.05,639.69,92.6Z" style="fill: #c68e52"/>
    <path d="M433.33,50S444.56,2.07,470,5s50.34,46.45,50.34,46.45L495.36,98.85Z" style="fill: #f4f3bd"/>
    <path d="M577.46,82.64l1.75,31.07s21.16,8.59,22.21,12l5.46-6.49s-6.59-4.31-10.24-2.71c0,0,20.51-1,28.86-17.51l-5.39-4.78s-5.43,8.24-13.94,9.77c0,0,.46-6.95-11.93-13.75,0,0,3.91-4.38,11.54-2.75l0-8.8s-23.07,5.61-24.29,8.22S577.46,82.64,577.46,82.64Z" style="fill: #ad7e4d"/>
    <g>
      <path d="M559.85,21.69c-35-.16-63.59,45.11-63.59,45.11l-29.1,56.1,17.63,17.15c26.59-.35,56-4.24,83.22-10.48,4.22-1.53,19.76-11.39,18.12-56.42C584.24,21.39,559.85,21.69,559.85,21.69Z" style="fill: #e6bef4"/>
      <ellipse cx="514.56" cy="72.7" rx="12.65" ry="7.88" transform="translate(205.21 490.26) rotate(-61.51)" style="fill: #d6b2e7"/>
      <ellipse cx="536.64" cy="67.45" rx="8.39" ry="5.3" transform="translate(221.37 506.93) rotate(-61.51)" style="fill: #d6b2e7"/>
      <ellipse cx="537.72" cy="46.91" rx="6.83" ry="4.67" transform="translate(170.16 442.19) rotate(-52.07)" style="fill: #d6b2e7"/>
    </g>
    <g>
      <path d="M498.39,139.58c13.18-23,.18-49,.18-49s-9.82-23.86-49.94-39.67c-25.37-10-39.68-7-46.77-3.43a15,15,0,0,0-7.43,8.73C383.87,88,399.7,118.55,410,133.85,429.81,136,462,141.12,498.39,139.58Z" style="fill: #c0e8f7"/>
      <ellipse cx="458.34" cy="73.17" rx="4.13" ry="5.94" transform="translate(90.26 355.91) rotate(-46.6)" style="fill: #add8ff"/>
      <ellipse cx="485.22" cy="96.89" rx="7.79" ry="13.5" transform="translate(29.2 288.92) rotate(-34.13)" style="fill: #add8ff"/>
      <ellipse cx="484.64" cy="123.82" rx="4.99" ry="8.58" transform="translate(13.99 293.23) rotate(-34.13)" style="fill: #add8ff"/>
    </g>
    <g>
      <path d="M388.29,180.77c-36.89-13.09-47.48-59.16-47.92-61.12l5.86-1.3c.1.45,10.34,44.8,44.07,56.76Z" style="fill: #c68e52"/>
      <path d="M412.11,178.35c-32.21-18.41-66.86-8.86-67.21-8.76l-1.65-5.77c1.51-.43,37.37-10.38,71.84,9.32Z" style="fill: #c68e52"/>
      <path d="M417.27,172.35C391.53,150.83,368.39,154,368.16,154l-.91-5.93c1.05-.16,25.93-3.69,53.87,19.68Z" style="fill: #c68e52"/>
      <path d="M383.84,189.56c-3.19-.3-5.17-.64-5.54-.7l1.05-5.91c.44.08,44.75,7.5,76.38-19.1l3.86,4.59C432.26,191.42,397.28,190.82,383.84,189.56Z" style="fill: #c68e52"/>
      <path d="M486.91,161.2l-2.24-5.57c1.9-.76,46.89-18.56,83.92-6.79l-1.82,5.72C531.81,143.45,487.36,161,486.91,161.2Z" style="fill: #c68e52"/>
      <path d="M508.2,158.75l.83,5.94,1.82-.21c-34.86,32.45-103.57,29.21-104.3,29.18l-.32,6c3.21.17,78.56,3.72,113.54-35.73,1.42,0,3-.06,4.56-.06C497.68,203.8,451.22,204,450.74,204l0,3,0,3c.55,0,13.63,0,30.26-5.78a95.24,95.24,0,0,0,50.35-40.16c10.06.6,21.76,2.57,31.15,7.77l2.9-5.25C542.74,154.1,509.6,158.55,508.2,158.75Z" style="fill: #c68e52"/>
      <path d="M623.11,163.38c-.26.23-24.15,20.69-52.49,20.17,16.29-9.47,35.14-24.14,41.94-43.84l-5.68-2c-11.65,33.79-64.76,52.71-65.29,52.9l2,5.66a159.7,159.7,0,0,0,17.59-7.65c1.61.28,3.21.51,4.8.66,32.63,3.06,59.9-20.37,61.11-21.42Z" style="fill: #c68e52"/>
      <path d="M617.81,157.49l-1.26-5.86.63,2.93-.64-2.93c.3-.06,29.49-6.71,42.33-34.56l5.45,2.51C650.19,150.22,619.13,157.21,617.81,157.49Z" style="fill: #c68e52"/>
      <path d="M631.2,143l-3.65-4.76,1.83,2.38-1.83-2.37c.25-.2,24.77-19.38,24.34-45.73l6-.1C658.37,121.78,632.31,142.1,631.2,143Z" style="fill: #c68e52"/>
      <path d="M454.16,150C441,144.74,428.54,126.38,428,125.6l6.64-4.46c.12.17,11.58,17.08,22.45,21.4Z" style="fill: #d19c62"/>
      <path d="M509.75,144.82l-7.95-.95c.09-.69,2.29-16.86,25.43-26.35l3,7.41C511.72,132.53,509.76,144.7,509.75,144.82Z" style="fill: #d19c62"/>
      <path d="M526.82,144l-7.6-2.49c.23-.7,5.83-17.18,40-22.85l1.31,7.89C531.74,131.32,526.87,143.87,526.82,144Z" style="fill: #d19c62"/>
      <path d="M565.1,140.2l-5.94-3.7c10.47-16.8,27.67-25.59,28.4-26l3.15,6.25-1.58-3.12,1.58,3.12C590.55,116.87,574.5,125.11,565.1,140.2Z" style="fill: #c68e52"/>
    </g>
  </g>
  <g id="pizza_toast" data-name="pizza toast">
    <g>
      <path d="M812.38,607.9a19.82,19.82,0,0,0,8-22,369.67,369.67,0,0,0-30.51-75.72,19.86,19.86,0,0,0-25-9.2h0c-6.3,2.58-7.06,7.91-5.31,14-28.28,8.76-53.88,19.17-75.27,32.16a641.63,641.63,0,0,0,35.2,86c23.71-4.57,49.47-15.53,76.28-29.73,3,5.5,7.29,8.7,13.55,6.14h0A18.42,18.42,0,0,0,812.38,607.9Z" style="fill: #e6bb85"/>
      <path d="M801.55,546.49a389.25,389.25,0,0,1,14,40.75,14.9,14.9,0,0,1-5.92,16.47,12.72,12.72,0,0,1-2.27,1.2c-2,.83-3.07.52-3.76.15a9.82,9.82,0,0,1-3.5-4.07l-2.37-4.31-4.36,2.3c-27.83,14.74-51.17,24.08-71.16,28.47-6-12.28-11.76-25-17.05-38s-10.31-26.44-14.91-40.13c19-11.07,42.2-20.78,70.73-29.63l4.67-1.44-1.34-4.71a10,10,0,0,1-.4-5.43c.24-.76.77-1.73,2.8-2.56a14.86,14.86,0,0,1,7.11-1,15.07,15.07,0,0,1,11.63,7.95,345.49,345.49,0,0,1,16.08,33.94m4.63-1.9a349.8,349.8,0,0,0-16.31-34.43,19.86,19.86,0,0,0-25-9.2h0c-6.3,2.58-7.06,7.91-5.31,14-28.28,8.76-53.88,19.17-75.27,32.16q7.41,22.49,16.3,44.26,8.69,21.25,18.9,41.75c23.71-4.57,49.47-15.53,76.28-29.73,3,5.5,7.29,8.7,13.55,6.14h0a18.42,18.42,0,0,0,3.1-1.64,19.82,19.82,0,0,0,8-22,392.56,392.56,0,0,0-14.2-41.29Z" style="fill: #daa26e"/>
    </g>
    <path d="M794.12,543.67q-2.08-4.89-3.7-10c-2.28-7.26-7.47-20.39-12-19.62-3.48.59-10,2.23-10.18,7.42s-8.79,9.18-15.22,10-25.87,7.8-28.49,9.34-19,5.72-23.55,12.89c-3,4.7,0,11.87,5.11,24.41s15.91,25.8,17.08,32.07,3.7,8.48,6.45,7.82,17.49-1.58,22.06-4.62,20.32-10,22.05-9.84c6,.44,11.5-10.4,21.68-12.24,0,0,1.4-.93,5.08,2.28s9.53-4.07,9.33-9.11C809.62,580.64,799.13,555.5,794.12,543.67Z" style="fill: #c95c5c"/>
    <path d="M781.08,528.44c-3.93.46-3.53-1.69-8.26-.45-2.2.58-4.14,3.75-7,4.51-2.39.64-5.84-1.89-8.53-1.15-2.47.67-3.61,6.57-6.22,7.3s-5,1.6-7.57,2.33-6.63-3.8-9.14-3.06-3.53,7-6,7.7c-2.67.82-5.87-.58-8.22.19-2.83.92-5.17,2.25-7.3,3.05-4.23,1.59-8.54,1.82-8.57,2.59s1.24,4,2.6,8.06c.75,2.21.35,5.28,1.37,8.07.88,2.37,5.63,3.47,6.63,6.08.94,2.45-.55,5.93.45,8.44s5.18,3.71,6.19,6.14-1.52,6.61-.5,8.92c1.19,2.73,1.06,5.88,2.06,8a10.43,10.43,0,0,0,6.82,5.24,13.18,13.18,0,0,0,8.05,0c2.17-.68,4.87-1.18,7.66-2.14,2.33-.8,3.27-6.13,5.89-7.07,2.4-.86,6.55,2.78,9.09,1.84s4.32-3.48,6.8-4.42,5.86.37,8.28-.58,4.89-2.31,7.25-3.27c2.59-1,3.3-6.28,5.57-7.25,2.73-1.16,6.66,1.1,8.72.13,4.25-2,3.45-4,3.25-4.62s0-4-1.54-8.22c-.85-2.29-.7-5.38-1.79-8.25-.94-2.47-3.08-4.67-4.11-7.35s1.27-6.49.25-9.07-5.3-4-6.3-6.47c-1.17-2.84-.75-6.09-1.73-8.32C783.39,531.08,781.71,528.78,781.08,528.44Z" style="fill: #f9f1dd"/>
    <path d="M787.66,590.76a13.08,13.08,0,0,1-7,.46c-2.4-.33-5-.43-6.93-1.91a14.6,14.6,0,0,1-4.35-5.92,14.37,14.37,0,0,1-.91-7.25,14.1,14.1,0,0,1,3.22-6.43,13.31,13.31,0,0,1,5.68-4.1c2.33-1,4.63-1.69,7-1.37a12.51,12.51,0,0,1,10.92,8.56c1,2.33,1.75,4.85,1.43,7.17a14.85,14.85,0,0,1-2.95,6.79A14.32,14.32,0,0,1,787.66,590.76Z" style="fill: #f09266"/>
    <path d="M753.63,556.3a9.1,9.1,0,0,1-4.84.34c-1.66-.22-3.44-.36-4.76-1.38a10,10,0,0,1-3.64-9.07,9.63,9.63,0,0,1,2.2-4.45,9.12,9.12,0,0,1,3.92-2.85,9.44,9.44,0,0,1,4.82-.92,10.5,10.5,0,0,1,8.49,10.86,10.13,10.13,0,0,1-2,4.68A10,10,0,0,1,753.63,556.3Z" style="fill: #f09266"/>
    <path d="M745.11,607.4c-1.51.62-3,.37-4.58.36s-3.36.75-4.81.14a13.11,13.11,0,0,1-4-2.84,12.72,12.72,0,0,1-2.66-4c-.62-1.51-.34-3.2-.33-4.74a11.33,11.33,0,0,1,1.12-4.43c.6-1.45,1-3.05,2.11-4.17a9.53,9.53,0,0,1,8.63-3.41c1.59,0,3.4-.25,4.85.36a12.94,12.94,0,0,1,4,2.85c1.09,1.09,1.6,2.77,2.22,4.29a11.8,11.8,0,0,1,.82,4.61c0,1.59-.89,2.88-1.5,4.33s-.45,3.45-1.58,4.57S746.63,606.78,745.11,607.4Z" style="fill: #f09266"/>
    <g>
      <path d="M763.22,541.35s13.2-7.34,11.55,6.6a.94.94,0,0,0,1.31,1c2.84-1.42,8.26-2.88,6.15,8.15l2.41,1.31s3.66-5.4-.58-12.45c-2.82-4.68-7.14-.06-7.14-.06s.89-6.4-3.78-8.72-10.75.17-12.53,2.69Z" style="fill: #46481f"/>
      <path d="M782.82,557.42h0c2.33-5.89-.93-9.49-.93-9.49-1.73-2.26-6.41,0-6.41,0a8.79,8.79,0,0,0-1.89-8.56c-4.07-3-9.08,0-11.14,1.53l.77.44s13.2-7.34,11.55,6.6a.94.94,0,0,0,1.31,1c2.84-1.42,8.26-2.88,6.15,8.15Z" style="fill: #d7e9b6"/>
    </g>
    <g>
      <path d="M762,582.82s7.76,8.06-3.07,9.83a.74.74,0,0,0-.54,1.16c1.55,1.77,3.55,5.41-5.15,6.23l-.58,2s4.69,1.52,9.32-3.08c3.08-3-1.14-5.22-1.14-5.22s5-.71,6-4.61-1.92-7.81-4.13-8.56Z" style="fill: #46481f"/>
      <path d="M753.09,600.54h0a7.7,7.7,0,0,0,7-2.71c1.42-1.74-1.08-4.67-1.08-4.67a7.39,7.39,0,0,0,6.17-3.2c1.58-3.61-1.52-6.62-3-7.8l-.2.66s7.76,8.06-3.07,9.83a.74.74,0,0,0-.54,1.16c1.55,1.77,3.55,5.41-5.15,6.23Z" style="fill: #d7e9b6"/>
    </g>
    <g>
      <path d="M733.77,562.29s-9.33,9.3-11.61-3.37a.86.86,0,0,0-1.37-.6c-2,1.86-6.3,4.3-7.42-5.89l-2.4-.64s-1.69,5.55,3.79,10.87c3.65,3.54,6.12-1.47,6.12-1.47s.93,5.84,5.52,6.9,9.14-2.45,10-5.05Z" style="fill: #46481f"/>
      <path d="M712.78,552.27h0c-.42,5.71,3.32,8.19,3.32,8.19,2.07,1.63,5.47-1.38,5.47-1.38a8.63,8.63,0,0,0,3.87,7.16c4.26,1.77,7.75-1.94,9.11-3.73l-.78-.22s-9.33,9.3-11.61-3.37a.86.86,0,0,0-1.37-.6c-2,1.86-6.3,4.3-7.42-5.89Z" style="fill: #d7e9b6"/>
    </g>
    <g>
      <path d="M750.27,581.13s-9.22-7.55,1.72-10.56a.76.76,0,0,0,.39-1.27c-1.86-1.68-4.48-5.25,4.4-7l.3-2.18s-5.08-1.07-9.19,4.21c-2.73,3.51,2,5.31,2,5.31s-5.06,1.29-5.5,5.45,3.15,7.92,5.54,8.46Z" style="fill: #46481f"/>
      <path d="M756.85,561.72h0c-5.08.07-6.87,3.58-6.87,3.58-1.21,2,1.81,4.75,1.81,4.75a7.35,7.35,0,0,0-5.91,4c-1.1,3.92,2.55,6.72,4.28,7.79l.11-.71s-9.22-7.55,1.72-10.56a.76.76,0,0,0,.39-1.27c-1.86-1.68-4.48-5.25,4.4-7Z" style="fill: #d7e9b6"/>
    </g>
  </g>
</svg>
