<svg id="fox" xmlns="http://www.w3.org/2000/svg" viewBox="0 0 1000 1000"><rect id="right-leg" x="406.87" y="569.64" width="70.68" height="165.96" rx="35.34" style="fill:#de6036"/><rect id="left-leg" x="523.62" y="569.64" width="70.68" height="165.96" rx="35.34" style="fill:#de6036"/><rect id="left-hand-upper" x="546.53" y="353.5" width="153.25" height="60.24" rx="30.12" transform="rotate(6.08 622.913 383.471)" style="fill:#de6036"/><rect id="right-hand-upper" x="294.75" y="379.97" width="159.62" height="60.24" rx="30.12" transform="rotate(-26.04 374.52 410.066)" style="fill:#de6036"/><g id="tail"><path d="M505.38 566.13c-40.75 13.68-7.24 174.63-44.57 246.51-48.31 83.77-51.19 194.58 111.19 177.71 0 0-38.27-59.7-37.7-105.78a43.12 43.12 0 0 0 28.33 25.37s-27.13-61.49-35.07-102.32c0 0-9.64-76.7-6.84-136.14-.05 0 11.53-104.48-15.34-105.35Z" style="fill:#de5f35"/><path d="m445.34 843.93 22.5-17.63-4.45 41 24.67-29.65s17.94 27.46 22.84 27.62c0 0 4.85-25.81 7.63-28.85 0 0 16.94 15.7 22.68 18.12 0 0 24.14 56.92 23.65 58.24 0 0-24.42-5.39-29.62-24.81 0 0-1.92 19.87 39.62 104.65 0 0-140.91 25.94-146.2-88.8 0 0-1.9-37.54 16.68-59.89Z" style="fill:#fff7e4"/></g><g id="body"><path d="M592.51 611.69c-10.14 28.93-157.89 19.24-157.89 19.24a30.88 30.88 0 0 1-30.88-30.88V342.4h179.52s23.56 194.44 9.25 269.29Z" style="fill:#de5e34"/><rect x="459.8" y="380.57" width="98.71" height="216.8" rx="30.48" style="fill:#fff7e4"/></g><g id="head"><path d="M236.83 12S359.4 29.91 485.54 129.67c0 0 88.57-34 76.94-124.81 0 0 8 .9 19.68 25.05V12s55.92 68.89 59.05 223.66c0 0 4.92 5.82 7.61 34.45 0 0 30.86 7.6 40.7 19.68a49 49 0 0 1-18.64 11.63s3.88 3.28 22.22 4c0 0-64.41 68-184.3 69.34 0 0-139.56 5.37-236.19-78.73a53 53 0 0 0 25.73-3.35s-16.11-2.91-24.38-8.5c0 0 12.07-16.55 41.6-25.05 0 0 .67-17.9 4.47-30.2 0 0-28.63-119.88-83.2-195.93 0 0 10.66-.37 25 5.67.05.04-6.83-10.99-25-26.67Z" style="fill:#de5f35"/><path d="M594.24 330s20.58-41.75 68.44-24.45c0 0 0 56.75-136.73 68.88 0 0-120.7 10.46-159.84-48.31 0-.03 55.02-64.59 228.13 3.88Z" style="fill:#fff7e4"/><path id="nose" d="M575.24 328.69a2.07 2.07 0 0 1-.23-2.54c1.6-2.48 6.44-7.13 20.35-7.31 0 0 14.77-.28 19.8 7.63a2.08 2.08 0 0 1 0 2.25 52 52 0 0 1-16.86 15.64 2.08 2.08 0 0 1-1.67.21c-2.55-.76-10.19-3.87-21.39-15.88Z" style="fill:#231f20"/><circle cx="447.02" cy="270.29" r="24.77" style="fill:#221f1f"/><circle cx="586.36" cy="270.29" r="24.77" style="fill:#221f1f"/><rect x="410.84" y="200.18" width="84.46" height="33.17" rx="16.59" transform="rotate(9.82 452.964 216.667)" style="fill:#fff7e4"/><rect x="544.13" y="200.92" width="84.46" height="33.17" rx="16.59" transform="rotate(-9.47 586.547 217.549)" style="fill:#fff7e4"/></g><g id="clock"><rect id="clock-base" x="321.95" y="434.58" width="365.82" height="110.73" rx="30.44" transform="rotate(-7.17 505.128 490.17)" style="opacity:.7000000000000001"/><text id="clock-text" transform="rotate(-7.17 4438.407 -2457.121)" style="font-size:71.15160369873047px;fill:#42c17f;font-family:Rubik-Bold,Rubik;font-weight:700">00:00<tspan x="215.66" y="0" style="letter-spacing:-.02499339747885022em"> </tspan><tspan x="228.82" y="0">AM</tspan></text></g><rect id="right-hand-lower" x="238.22" y="454.85" width="153.25" height="60.24" rx="30.12" transform="rotate(-74.24 314.86 484.982)" style="fill:#de6036"/><rect id="left-hand-lower" x="603.53" y="406.94" width="159.62" height="60.24" rx="30.12" transform="rotate(-106.5 683.312 437.072)" style="fill:#de6036"/></svg>