<svg id="raven-albino" xmlns="http://www.w3.org/2000/svg" viewBox="0 0 1000 1000"><path id="tail" d="M454 656.07s27.29 125.85 27 134c0 0 10.93-2.84 17.47-33.89 0 0 3.65 21 3.28 24.2 0 0 27-51.87 14.68-102l-10.83-58.49 12.32-29.93-27.23-7.65-52.09 15.4Z" style="fill:#eee5e3"/><rect x="414.05" y="595.71" width="63.72" height="149.62" rx="31.86" style="fill:#eee5e3" id="right-leg"/><rect x="518.8" y="595.71" width="63.72" height="149.62" rx="31.86" style="fill:#eee5e3" id="left-leg"/><rect id="left-hand-upper" x="536.6" y="412.62" width="138.17" height="54.31" rx="27.16" transform="rotate(21.99 605.714 439.808)" style="fill:#eee5e3"/><rect id="right-hand-upper" x="312.97" y="424.71" width="143.91" height="54.31" rx="27.16" transform="rotate(-26.04 384.886 451.825)" style="fill:#eee5e3"/><g id="body"><path d="M574.11 644.07C559 655.72 473.79 650.58 439.58 651c-22.67-2.35-27.84-12.46-27.84-27.84V390.84H573.6c-3.6 14.84 28.62 234.03.51 253.23Z" style="fill:#eee5e3"/><rect x="462.29" y="425.25" width="88.99" height="195.46" rx="27.48" style="fill:#fff"/></g><g id="clock"><rect id="clock-base" x="323.66" y="484.09" width="365.82" height="110.73" rx="30.44" transform="rotate(-2.44 506.677 539.527)" style="opacity:.7000000000000001"/><text id="clock-text" transform="rotate(-3 11097.2 -6211.44)" style="font-size:71.15160369873047px;fill:#42c17f;font-family:Rubik-Bold,Rubik;font-weight:700">00:00<tspan x="215.66" y="0" style="letter-spacing:-.02499339747885022em"> </tspan><tspan x="228.82" y="0">AM</tspan></text></g><g id="head"><path d="M670.29 295.39s-34.06-167.81-163.35-163.94c0 0-10.47-.84-26.34 1.43-60.15 3.76-152 79.86-152 79.86s18.57 2.58 33.93 0c-19.24 32.57-33.15 78.08-35.23 141.68 0 0 25.55 126.19 275.62 72 0 0 75.48-28.9 81.29-96.71.02 0 .98-16.71-13.92-34.32Z" style="fill:#eee5e3"/><circle cx="616.1" cy="312.69" r="24.52" style="fill:#fc1d5c"/><path d="M537 320.15a10 10 0 0 1 3.81-.48c14.57.77 110.5 7.26 117.47 14.23 0 0 29.1 24.13 30.56 68.57a1.05 1.05 0 0 1-.82 1.06c-4.43 1-32 3.2-204-8a1.23 1.23 0 0 1-1.17-1.2c-.07-3.53 1.13-14.53 17.14-22.87.01-.01 16.31-44.28 37.01-51.31Z" style="fill:#c7acaf"/><path d="M498.73 372.14c64.43 5.08 80.77.42 84.89-2.06a3.13 3.13 0 0 0 1.48-2.45C586.59 346.77 564 340 564 340c21 6 22.9-6.84 22.9-6.84a11.74 11.74 0 0 0-3.9-10.45c-19.55-1.64-36.68-2.75-42.19-3a10 10 0 0 0-3.81.48c-20.71 7-37 51.3-37 51.3Z" style="fill:#d6bdbf"/><circle cx="477.77" cy="319.65" r="24.52" style="fill:#fc1d5c"/><ellipse cx="480.1" cy="256.1" rx="20.65" ry="32.2" transform="rotate(-68.01 480.057 256.104)" style="fill:#d6bdbe"/><ellipse cx="608.35" cy="249.13" rx="32.2" ry="20.65" transform="rotate(-24.43 608.378 249.14)" style="fill:#d6bdbe"/></g><path id="left-hand-lower" d="M750.22 511.5c-1.19-1.21-4.16-4.12-8.45-8.21-9-8.61-24-22.48-40.86-37-4-3.47-8.17-7-12.36-10.45l-21.64-18.27a27.16 27.16 0 0 0-38.27 3.23 27.16 27.16 0 0 0 3.23 38.27l11.47 9.68-.1.08s15.15 14.75 28.88 24.23c10.5 7.25 20.16 11.42 21.59 3.54 0 0 22.63 17.36 31 7.95a2.08 2.08 0 0 0 .19-1.22c-.08-2.28-3-6.49-5.62-10.45a.55.55 0 0 1 .76-.55c3.35 1.48 16.87 6.29 24.91 4.64 2.58-.53 4.61-1.72 5.54-3.91a1.43 1.43 0 0 0-.27-1.56Z" style="fill:#eee5e3"/><path id="right-hand-lower" d="M307.37 585.37c1-1.39 3.31-4.82 6.57-9.78 6.86-10.42 17.85-27.58 29.14-46.79 2.69-4.58 5.4-9.28 8.07-14l14.13-24.54a27.15 27.15 0 0 0-10-37.08 27.16 27.16 0 0 0-37.08 10l-7.49 13-.09-.09s-11.82 17.54-18.71 32.74c-5.26 11.62-7.64 21.87.37 21.87 0 0-13.06 25.36-2.3 32a2.11 2.11 0 0 0 1.24 0c2.23-.48 5.84-4.14 9.28-7.39a.54.54 0 0 1 .67.65c-.86 3.56-3.18 17.72-.13 25.34 1 2.45 2.52 4.22 4.84 4.75a1.43 1.43 0 0 0 1.49-.68Z" style="fill:#eee5e3"/></svg>