<svg id="redpanda" xmlns="http://www.w3.org/2000/svg" viewBox="0 0 1000 1000">
  <g id="tail">
    <path d="M510.48,601.57s-30-27.58-31,58.92c0,0-35.32,222.66-29,263.68,3.71,24.26,9.49,41.45,13.58,51.46a39.93,39.93,0,0,0,21.4,21.9c10.52,4.36,24.4,4.64,36.47-13.22C545,950,546.2,881.37,546.2,881.37S538.3,683,533.44,652.9,510.48,601.57,510.48,601.57Z" style="fill: #310607"/>
    <path d="M536.66,722s-27.69,16-65.51-2.34l-.56-.27c-1.34,9.26-2.76,19.23-4.21,29.62,2.25,1.3,32.28,17.89,72.13.68.57-.24,1.12-.49,1.66-.73-.47-9-.95-17.9-1.43-26.42C537.46,722.14,536.66,722,536.66,722Z" style="fill: #b5400c"/>
    <path d="M541,780.47c-36.6,19.87-78.73-.74-78.73-.74h-.07c-1.07,8.14-2.13,16.35-3.14,24.51,46.64,21.13,83.83,2.9,83.83,2.9L543,807c-.4-8.69-.82-17.75-1.26-26.93Z" style="fill: #b5400c"/>
    <path d="M456,829.92c-1,8.85-1.93,17.5-2.75,25.77,55.45,17.29,91.68,3.17,91.68,3.17l.32-.36c-.31-7.28-.68-16-1.11-25.67C503.89,852.38,461.75,832.78,456,829.92Z" style="fill: #b5400c"/>
    <path d="M451.09,880.13c-.62,8.15-1,15.61-1.27,22.15a146.5,146.5,0,0,0,95,.63c.79-8.13,1.14-14.61,1.29-18.27C530.93,888,500.37,891.11,451.09,880.13Z" style="fill: #b5400c"/>
    <path d="M451.42,925l-.92-.31c1.3,8.37,2.84,15.89,4.47,22.55l.55.37s36.08,23.76,80,.28l1.79-1c1.62-6.23,2.94-12.52,4-18.61l-.71-.13S514.19,946.33,451.42,925Z" style="fill: #b5400c"/>
  </g>
  <rect id="right-leg" x="414.91" y="595.42" width="63.33" height="148.71" rx="31.67" style="fill: #310607"/>
  <rect id="left-leg" x="519.53" y="595.42" width="63.33" height="148.71" rx="31.67" style="fill: #310607"/>
  <rect id="left-hand-upper" x="536.71" y="413.44" width="137.33" height="53.98" rx="26.99" transform="translate(208.97 -194.65) rotate(21.99)" style="fill: #310607"/>
  <rect id="right-hand-upper" x="314.45" y="425.45" width="143.04" height="53.98" rx="26.99" transform="translate(-159.43 215.34) rotate(-26.04)" style="fill: #310607"/>
  <g id="body">
    <path id="body_base" data-name="body base" d="M581.26,633.1c-9.09,25.92-141.48,17.23-141.48,17.23a27.67,27.67,0,0,1-27.67-27.67V391.79H573S594.09,566,581.26,633.1Z" style="fill: #310607"/>
    <rect id="body_pattern" data-name="body pattern" x="462.34" y="426" width="88.45" height="194.27" rx="27.31" style="fill: #b5400c"/>
  </g>
  <g id="clock">
    <rect id="clock-base" x="323.66" y="484.09" width="365.82" height="110.73" rx="30.44" transform="translate(-22.51 22.06) rotate(-2.44)" style="opacity: 0.7000000000000001"/>
    <text id="clock-text" transform="translate(340.29 572.27) rotate(-3)" style="font-size: 71.15160369873047px;fill: #42c17f;font-family: Rubik-Bold, Rubik;font-weight: 700">00:00<tspan x="215.66" y="0" style="letter-spacing: -0.02499339747885022em"> </tspan><tspan x="228.82" y="0">AM</tspan></text>
  </g>
  <g id="left-ear">
    <path d="M567.41,157.36S598.21,85,628.3,87.63,664.8,184,664.8,184l2.73,31.41,37.16,14.47S673,245.56,673.07,249.72s10.19,11.94,10.19,11.94L641,269S583.07,231.88,567.41,157.36Z" style="fill: #f0f2f0"/>
    <path d="M587.23,184.05s20.49-42.77,42.65-58.9c0,0,12.3-8,13,35.91s-7.74,75.09-7.74,75.09Z" style="fill: #af8c68"/>
  </g>
  <g id="head">
    <path d="M460,142.4S313.83,163.52,337,304.84c0,0-20.56,22-34,31.52,0,0-5.18,8.8,34.56,34.69L321,369.34s-7.57,5.45,28,22.74l-10-1s-6.81,9.41,65,26.16,157.29,6.87,157.29,6.87,43.49-2.91,87.15-33.82l-8-2.18s31-13.35,27.41-26.17l-15.29,4.84s27.71-23.41,26.7-34.41l-14.33-12a86.85,86.85,0,0,0-13.91-21.67s20.65-66.36-60.36-137.37c0,0-18-21.31-53.75-22.27l11.61-11.9s-19.7-1.39-36.43,9.86l9.42-23.41S500.07,114.75,460,142.4Z" style="fill: #b5400c"/>
    <path d="M446.52,320.21c-41.62-24.72-78.64,66.42-78.64,66.42-5-3.27-24.4-46.5-28.83-56.48a2.13,2.13,0,0,0-2.81-1.06c-7.42,3.24-24.05,5.74-32.68,6.87l-.55.4s-5.18,8.8,34.56,34.69L321,369.34s-7.57,5.45,28,22.74l-10-1s-6.8,9.4,64.89,26.13h0C402.59,388.56,456.47,336,456.47,336,465.68,322.19,446.52,320.21,446.52,320.21Z" style="fill: #f0f2f0"/>
    <path d="M572.93,422.16l-.6.37a195.42,195.42,0,0,0,76.14-32.27l-8-2.18s31-13.35,27.41-26.17l-15.29,4.84s27.71-23.41,26.7-34.41l-.4-.34-22.78-3.73-3.8-7.21a10.06,10.06,0,0,0-6.87-5.28c-15.08-2.89,1.27,40.7,1.27,40.7C630.81,400.5,572.93,422.16,572.93,422.16Z" style="fill: #f0f2f0"/>
    <path d="M495.07,353.36C500,342,513.3,322.91,548.8,313.66a33.33,33.33,0,0,1,19.08.63c11,3.73,27.78,14.49,38.28,39.7,0,0,11.53,20.25-15.58,34.06C569.12,399,520,400.72,500.49,381.93A25.64,25.64,0,0,1,495.07,353.36Z" style="fill: #f1f1f1"/>
    <path d="M545.82,339.32l38.46-1.05a3.27,3.27,0,0,1,2.32,5.66L571.33,358.1a4.94,4.94,0,0,1-6.17.44l-20.78-14.4A2.65,2.65,0,0,1,545.82,339.32Z"/>
    <ellipse cx="470.51" cy="247.98" rx="20.45" ry="31.83" transform="translate(97.7 627.3) rotate(-73.29)" style="fill: #f0f2f0"/>
    <ellipse cx="602.35" cy="245.11" rx="31" ry="20.02" transform="translate(-46.98 209.49) rotate(-19)" style="fill: #f0f2f0"/>
    <circle cx="466.26" cy="317.77" r="24.77"/>
    <ellipse cx="608.44" cy="315.06" rx="24.34" ry="21.82" transform="translate(232.65 887.99) rotate(-84.11)"/>
  </g>
  <g id="rigth-ear">
    <path d="M425.4,150.77s7.47,86.12-90.13,134.43l-37.61,12.47,14.72-27-38.47.7,42.35-35.84S283.93,144,308.19,122.6s86,8.86,86,8.86S423.59,145.65,425.4,150.77Z" style="fill: #f0f2f0"/>
    <path d="M360.31,262.13s-50.13-102.87-37.9-115.82c0,0,5.28-19.11,93.58,35.92C416,182.23,406.13,231.05,360.31,262.13Z" style="fill: #af8c68"/>
  </g>
  <rect id="right-hand-lower" x="253.98" y="483.55" width="137.33" height="53.98" rx="26.99" transform="translate(-280.82 534.69) rotate(-60)" style="fill: #310607"/>
  <rect id="left-hand-lower" x="607.45" y="462.68" width="143.04" height="53.98" rx="26.99" transform="translate(812.82 1316.01) rotate(-135)" style="fill: #310607"/>
</svg>
