<svg id="redpanda-pastel" xmlns="http://www.w3.org/2000/svg" viewBox="0 0 1000 1000"><g id="tail"><path d="M510.48 601.57s-30-27.58-31 58.92c0 0-35.32 222.66-29 263.68 3.71 24.26 9.49 41.45 13.58 51.46a39.93 39.93 0 0 0 21.4 21.9c10.52 4.36 24.4 4.64 36.47-13.22C545 950 546.2 881.37 546.2 881.37S538.3 683 533.44 652.9s-22.96-51.33-22.96-51.33Z" style="fill:#c56fff"/><path d="M536.66 722s-27.69 16-65.51-2.34l-.56-.27c-1.34 9.26-2.76 19.23-4.21 29.62 2.25 1.3 32.28 17.89 72.13.68.57-.24 1.12-.49 1.66-.73-.47-9-.95-17.9-1.43-26.42-1.28-.4-2.08-.54-2.08-.54Zm4.34 58.47c-36.6 19.87-78.73-.74-78.73-.74h-.07c-1.07 8.14-2.13 16.35-3.14 24.51 46.64 21.13 83.83 2.9 83.83 2.9l.11-.14c-.4-8.69-.82-17.75-1.26-26.93Zm-85 49.45c-1 8.85-1.93 17.5-2.75 25.77 55.45 17.29 91.68 3.17 91.68 3.17l.32-.36c-.31-7.28-.68-16-1.11-25.67-40.25 19.55-82.39-.05-88.14-2.91Zm-4.91 50.21c-.62 8.15-1 15.61-1.27 22.15a146.5 146.5 0 0 0 95 .63c.79-8.13 1.14-14.61 1.29-18.27-15.18 3.36-45.74 6.47-95.02-4.51Zm.33 44.87-.92-.31c1.3 8.37 2.84 15.89 4.47 22.55l.55.37s36.08 23.76 80 .28l1.79-1c1.62-6.23 2.94-12.52 4-18.61l-.71-.13s-26.41 18.18-89.18-3.15Z" style="fill:#ff79ef"/></g><rect id="right-leg" x="414.91" y="595.42" width="63.33" height="148.71" rx="31.67" style="fill:#613bb2"/><rect id="left-leg" x="519.53" y="595.42" width="63.33" height="148.71" rx="31.67" style="fill:#613bb2"/><rect id="left-hand-upper" x="536.71" y="413.44" width="137.33" height="53.98" rx="26.99" transform="rotate(21.99 605.412 440.454)" style="fill:#613bb2"/><rect id="right-hand-upper" x="314.45" y="425.45" width="143.04" height="53.98" rx="26.99" transform="rotate(-26.04 385.913 452.405)" style="fill:#613bb2"/><g id="body"><path d="M581.26 633.1c-9.09 25.92-141.48 17.23-141.48 17.23a27.67 27.67 0 0 1-27.67-27.67V391.79H573S594.09 566 581.26 633.1Z" style="fill:#613bb2"/><rect x="462.34" y="426" width="88.45" height="194.27" rx="27.31" style="fill:#c56fff"/></g><g id="clock"><rect id="clock-base" x="323.66" y="484.09" width="365.82" height="110.73" rx="30.44" transform="rotate(-2.44 506.677 539.527)" style="opacity:.7000000000000001"/><text id="clock-text" transform="rotate(-3 11097.2 -6211.44)" style="font-size:71.15160369873047px;fill:#42c17f;font-family:Rubik-Bold,Rubik;font-weight:700">00:00<tspan x="215.66" y="0" style="letter-spacing:-.02499339747885022em"> </tspan><tspan x="228.82" y="0">AM</tspan></text></g><g id="left-ear"><path d="M572.72 157.79s32.21-71.7 62.28-68.53 34.61 97.07 34.61 97.07l2.12 31.46L708.56 233s-32 15-32 19.2 10 12.15 10 12.15l-42.4 6.49s-57.24-38.24-71.44-113.05Z" style="fill:#ffd6e1"/><path d="M592 184.86s21.33-42.36 43.8-58.06c0 0 12.45-7.7 12.32 36.16s-9.2 74.92-9.2 74.92Z" style="fill:#ff79ef"/></g><g id="head"><path d="M465.61 140.73s-146.55 18.27-126.13 160c0 0-21 21.6-34.61 30.85 0 0-5.36 8.7 33.88 35.36l-16.52-2s-7.67 5.3 27.56 23.28l-10-1.23s-7 9.28 64.49 27.43 157.12 9.95 157.12 9.95 43.54-2.06 87.8-32.11l-7.9-2.34s31.2-12.74 27.91-25.63l-15.38 4.55s28.16-22.87 27.37-33.88l-14.09-12.27a87 87 0 0 0-13.49-21.93s22-66-57.67-138.52c0 0-17.61-21.67-53.29-23.32l11.83-11.68s-19.67-1.77-36.61 9.15l9.87-23.23s-21.53.71-62.14 27.57Z" style="fill:#c56fff"/><path d="M448.67 318.24c-41.13-25.53-79.93 64.87-79.93 64.87-4.93-3.37-23.48-47-27.72-57a2.12 2.12 0 0 0-2.79-1.12c-7.48 3.09-24.15 5.27-32.8 6.23l-.56.39s-5.36 8.7 33.88 35.36l-16.52-2s-7.67 5.3 27.56 23.28l-10-1.23s-7 9.27 64.37 27.4c-.77-28.63 54.13-80.1 54.13-80.1 9.49-13.73-9.62-16.08-9.62-16.08Zm124.39 104.41-.61.36a195.41 195.41 0 0 0 76.76-30.78l-7.9-2.34s31.2-12.74 27.91-25.63l-15.38 4.55s28.16-22.87 27.37-33.88l-.4-.35-22.7-4.18-3.66-7.28a10 10 0 0 0-6.77-5.41c-15-3.19.48 40.72.48 40.72-16.81 43.69-75.1 64.22-75.1 64.22Z" style="fill:#ffd6e1"/><path d="M496.56 352.34c5.13-11.32 18.82-30.09 54.49-38.65a33.41 33.41 0 0 1 19.07 1c11 3.94 27.49 15 37.5 40.43 0 0 11.13 20.48-16.24 33.76-21.67 10.51-70.83 11.29-90-7.89a25.61 25.61 0 0 1-4.82-28.65Z" style="fill:#ffd6e1"/><path d="m547.57 339.29 38.48-.3a3.27 3.27 0 0 1 2.2 5.71l-15.54 13.86a4.91 4.91 0 0 1-6.17.32L546 344.09a2.65 2.65 0 0 1 1.57-4.8Z" style="fill:#8a1880"/><ellipse cx="474.06" cy="246.49" rx="20.45" ry="31.83" transform="rotate(-72 475.986 246.527)" style="fill:#ffd6e1"/><ellipse cx="605.93" cy="246.2" rx="31" ry="20.02" transform="rotate(-17.88 606.002 246.23)" style="fill:#ffd6e1"/><circle cx="468.46" cy="316.19" r="24.77"/><ellipse cx="610.65" cy="316.26" rx="24.34" ry="21.82" transform="rotate(-82.99 610.689 316.253)"/></g><g id="rigth-ear"><path d="M430.87 148.42s5.78 86.25-92.75 132.64l-37.84 11.73 15.24-26.72-38.47-.07 43-35s-30.53-92.16-5.86-113S400 128.51 400 128.51s29.16 14.76 30.87 19.91Z" style="fill:#ffd6e1"/><path d="M363.61 258.49S315.5 154.65 328 142c0 0 5.65-19 92.87 37.74-.02-.05-10.87 48.57-57.26 78.75Z" style="fill:#ff79ef"/></g><rect id="right-hand-lower" x="253.98" y="483.55" width="137.33" height="53.98" rx="26.99" transform="rotate(-60 322.645 510.542)" style="fill:#613bb2"/><rect id="left-hand-lower" x="607.45" y="462.68" width="143.04" height="53.98" rx="26.99" transform="rotate(-135 678.965 489.664)" style="fill:#613bb2"/></svg>