<svg id="scarthewerewolf" xmlns="http://www.w3.org/2000/svg" viewBox="0 0 1000 1000">
  <g id="tail">
    <path d="M475.78,674.45s6.75,83.36-17.46,120.28-12.16,84.34-12.16,84.34,11.91-9.1,15.21-20.24-7.65,22.55,13.32,59.88,14.46,46.9,14.46,46.9S515,941.85,521,913c0,0,6.71,15,14.11,23.14,0,0,9.61-15.16,10.54-45.46,0,0-.48-32.34-3.63-40.53,0,0-4.56-20.08-2.68-37.92S538,768.88,538,768.88s9.56,25.89,10.3,35.53c0,0,8.45-5.51,9.9-38.16s-34.45-77.1-34.45-77.1l2.14-79.27s-22.47-48.36-48.18-1.48Z" style="fill: #422635"/>
    <path d="M525.85,609.88s-22.47-48.36-48.18-1.48l-1.89,66.05s6.36,78.46-15.38,116.86c-.77,10.28.3,24.67,6.59,43.58,0,0,14.46-1.17,27.54-24.5-1.23,2.5-5.22,14.54,7.61,50.29,0,0,9.3-18.35,16.25-23,0,0,13.1-12,20.71-23.32.06-.69.12-1.38.19-2.07,1.88-17.85-1.33-43.39-1.33-43.39s9.56,25.89,10.3,35.53c0,0,8.45-5.51,9.9-38.16s-34.45-77.1-34.45-77.1Z" style="fill: #60354a"/>
  </g>
  <g id="right-leg">
    <rect x="413.91" y="592.94" width="63.95" height="150.16" rx="31.97" style="fill: #60354a"/>
    <path d="M445.89,743.1h0a32,32,0,0,0,32-32V691.55l-10.11-16.32L457.4,694l-10.79-18.78-10.35,18-10.8-18-11.55,20.54v15.36A32,32,0,0,0,445.89,743.1Z" style="fill: #422635"/>
    <path d="M471.26,715.23c3.91-1.49,10.17-1.31,16.38,9.49a19.6,19.6,0,0,1,2.67,8,12.75,12.75,0,0,1-1.43,7.49,2.33,2.33,0,0,1-3.71.43c-3.21-3.43-10.34-10.44-17.93-14.1a3.43,3.43,0,0,1-1.93-3.22,7.29,7.29,0,0,1,.12-1.07A9.23,9.23,0,0,1,471.26,715.23Z" style="fill: #99889a"/>
    <path d="M455.22,725.35c3.91-1.48,10.16-1.3,16.38,9.5a19.75,19.75,0,0,1,2.67,8,12.76,12.76,0,0,1-1.44,7.49,2.33,2.33,0,0,1-3.7.43c-3.22-3.43-10.34-10.44-17.93-14.1a3.42,3.42,0,0,1-1.94-3.22c0-.33.06-.69.12-1.07A9.27,9.27,0,0,1,455.22,725.35Z" style="fill: #99889a"/>
    <path d="M432.94,725.8c4-1.34,10.21-.94,16,10.07a19.63,19.63,0,0,1,2.39,8.09,12.8,12.8,0,0,1-1.7,7.44,2.33,2.33,0,0,1-3.72.29c-3.09-3.54-10-10.8-17.42-14.72a3.43,3.43,0,0,1-1.82-3.29,9.17,9.17,0,0,1,6.24-7.88Z" style="fill: #99889a"/>
  </g>
  <g id="left-leg">
    <rect x="518.9" y="592.94" width="63.95" height="150.16" rx="31.97" style="fill: #60354a"/>
    <path d="M550.87,743.1h0a32,32,0,0,0,32-32V691.55l-10.11-16.32L562.39,694l-10.8-18.78-10.35,18-10.79-18L518.9,695.77v15.36A32,32,0,0,0,550.87,743.1Z" style="fill: #422635"/>
    <path d="M576.24,715.23c3.92-1.49,10.17-1.31,16.38,9.49a19.62,19.62,0,0,1,2.68,8,12.76,12.76,0,0,1-1.44,7.49,2.32,2.32,0,0,1-3.7.43c-3.22-3.43-10.35-10.44-17.93-14.1a3.42,3.42,0,0,1-1.94-3.22,9,9,0,0,1,.12-1.07A9.25,9.25,0,0,1,576.24,715.23Z" style="fill: #99889a"/>
    <path d="M560.2,725.35c3.91-1.48,10.17-1.3,16.38,9.5a19.46,19.46,0,0,1,2.67,8,12.67,12.67,0,0,1-1.43,7.49,2.33,2.33,0,0,1-3.7.43c-3.22-3.43-10.35-10.44-17.94-14.1a3.43,3.43,0,0,1-1.93-3.22,7.15,7.15,0,0,1,.12-1.07A9.26,9.26,0,0,1,560.2,725.35Z" style="fill: #99889a"/>
    <path d="M537.93,725.8c4-1.34,10.2-.94,16,10.07a19.47,19.47,0,0,1,2.38,8.09,12.72,12.72,0,0,1-1.7,7.44,2.32,2.32,0,0,1-3.71.29c-3.1-3.54-10-10.8-17.42-14.72a3.42,3.42,0,0,1-1.82-3.29,9.13,9.13,0,0,1,.15-1.07A9.27,9.27,0,0,1,537.93,725.8Z" style="fill: #99889a"/>
  </g>
  <g id="body">
    <path d="M573.52,387.34H411.08q2.28,35.31,3.24,69.94c-2.08,12.91-4.6,28.31-4.6,28.31l5.13-3.2c0,.4,0,.8,0,1.2l-5.14,39,5.27-4V519l-5.27,42.72,4.53-3.75q-1,31.59-3.17,62.53A27.94,27.94,0,0,0,439,648.39s133.69,8.77,142.86-17.4C594.83,563.26,573.52,387.34,573.52,387.34Z" style="fill: #60354a"/>
    <rect id="body_pattern" data-name="body pattern" x="461.81" y="421.88" width="89.31" height="196.16" rx="27.58" style="fill: #865665"/>
  </g>
  <rect id="left-hand-upper" x="536.9" y="409.2" width="138.66" height="54.5" rx="27.25" transform="translate(207.54 -195.26) rotate(21.99)" style="fill: #60354a"/>
  <g id="left-hand-lower">
    <path d="M721.91,524.72l-4.37,7.62a91.64,91.64,0,0,0,23.29,15.95s2.82.85,3.39-1.13,3.1-6.21-10.73-21.31Z" style="fill: #99889a"/>
    <path d="M732.15,522.36S751.41,534,753.43,537.5c0,0,8.89,2,2.11-11.44s-18-12.7-18-12.7Z" style="fill: #99889a"/>
    <path d="M738.92,511.13s12,1.91,19.17,11.44c0,0,8.15,2.54,3-10.8a20.26,20.26,0,0,0-18.21-13.23Z" style="fill: #99889a"/>
    <rect x="610.61" y="452.34" width="144.43" height="54.5" rx="27.25" transform="translate(952.86 1269.11) rotate(-143.96)" style="fill: #60354a"/>
    <path d="M741.22,522.07a27.25,27.25,0,0,0-6-38.07L716.3,470.24l-16.24-2.65,4.82,16.61-18.32-4.79,5,18.8L673.85,494l4.69,16.2,24.61,17.91a27.26,27.26,0,0,0,38.07-6Z" style="fill: #422635"/>
  </g>
  <g id="left_hand_sleeve" data-name="left hand sleeve">
    <path d="M546.67,413.68s-17.13,41.57,43.22,55.14c37.3,8.38,33.72,7.22,33.72,7.22l25.8-61.22-36.1-17.65S563.6,373.82,546.67,413.68Z" style="fill: #bd1e2c"/>
    <path d="M563.34,432,555,452c5.49,5.49,13.66,10.53,25.63,14.31l9.61-23.09Z" style="fill: #5d1015"/>
    <path d="M600.27,419.2,610,395.8c-5.5-2.11-17.16-5.87-29.35-5.38L573.35,408Z" style="fill: #5d1015"/>
    <rect x="595.82" y="422.16" width="26.05" height="29.42" transform="translate(-28.44 831.11) rotate(-67.4)" style="fill: #5d1015"/>
    <path d="M590.26,443.25l-9.61,23.09c2.86.9,5.93,1.73,9.24,2.48,8.57,1.92,15,3.34,19.77,4.39l7.76-18.66Z" style="fill: #2e080a"/>
    <path d="M613.31,397.17s-1.21-.57-3.3-1.37l-9.74,23.4,27.16,11.3,9.14-21.95Z" style="fill: #2e080a"/>
    <path d="M573.35,408l-18-7.47a40,40,0,0,0-8.72,13.16,36.44,36.44,0,0,0-2.16,10.52L563.34,432Z" style="fill: #5d1015"/>
    <path d="M544.51,424.2A35,35,0,0,0,555,452l8.32-20Z" style="fill: #2e080a"/>
    <path d="M580.66,390.42c-8.86.35-18,3-25.27,10.1l18,7.47Z" style="fill: #2e080a"/>
    <polygon points="588.96 471.55 619.88 395.35 653.28 414.05 626.88 482.53 588.96 471.55" style="fill: #de323f"/>
  </g>
  <g id="cloth">
    <path d="M405.45,396.74s2.65,69.27,1.1,182.51l108.9,23.43,13.42-41.49,16.52,40.46,46.45-19.1s-5.68-146-11.61-169.26l-37.17,16.23-13.62,35.87-22.8-45.94Z" style="fill: #bd1e2c"/>
    <rect x="432.1" y="488.97" width="29.42" height="25.71" style="fill: #5d1015"/>
    <rect x="432.1" y="544.1" width="29.42" height="29.13" style="fill: #5d1015"/>
    <rect x="432.1" y="430.39" width="29.42" height="29.16" style="fill: #5d1015"/>
    <rect x="461.52" y="514.68" width="26.05" height="29.42" style="fill: #5d1015"/>
    <path d="M572.92,544.1h17.24c-.43-9-.92-19-1.47-29.42H572.92Z" style="fill: #5d1015"/>
    <rect x="516.99" y="514.68" width="26.51" height="29.42" style="fill: #5d1015"/>
    <path d="M432.1,514.68H407q0,14-.12,29.42H432.1Z" style="fill: #5d1015"/>
    <rect x="432.1" y="514.68" width="29.42" height="29.42" style="fill: #2e080a"/>
    <polygon points="515.45 602.68 515.46 602.65 515.32 602.65 515.45 602.68" style="fill: #73141a"/>
    <rect x="487.57" y="488.97" width="29.42" height="25.71" style="fill: #5d1015"/>
    <rect x="487.57" y="544.1" width="29.42" height="29.13" style="fill: #5d1015"/>
    <polygon points="487.57 459.55 516.99 459.55 516.99 440.3 512.07 430.39 487.57 430.39 487.57 459.55" style="fill: #5d1015"/>
    <rect x="487.57" y="514.68" width="29.42" height="29.42" style="fill: #2e080a"/>
    <rect x="543.5" y="430.39" width="29.42" height="29.16" style="fill: #5d1015"/>
    <rect x="543.5" y="544.1" width="29.42" height="29.13" style="fill: #5d1015"/>
    <rect x="543.5" y="488.97" width="29.42" height="25.71" style="fill: #5d1015"/>
    <rect x="543.5" y="514.68" width="29.42" height="29.42" style="fill: #2e080a"/>
    <polygon points="516.99 597.93 524.98 573.23 516.99 573.23 516.99 597.93" style="fill: #5d1015"/>
    <path d="M432.1,584.74V573.23H406.63c0,2-.05,4-.08,6Z" style="fill: #5d1015"/>
    <path d="M572.92,590.33l18.92-7.78-.38-9.32H572.92Z" style="fill: #5d1015"/>
    <polygon points="461.52 573.23 461.52 591.07 487.57 596.68 487.57 573.23 461.52 573.23" style="fill: #5d1015"/>
    <polygon points="533.79 573.23 543.5 597.02 543.5 573.23 533.79 573.23" style="fill: #5d1015"/>
    <polygon points="432.1 573.23 432.1 584.74 461.52 591.07 461.52 573.23 432.1 573.23" style="fill: #2e080a"/>
    <polygon points="487.57 573.23 487.57 596.68 515.32 602.65 515.46 602.65 516.99 597.93 516.99 573.23 487.57 573.23" style="fill: #2e080a"/>
    <polygon points="543.5 597.02 545.39 601.64 572.92 590.33 572.92 573.23 543.5 573.23 543.5 597.02" style="fill: #2e080a"/>
    <path d="M572.92,489h14.33c-.61-10.13-1.26-20.13-1.94-29.42H572.92Z" style="fill: #5d1015"/>
    <rect x="461.52" y="459.55" width="26.05" height="29.42" style="fill: #5d1015"/>
    <polygon points="529.44 465.39 526.54 459.55 516.99 459.55 516.99 488.97 543.5 488.97 543.5 459.55 531.66 459.55 529.44 465.39" style="fill: #5d1015"/>
    <path d="M432.1,459.55H406.76Q406.91,473,407,489H432.1Z" style="fill: #5d1015"/>
    <rect x="432.1" y="459.55" width="29.42" height="29.42" style="fill: #2e080a"/>
    <rect x="487.57" y="459.55" width="29.42" height="29.42" style="fill: #2e080a"/>
    <rect x="543.5" y="459.55" width="29.42" height="29.42" style="fill: #2e080a"/>
    <path d="M572.92,416.48v13.91h9.86a143.07,143.07,0,0,0-2.55-17.1Z" style="fill: #5d1015"/>
    <path d="M432.1,402.72,424.29,401H405.6c.16,5.22.45,15.19.72,29.42H432.1Z" style="fill: #5d1015"/>
    <polygon points="543.5 429.33 543.07 429.52 542.73 430.39 543.5 430.39 543.5 429.33" style="fill: #73141a"/>
    <polygon points="487.57 430.39 487.57 415.17 461.52 409.32 461.52 430.39 487.57 430.39" style="fill: #5d1015"/>
    <polygon points="461.52 409.32 432.1 402.72 432.1 430.39 461.52 430.39 461.52 409.32" style="fill: #2e080a"/>
    <polygon points="512.07 430.39 506.64 419.45 487.57 415.17 487.57 430.39 512.07 430.39" style="fill: #2e080a"/>
    <polygon points="543.5 429.33 543.5 430.39 572.92 430.39 572.92 416.48 543.5 429.33" style="fill: #2e080a"/>
  </g>
  <g id="clock">
    <rect id="clock-base" x="334.07" y="484.09" width="365.82" height="110.73" rx="30.44" transform="translate(-22.51 22.51) rotate(-2.44)" style="opacity: 0.7000000000000001"/>
    <text id="clock-text" transform="translate(350.65 572.27) rotate(-3)" style="font-size: 71.15160369873047px;fill: #dd5d5d;font-family: Rubik-Bold, Rubik;font-weight: 700">00:00<tspan x="215.66" y="0" style="letter-spacing: -0.02499339747885022em"> </tspan><tspan x="228.82" y="0">AM</tspan></text>
  </g>
  <rect id="right-hand-upper" x="312.47" y="421.33" width="144.43" height="54.5" rx="27.25" transform="translate(-157.87 214.39) rotate(-26.04)" style="fill: #60354a"/>
  <g id="right_hand_sleeve" data-name="right hand sleeve">
    <path d="M457.63,408.94s-19.85-40.33-69.94-4C356.74,427.33,360,425.42,360,425.42l28.86,59.83L426,469.85S476.34,448,457.63,408.94Z" style="fill: #bd1e2c"/>
    <path d="M432.84,409.3l-9.5-19.46c-7.74.5-16.93,3.29-27.68,9.77l11,22.48Z" style="fill: #5d1015"/>
    <path d="M418.05,445.5l11.11,22.78c5.22-2.73,15.75-9,23.44-18.45l-8.34-17.11Z" style="fill: #5d1015"/>
    <rect x="384.41" y="427.22" width="29.42" height="26.05" transform="translate(-152.6 219.53) rotate(-26)" style="fill: #5d1015"/>
    <path d="M406.63,422.09l-11-22.48c-2.57,1.55-5.22,3.3-8,5.29-7.12,5.16-12.41,9-16.36,11.92L380.19,435Z" style="fill: #2e080a"/>
    <path d="M426,469.85s1.22-.53,3.21-1.57L418.05,445.5l-26.44,12.9L402,479.77Z" style="fill: #2e080a"/>
    <path d="M444.26,432.72l17.48-8.53a40,40,0,0,0-4.11-15.25,36.53,36.53,0,0,0-6.46-8.58l-18.33,8.94Z" style="fill: #5d1015"/>
    <path d="M451.17,400.36a35.09,35.09,0,0,0-27.83-10.52l9.5,19.46Z" style="fill: #2e080a"/>
    <path d="M452.6,449.83c5.6-6.89,9.69-15.48,9.14-25.64l-17.48,8.53Z" style="fill: #2e080a"/>
    <polygon points="386.26 402.4 422.97 475.98 386.86 488.67 352.95 423.58 386.26 402.4" style="fill: #de323f"/>
  </g>
  <g id="left-ear">
    <path d="M576.8,8.33c-9.52,14.16-35,59.17-35,135.62l108.83,89.61c4.31-.16,22.77-125.69-66.58-225.51A4.58,4.58,0,0,0,576.8,8.33Z" style="fill: #412636"/>
    <path d="M588.76,65.65c-5.78,8.83-17,31.18-23,77.71l69.2,60s18.23-54.7-39.27-137.82A4.19,4.19,0,0,0,588.76,65.65Z" style="fill: #865666"/>
  </g>
  <g id="right-ear">
    <path d="M421.55,9.23C402.4,33.3,340.83,120.8,353.6,236.52L484.46,131.83S471.75,52.48,433.22,9A7.61,7.61,0,0,0,421.55,9.23Z" style="fill: #412636"/>
    <path d="M418.45,65.6c-10.25,16.1-38.12,65.71-33.58,123.45l81.18-50.35S450.3,85.47,427.49,64.62A5.9,5.9,0,0,0,418.45,65.6Z" style="fill: #865666"/>
  </g>
  <g id="head">
    <path d="M370.24,211.9c-3.33,1.33-20.19,7.76-20.19,7.76S333,229.26,324,240.25a2.76,2.76,0,0,0,.64,4.08l8.59,5.49s-35.42,19-46.27,34.19a6.19,6.19,0,0,0-.3,6.7c4.31,7.41,15.69,25.53,26.38,30.09l-14.59,13.45a4.18,4.18,0,0,0-.67,5.38c6.51,9.88,33,41.92,117.29,73.66Z" style="fill: #422635"/>
    <path d="M512.85,122.36c116.22,0,150.82,117.41,150.82,117.41,23.28,16.16,32,26.82,34.94,31.42a6.57,6.57,0,0,1,.83,5.2c-6,23.83-23.34,41.45-23.34,41.45a38.9,38.9,0,0,1,17,10.14,5.25,5.25,0,0,1,1,6c-52.88,105.27-172.54,99.18-172.54,99.18s-150.79-1.47-196.47-88.47a5.2,5.2,0,0,1-.09-4.66c1.48-3,6-7.85,19.32-13.63,0,0-21.68-19.54-30.16-37.48a5.36,5.36,0,0,1,.43-5.29c3.44-5,12.49-16.86,28.84-28.5C343.4,255.15,365.58,119,512.85,122.36Z" style="fill: #60354a"/>
    <path d="M385.06,327.69a2.52,2.52,0,0,1,1.07-4.34,38.25,38.25,0,0,1,16.93-.11c13.09,2.66,48.58,25.06,48.58,25.06s46.13,22.62,64.54,24.62c0,0,63.88-68.76,108.46-10.2,0,0,24.64-25.19,45.62-27.69a2.94,2.94,0,0,1,2.76,4.65c-5.14,7.06-15.16,19.89-22,22.59,0,0,14.66-6.53,23.33-1a3.53,3.53,0,0,1,.91,5.15c-14.39,18.35-109.44,125.36-301.11,25.2a3.52,3.52,0,0,1,.18-6.33l20.07-9s-21.86-5.37-35.09-16.82A3.89,3.89,0,0,1,360,353c5.42-2.86,19.11-6.15,53.68-5C413.71,348.08,394.6,336,385.06,327.69Z" style="fill: #865665"/>
    <path d="M563.88,353.46c8.1-4.83,24.92-11.89,42.1-.84a5.29,5.29,0,0,1,1.85,6.82c-2.36,4.67-7.66,12.19-18.75,17.34a5.31,5.31,0,0,1-2.81.43c-3.75-.44-13.47-2.83-23.8-15.51A5.53,5.53,0,0,1,563.88,353.46Z" style="fill: #12010f"/>
    <path d="M436.77,294.11c8,3.06,32.8,11.39,87.14,21.12a2.59,2.59,0,0,1,2,1.58c2.5,6.14,11.27,31.65-13.47,35.74,0,0-44.71,10.26-73.07-28.85a2,2,0,0,1,1.72-3.1l14.38.86s-16.75-11.23-21-25.23A1.75,1.75,0,0,1,436.77,294.11Z" style="fill: #412636"/>
    <path d="M669.38,286.32c-6.16,3.21-26.22,11.63-66.15,26.94a2.48,2.48,0,0,0-1.51,1.65c-1.92,6.43-8.8,27.07,9.46,32.56,4.81,1.94,38.53,11.88,59.26-32.33.67-1.43-.05-3.35-1.32-3.25L659,313.48a62.94,62.94,0,0,0,12.14-24.94C671.48,287.09,670.42,285.78,669.38,286.32Z" style="fill: #412636"/>
    <path d="M470.49,311,516,322.79s-.89,27.29-27.51,25.51S466.05,314.81,470.49,311Z" style="fill: #cfff71"/>
    <path d="M604.06,317.89l37.58-12.38s11.39,26.33-9,37C612.66,352.89,603.2,325.09,604.06,317.89Z" style="fill: #cfff71"/>
    <ellipse cx="504.27" cy="250.21" rx="19.79" ry="32.17" transform="translate(35.45 561.82) rotate(-60)" style="fill: #875666"/>
    <ellipse cx="609.41" cy="246.04" rx="31.12" ry="19.79" transform="translate(-36.56 367.04) rotate(-32.6)" style="fill: #875666"/>
  </g>
  <path id="glasses" d="M712.68,304.1H705.8c-4.1-30.89-28.06-54.6-57-54.6-27.1,0-49.82,20.77-56,48.76-15.75-14.82-28.43-4.92-33.94,1.22a64,64,0,0,0-124.63,14h-7a7.58,7.58,0,0,0-7.58,7.58v1.05a7.58,7.58,0,0,0,7.58,7.58h7.58A64,64,0,0,0,561.51,311.4c14-19.13,25.15-7.57,29.73-.79,0,1-.07,1.92-.07,2.89,0,35.34,25.8,64,57.63,64,29.73,0,54.2-25,57.29-57.14h6.59a8.13,8.13,0,1,0,0-16.25ZM498,372.31a53.13,53.13,0,1,1,53.12-53.12A53.12,53.12,0,0,1,498,372.31Zm150.8-5.69c-26.42,0-47.84-23.78-47.84-53.12s21.42-53.13,47.84-53.13,47.83,23.79,47.83,53.13S675.21,366.62,648.8,366.62Z" style="fill: #1f1f25"/>
  <g id="right-hand-lower">
    <path d="M311.32,572.66l-8.78-.38a92.27,92.27,0,0,0-3.47,28s.55,2.9,2.56,2.49,6.95-.09,14-19.32Z" style="fill: #99889a"/>
    <path d="M318.12,580.66s-1.49,22.47-3.67,25.86c0,0,2.3,8.82,11.13-3.37s3-21.83,3-21.83Z" style="fill: #99889a"/>
    <path d="M331.2,581.52S335,593,329.86,603.8c0,0,1.48,8.4,10.95-2.33a20.28,20.28,0,0,0,3.38-22.26Z" style="fill: #99889a"/>
    <rect x="261.23" y="489.95" width="144.43" height="54.5" rx="27.25" transform="translate(-228.16 768.77) rotate(-81.32)" style="fill: #60354a"/>
    <path d="M322.55,588.59a27.25,27.25,0,0,0,31.05-22.83l3.53-23.12L352,527l-12.54,11.91-4.16-18.47-14.39,13.1-4.38-17.7-12.24,11.61-4.59,30.09a27.25,27.25,0,0,0,22.83,31.05Z" style="fill: #422635"/>
  </g>
</svg>
