<svg id="scarthewerewolf" xmlns="http://www.w3.org/2000/svg" viewBox="0 0 1000 1000"><g id="tail"><path d="M475.78 674.45s6.75 83.35-17.47 120.28c-24.22 36.93-12.15 84.34-12.15 84.34s11.91-9.1 15.21-20.24c3.3-11.14-7.65 22.55 13.32 59.88s14.46 46.9 14.46 46.9 25.88-23.76 31.8-52.57c0 0 6.71 15.04 14.12 23.14 0 0 9.6-15.16 10.54-45.46 0 0-.48-32.33-3.63-40.53 0 0-4.56-20.08-2.68-37.92 1.88-17.84-1.33-43.39-1.33-43.39s9.56 25.89 10.3 35.53c0 0 8.45-5.51 9.9-38.16 1.45-32.65-34.46-77.1-34.46-77.1l2.15-79.26s-22.47-48.37-48.18-1.49l-1.89 66.06Z" style="fill:#422635;stroke-width:0"/><path d="M525.85 609.88s-22.47-48.37-48.18-1.49l-1.89 66.06s6.35 78.46-15.39 116.86c-.76 10.28.31 24.67 6.59 43.58 0 0 14.46-1.17 27.54-24.5-1.23 2.5-5.22 14.54 7.61 50.29 0 0 9.29-18.35 16.24-23.02 0 0 13.1-12.05 20.72-23.31.05-.69.11-1.39.19-2.08 1.88-17.84-1.33-43.39-1.33-43.39s9.56 25.89 10.3 35.53c0 0 8.45-5.51 9.9-38.16 1.45-32.65-34.46-77.1-34.46-77.1l2.15-79.26Z" style="fill:#60354a;stroke-width:0"/></g><g id="right-leg"><rect x="413.91" y="592.94" width="63.95" height="150.16" rx="31.97" ry="31.97" style="fill:#60354a;stroke-width:0"/><path d="M445.89 743.1c17.66 0 31.97-14.32 31.97-31.97v-19.58l-10.11-16.32-10.35 18.78-10.79-18.78-10.35 18.04-10.79-18.04-11.55 20.54v15.35c0 17.66 14.32 31.97 31.97 31.97Z" style="fill:#422635;stroke-width:0"/><path d="M471.26 715.23c3.91-1.48 10.17-1.3 16.38 9.5 1.42 2.46 2.42 5.17 2.67 8 .2 2.31-.03 5.03-1.43 7.49-.77 1.34-2.64 1.56-3.7.43-3.22-3.43-10.34-10.44-17.93-14.09-1.23-.59-2-1.86-1.93-3.22.01-.33.05-.69.12-1.07.55-3.19 2.81-5.88 5.83-7.02ZM455.22 725.35c3.91-1.48 10.17-1.3 16.38 9.5 1.42 2.46 2.42 5.17 2.67 8 .2 2.31-.03 5.03-1.43 7.49-.77 1.34-2.64 1.56-3.7.43-3.22-3.43-10.34-10.44-17.93-14.09-1.23-.59-2-1.86-1.93-3.22.01-.33.05-.69.12-1.07.55-3.19 2.81-5.88 5.83-7.02ZM432.94 725.8c3.96-1.34 10.21-.94 16.03 10.07 1.33 2.51 2.24 5.25 2.39 8.09.12 2.32-.2 5.03-1.7 7.43-.82 1.32-2.7 1.46-3.72.29-3.09-3.54-9.97-10.8-17.42-14.72a3.423 3.423 0 0 1-1.82-3.29c.03-.33.08-.68.16-1.07.66-3.17 3.01-5.77 6.08-6.81Z" style="fill:#99889a;stroke-width:0"/></g><g id="left-leg"><rect x="518.9" y="592.94" width="63.95" height="150.16" rx="31.97" ry="31.97" style="fill:#60354a;stroke-width:0"/><path d="M550.87 743.1c17.66 0 31.97-14.32 31.97-31.97v-19.58l-10.11-16.32-10.35 18.78-10.79-18.78-10.35 18.04-10.79-18.04-11.55 20.54v15.35c0 17.66 14.32 31.97 31.97 31.97Z" style="fill:#422635;stroke-width:0"/><path d="M576.24 715.23c3.91-1.48 10.17-1.3 16.38 9.5 1.42 2.46 2.42 5.17 2.67 8 .2 2.31-.03 5.03-1.43 7.49-.77 1.34-2.64 1.56-3.7.43-3.22-3.43-10.34-10.44-17.93-14.09-1.23-.59-2-1.86-1.93-3.22.01-.33.05-.69.12-1.07.55-3.19 2.81-5.88 5.83-7.02ZM560.2 725.35c3.91-1.48 10.17-1.3 16.38 9.5 1.42 2.46 2.42 5.17 2.67 8 .2 2.31-.03 5.03-1.43 7.49-.77 1.34-2.64 1.56-3.7.43-3.22-3.43-10.34-10.44-17.93-14.09-1.23-.59-2-1.86-1.93-3.22.01-.33.05-.69.12-1.07.55-3.19 2.81-5.88 5.83-7.02ZM537.93 725.8c3.96-1.34 10.21-.94 16.03 10.07 1.33 2.51 2.24 5.25 2.39 8.09.12 2.32-.2 5.03-1.7 7.43-.82 1.32-2.7 1.46-3.72.29-3.09-3.54-9.97-10.8-17.42-14.72a3.423 3.423 0 0 1-1.82-3.29c.03-.33.08-.68.16-1.07.66-3.17 3.01-5.77 6.08-6.81Z" style="fill:#99889a;stroke-width:0"/></g><g id="body"><path d="M573.52 387.34H411.09c1.51 23.54 2.59 46.85 3.24 69.94-2.08 12.91-4.6 28.31-4.6 28.31l5.13-3.21c0 .4.01.8.02 1.2l-5.15 39.05 5.28-4.03v.34l-5.28 42.72 4.54-3.75c-.65 21.06-1.69 41.91-3.17 62.53 0 15.43 12.51 27.94 27.94 27.94 0 0 133.68 8.77 142.86-17.4 12.95-67.73-8.36-243.65-8.36-243.65Z" style="fill:#60354a;stroke-width:0"/><rect x="461.81" y="421.88" width="89.31" height="196.16" rx="27.58" ry="27.58" style="fill:#865665;stroke-width:0"/></g><rect id="left-hand-upper" x="536.9" y="409.2" width="138.66" height="54.5" rx="27.25" ry="27.25" transform="rotate(21.99 606.267 436.47)" style="fill:#60354a;stroke-width:0"/><g id="left-hand-lower"><path d="m721.91 524.72-4.38 7.62c6.84 6.43 14.6 11.76 23.29 15.95 0 0 2.82.85 3.39-1.13s3.11-6.21-10.73-21.31l-11.57-1.13ZM732.15 522.36s19.27 11.65 21.28 15.14c0 0 8.89 2.01 2.12-11.43-6.78-13.44-18-12.7-18-12.7l-5.4 9Z" style="fill:#99889a;stroke-width:0"/><path d="M738.92 511.13s11.97 1.91 19.17 11.43c0 0 8.15 2.54 2.96-10.8s-18.21-13.23-18.21-13.23l-3.92 12.6Z" style="fill:#99889a;stroke-width:0"/><rect x="610.61" y="452.34" width="144.43" height="54.5" rx="27.25" ry="27.25" transform="rotate(-143.96 682.854 479.57)" style="fill:#60354a;stroke-width:0"/><path d="M741.22 522.07c8.85-12.17 6.17-29.22-6.01-38.07l-18.92-13.76-16.24-2.65 4.82 16.61-18.32-4.79 5.02 18.8-17.74-4.24 4.69 16.2 24.61 17.91c12.17 8.85 29.22 6.17 38.07-6.01Z" style="fill:#422635;stroke-width:0"/></g><g><path d="M546.67 413.68s-17.13 41.56 43.23 55.13c37.29 8.38 33.72 7.22 33.72 7.22l25.8-61.22-36.1-17.66s-49.71-23.35-66.64 16.51Z" style="fill:#bd1e2c;stroke-width:0"/><path d="m563.34 432.04-8.32 19.99c5.49 5.48 13.66 10.53 25.63 14.3l9.61-23.09-26.92-11.21ZM600.27 419.2l9.74-23.4c-5.5-2.11-17.16-5.87-29.35-5.38l-7.31 17.57 26.92 11.21Z" style="fill:#5d1015;stroke-width:0"/><path transform="rotate(-67.4 608.878 436.877)" style="fill:#5d1015;stroke-width:0" d="M595.82 422.16h26.05v29.42h-26.05z"/><path d="m590.26 443.25-9.61 23.09c2.86.9 5.93 1.74 9.24 2.48 8.57 1.93 14.97 3.35 19.76 4.4l7.77-18.66-27.16-11.3ZM613.31 397.17s-1.2-.57-3.3-1.37l-9.74 23.4 27.16 11.3 9.14-21.95-23.26-11.38Z" style="fill:#2e080a;stroke-width:0"/><path d="m573.35 407.99-17.96-7.48c-3.39 3.33-6.37 7.64-8.72 13.17 0 0-1.76 4.27-2.16 10.52l18.83 7.84 10.01-24.05Z" style="fill:#5d1015;stroke-width:0"/><path d="M544.51 424.2c-.5 7.7 1.07 18.4 10.51 27.83l8.32-19.99-18.83-7.84ZM580.66 390.42c-8.87.36-18.01 2.97-25.28 10.1l17.96 7.48 7.31-17.57Z" style="fill:#2e080a;stroke-width:0"/><path style="fill:#de323f;stroke-width:0" d="m588.96 471.55 30.92-76.2 33.4 18.7-26.4 68.48-37.92-10.98z"/></g><g id="cloth"><path d="M405.45 396.74s2.65 69.27 1.1 182.5l108.9 23.43 13.42-41.49 16.52 40.46 46.45-19.1s-5.68-146-11.61-169.26l-37.16 16.23-13.62 35.87-22.8-45.94-101.19-22.71Z" style="fill:#bd1e2c;stroke-width:0"/><path style="fill:#5d1015;stroke-width:0" d="M432.1 488.97h29.42v25.71H432.1zM432.1 544.1h29.42v29.13H432.1zM432.1 430.39h29.42v29.16H432.1z"/><path style="fill:#5d1015;stroke-width:0" d="M461.52 514.68h26.05v29.42h-26.05zM572.92 544.1h17.24c-.42-9.01-.92-19.02-1.47-29.42h-15.77v29.42ZM516.99 514.68h26.51v29.42h-26.51zM432.1 514.68h-25.07c-.01 9.33-.05 19.14-.12 29.42h25.18v-29.42Z"/><path style="fill:#2e080a;stroke-width:0" d="M432.1 514.68h29.42v29.42H432.1z"/><path style="fill:#73141a;stroke-width:0" d="m515.45 602.68.01-.03h-.14l.13.03z"/><path style="fill:#5d1015;stroke-width:0" d="M487.57 488.97h29.42v25.71h-29.42zM487.57 544.1h29.42v29.13h-29.42zM487.57 459.55h29.42V440.3l-4.92-9.91h-24.5v29.16z"/><path style="fill:#2e080a;stroke-width:0" d="M487.57 514.68h29.42v29.42h-29.42z"/><path style="fill:#5d1015;stroke-width:0" d="M543.5 430.39h29.42v29.16H543.5zM543.5 544.1h29.42v29.13H543.5zM543.5 488.97h29.42v25.71H543.5z"/><path style="fill:#2e080a;stroke-width:0" d="M543.5 514.68h29.42v29.42H543.5z"/><path style="fill:#5d1015;stroke-width:0" d="m516.99 597.93 7.99-24.7h-7.99v24.7zM432.1 584.74v-11.51h-25.47c-.03 1.99-.05 4-.08 6.02l25.55 5.5ZM572.92 590.33l18.92-7.78s-.13-3.44-.38-9.32h-18.54v17.1ZM461.52 573.23v17.84l26.05 5.61v-23.45h-26.05zM533.79 573.23l9.71 23.79v-23.79h-9.71z"/><path style="fill:#2e080a;stroke-width:0" d="M432.1 573.23v11.51l29.42 6.33v-17.84H432.1zM487.57 573.23v23.45l27.75 5.97h.14l1.53-4.72v-24.7h-29.42zM543.5 597.02l1.89 4.63 27.53-11.32v-17.1H543.5v23.79z"/><path d="M572.92 488.97h14.33c-.61-10.13-1.26-20.13-1.93-29.42h-12.39v29.42ZM461.52 459.55h26.05v29.42h-26.05zM529.44 465.39l-2.9-5.84h-9.55v29.42h26.51v-29.42h-11.84l-2.22 5.84zM432.1 459.55h-25.33c.1 8.95.18 18.77.23 29.42h25.11v-29.42Z" style="fill:#5d1015;stroke-width:0"/><path style="fill:#2e080a;stroke-width:0" d="M432.1 459.55h29.42v29.42H432.1zM487.57 459.55h29.42v29.42h-29.42zM543.5 459.55h29.42v29.42H543.5z"/><path d="M572.92 416.48v13.91h9.86c-.83-7.74-1.69-13.72-2.55-17.1l-7.31 3.19ZM432.1 402.72l-7.81-1.75h-18.7c.17 5.22.45 15.19.73 29.42h25.77v-27.67Z" style="fill:#5d1015;stroke-width:0"/><path style="fill:#73141a;stroke-width:0" d="m543.5 429.33-.44.19-.33.87h.77v-1.06z"/><path style="fill:#5d1015;stroke-width:0" d="M487.57 430.39v-15.22l-26.05-5.85v21.07h26.05z"/><path style="fill:#2e080a;stroke-width:0" d="m461.52 409.32-29.42-6.6v27.67h29.42v-21.07zM512.07 430.39l-5.43-10.94-19.07-4.28v15.22h24.5zM543.5 429.33v1.06h29.42v-13.91l-29.42 12.85z"/></g><g id="clock"><rect id="clock-base" x="334.07" y="484.09" width="365.82" height="110.73" rx="30.44" ry="30.44" transform="rotate(-2.44 517.242 539.752)" style="opacity:.7;stroke-width:0"/><text id="clock-text" transform="rotate(-3 11102.405 -6410.211)" style="fill:#dd5d5d;font-family:Rubik-Bold,Rubik;font-size:71.15px;font-weight:700"><tspan x="0" y="0">00:00</tspan><tspan x="214.31" y="0" style="letter-spacing:-.03em"> </tspan><tspan x="227.68" y="0">AM</tspan></text></g><rect id="right-hand-upper" x="312.47" y="421.33" width="144.43" height="54.5" rx="27.25" ry="27.25" transform="rotate(-26.04 384.64 448.556)" style="fill:#60354a;stroke-width:0"/><g><path d="M457.63 408.94s-19.85-40.33-69.94-4.04c-30.95 22.43-27.72 20.51-27.72 20.51l28.86 59.83 37.12-15.4s50.39-21.84 31.68-60.91Z" style="fill:#bd1e2c;stroke-width:0"/><path d="m432.84 409.3-9.49-19.46c-7.74.49-16.93 3.28-27.68 9.77l10.96 22.48 26.21-12.78ZM418.05 445.5l11.11 22.78c5.22-2.73 15.75-8.99 23.44-18.45l-8.34-17.11-26.21 12.78Z" style="fill:#5d1015;stroke-width:0"/><path transform="rotate(-26 399.144 440.257)" style="fill:#5d1015;stroke-width:0" d="M384.41 427.22h29.42v26.05h-29.42z"/><path d="m406.63 422.09-10.96-22.48c-2.57 1.55-5.22 3.3-7.97 5.29-7.12 5.16-12.41 9.02-16.37 11.92l8.86 18.16 26.44-12.9ZM425.95 469.85s1.22-.53 3.21-1.57l-11.11-22.78-26.44 12.9 10.43 21.37 23.92-9.93Z" style="fill:#2e080a;stroke-width:0"/><path d="m444.26 432.72 17.49-8.53c-.25-4.74-1.52-9.83-4.11-15.25 0 0-2.04-4.14-6.46-8.58l-18.33 8.94 11.42 23.41Z" style="fill:#5d1015;stroke-width:0"/><path d="M451.17 400.36c-5.45-5.47-14.51-11.37-27.83-10.52l9.49 19.46 18.33-8.94ZM452.6 449.83c5.6-6.89 9.69-15.47 9.14-25.64l-17.49 8.53 8.34 17.11Z" style="fill:#2e080a;stroke-width:0"/><path style="fill:#de323f;stroke-width:0" d="m386.26 402.4 36.71 73.58-36.11 12.69-33.91-65.09 33.31-21.18z"/></g><g id="left-ear"><path d="M576.8 8.33c-9.52 14.16-34.97 59.17-34.97 135.63l108.83 89.61c4.31-.16 22.77-125.69-66.58-225.5-2.03-2.27-5.58-2.26-7.28.27Z" style="fill:#412636;stroke-width:0"/><path d="M588.76 65.65c-5.78 8.83-16.99 31.18-22.97 77.71l69.2 60.03s18.24-54.71-39.26-137.83c-1.7-2.45-5.34-2.41-6.97.09Z" style="fill:#865666;stroke-width:0"/></g><g id="right-ear"><path d="M421.55 9.23c-19.15 24.08-80.72 111.58-67.95 227.29l130.86-104.69S471.75 52.48 433.21 8.98c-3.15-3.55-8.71-3.47-11.66.25Z" style="fill:#412636;stroke-width:0"/><path d="M418.45 65.6c-10.26 16.1-38.12 65.71-33.58 123.45l81.18-50.35s-15.75-53.23-38.56-74.08c-2.75-2.52-7.03-2.16-9.04.99Z" style="fill:#865666;stroke-width:0"/></g><g id="head"><path d="M370.24 211.9c-3.33 1.33-20.18 7.76-20.18 7.76s-17.09 9.6-26.08 20.59c-1.05 1.28-.76 3.19.63 4.08l8.59 5.5s-35.41 19.04-46.26 34.18c-1.42 1.98-1.52 4.6-.3 6.7 4.31 7.41 15.69 25.53 26.38 30.09l-14.59 13.45a4.183 4.183 0 0 0-.67 5.38c6.51 9.88 32.97 41.92 117.29 73.66l-44.8-201.39Z" style="fill:#422635;stroke-width:0"/><path d="M512.85 122.36c116.22 0 150.82 117.41 150.82 117.41 23.27 16.16 31.94 26.83 34.93 31.42 1 1.54 1.28 3.42.83 5.2-6 23.82-23.35 41.45-23.35 41.45 8.21 2.29 13.96 7.05 17 10.14 1.57 1.6 1.98 4.02.97 6.03-52.88 105.26-172.54 99.17-172.54 99.17s-150.79-1.47-196.47-88.46c-.76-1.45-.8-3.19-.09-4.66 1.48-3.04 6.04-7.85 19.31-13.63 0 0-21.68-19.54-30.15-37.48-.81-1.71-.63-3.72.43-5.28 3.43-5.05 12.49-16.86 28.84-28.51 0 0 22.18-136.18 169.45-132.78Z" style="fill:#60354a;stroke-width:0"/><path d="M385.06 327.69c-1.54-1.34-.9-3.84 1.07-4.33 3.61-.9 9.43-1.64 16.94-.11 13.09 2.66 48.57 25.06 48.57 25.06s46.13 22.62 64.54 24.62c0 0 63.88-68.76 108.46-10.2 0 0 24.64-25.19 45.63-27.69 2.56-.31 4.27 2.56 2.75 4.65-5.13 7.06-15.15 19.89-21.99 22.59 0 0 14.65-6.53 23.33-1.01 1.76 1.12 2.2 3.5.91 5.15-14.39 18.35-109.44 125.36-301.11 25.2-2.6-1.36-2.5-5.12.18-6.33l20.07-9.03s-21.86-5.37-35.09-16.82c-2.08-1.8-1.73-5.11.71-6.39 5.42-2.86 19.11-6.14 53.68-4.96 0 0-19.11-12.1-28.65-20.39Z" style="fill:#865665;stroke-width:0"/><path d="M563.88 353.46c8.1-4.83 24.92-11.89 42.09-.84a5.294 5.294 0 0 1 1.86 6.82c-2.36 4.67-7.66 12.19-18.76 17.34-.88.41-1.85.55-2.81.43-3.75-.44-13.47-2.83-23.79-15.51-2.13-2.61-1.49-6.51 1.41-8.24Z" style="fill:#12010f;stroke-width:0"/><path d="M436.77 294.11c8.01 3.06 32.8 11.39 87.14 21.12.88.16 1.63.75 1.97 1.58 2.5 6.15 11.27 31.65-13.47 35.75 0 0-44.71 10.26-73.07-28.85-.97-1.34.07-3.21 1.71-3.11l14.39.87s-16.76-11.23-20.98-25.23c-.42-1.39.96-2.64 2.31-2.12ZM669.38 286.32c-6.16 3.21-26.22 11.63-66.14 26.93-.65.25-1.25.79-1.51 1.65-1.92 6.43-8.8 27.07 9.46 32.56 4.81 1.94 38.53 11.88 59.26-32.33.67-1.43-.05-3.35-1.32-3.25l-10.1 1.59s8.89-10.29 12.14-24.94c.32-1.45-.74-2.76-1.78-2.22Z" style="fill:#412636;stroke-width:0"/><path d="m470.49 311.04 45.47 11.76s-.89 27.28-27.5 25.51c-26.62-1.77-22.4-33.49-17.97-37.26ZM604.06 317.89l37.58-12.37s11.38 26.33-9.02 36.96-29.43-17.39-28.56-24.59Z" style="fill:#cfff71;stroke-width:0"/><ellipse cx="504.27" cy="250.21" rx="19.79" ry="32.17" transform="rotate(-60 504.275 250.21)" style="fill:#875666;stroke-width:0"/><ellipse cx="609.41" cy="246.04" rx="31.12" ry="19.79" transform="rotate(-32.6 609.31 246.033)" style="fill:#875666;stroke-width:0"/></g><path id="glasses" d="M712.68 304.1h-6.88c-4.09-30.89-28.05-54.6-57-54.6-27.1 0-49.81 20.78-55.97 48.77-15.75-14.83-28.42-4.92-33.94 1.22-8.31-25.7-32.43-44.29-60.89-44.29-33.43 0-60.85 25.63-63.73 58.31h-6.97c-4.19 0-7.58 3.39-7.58 7.58v1.06c0 4.19 3.39 7.58 7.58 7.58h7.58c5.02 30.34 31.36 53.48 63.12 53.48 35.35 0 64-28.65 64-64 0-2.64-.18-5.23-.49-7.79 14.06-19.13 25.15-7.57 29.73-.79-.04.96-.07 1.92-.07 2.88 0 35.35 25.8 64 57.62 64 29.74 0 54.21-25.02 57.29-57.14h6.59a8.13 8.13 0 0 0 0-16.26ZM498 372.32c-29.34 0-53.13-23.79-53.13-53.13s23.79-53.13 53.13-53.13 53.13 23.79 53.13 53.13-23.79 53.13-53.13 53.13Zm150.8-5.69c-26.42 0-47.83-23.79-47.83-53.13s21.42-53.13 47.83-53.13 47.83 23.79 47.83 53.13-21.42 53.13-47.83 53.13Z" style="fill:#1f1f25;stroke-width:0"/><g id="right-hand-lower"><path d="m311.32 572.66-8.78-.38c-2.57 9.03-3.74 18.37-3.46 28.02 0 0 .54 2.9 2.56 2.49s6.94-.1 14-19.32l-4.32-10.8ZM318.12 580.66s-1.49 22.46-3.67 25.86c0 0 2.3 8.82 11.13-3.37 8.83-12.2 3.01-21.82 3.01-21.82l-10.47-.66Z" style="fill:#99889a;stroke-width:0"/><path d="M331.2 581.52s3.81 11.51-1.35 22.28c0 0 1.49 8.4 10.95-2.33 9.46-10.74 3.39-22.25 3.39-22.25l-12.99 2.31Z" style="fill:#99889a;stroke-width:0"/><rect x="261.23" y="489.95" width="144.43" height="54.5" rx="27.25" ry="27.25" transform="rotate(-81.32 333.44 517.203)" style="fill:#60354a;stroke-width:0"/><path d="M322.55 588.59c14.88 2.27 28.78-7.95 31.05-22.83l3.53-23.12-5.11-15.64-12.54 11.91-4.17-18.47-14.39 13.1-4.38-17.7-12.23 11.61-4.59 30.09c-2.27 14.88 7.95 28.78 22.83 31.05Z" style="fill:#422635;stroke-width:0"/></g><g id="hat"><path d="M636.42 191.32c-.41-41.11-4.29-65-13.16-84.28-8.21-17.84-29.55-25.81-32.85-26.95 2.59.9 16.06 5.93 25.78 16.51-52.78-26.56-197.74 5.2-206.23 10.44-8.26 5.1-55.67 22.11-61.15 24.07v-.46c.58 40.31 6.08 65.42 8.86 75.63.85 3.12 3.66 5.3 6.89 5.35l47.73.7s.33.03.94.09c7.15-2.85 106.38-41.23 223.18-21.1ZM590.02 79.96s.04.01.06.02c-.03 0-.05-.02-.06-.02ZM590.18 80.01s.09.03.14.05c-.06-.02-.1-.03-.14-.05Z" style="fill:#9c9173;stroke-width:0"/><path d="M637.07 191.42c-.22-.04-.43-.07-.65-.11-116.8-20.13-216.03 18.25-223.18 21.1-.27.11-.43.17-.43.17 20.65 21.94 76.9 34.84 76.9 34.84s70.45 14.71 108.39-2.84 83.04-14.14 93.16-12.39c11.9 2.06 11.87-1.03 11.87-1.03 1.55-9.03-66.06-39.74-66.06-39.74ZM589.97 79.94s.03 0 .05.02c-.03-.01-.05-.02-.05-.02ZM590.32 80.06l.09.03-.09-.03ZM590.08 79.98s.06.02.1.03c-.04-.01-.07-.02-.1-.03Z" style="fill:#898063;stroke-width:0"/><path d="M409.97 107.04c8.48-5.24 153.45-37 206.23-10.44-9.72-10.58-23.2-15.61-25.78-16.51l-.09-.03c-.05-.02-.1-.03-.14-.05-.04-.01-.07-.02-.1-.03-.02 0-.05-.02-.06-.02-.02 0-.05-.02-.05-.02-86.71-18.58-154.45 3.87-192.39 15.48s-48.77 35.23-48.77 35.23v.46c5.49-1.96 52.89-18.97 61.15-24.07Z" style="fill:#898063;stroke-width:0"/><path d="M384.09 183.2c-3.04.61-6.11 1.28-9.14 2.01l9.2-1.69-.05-.32Z" style="fill:none;stroke-width:0"/><path d="M532.92 124.26c.05.27.11.55.14.83.86 6.39 1.77 11.83 2.36 16.32l13.61-.46c.23-4.19 1.14-9.78 2.09-16.69h-18.21ZM383.6 149.08c.57.67.97 1.5 1.13 2.42l5.17 30.59c8.52-1.56 16.32-2.65 21.52-3.31-3.44-8-4.85-29.24-5.21-35.75-8.72 2.17-16.18 4.19-22.6 6.05ZM379 153.32l-15.55 4.03 6.01 28.86 5.5-1.01c3.03-.73 6.11-1.4 9.14-2.01l-5.1-29.88ZM346.39 163.53a1.98 1.98 0 0 0-.79 1.86l3.67 26.37c.15 1.08 1.31 1.7 2.29 1.21 3.62-1.8 7.99-3.42 12.72-4.87l-6.58-30.3c-6.8 2.78-9.95 4.72-11.31 5.73Z" style="fill:#1b1c1b;stroke-width:0"/><path d="M532.92 124.26c-2.36-12.62-18.07-13.35-18.07-13.35-56.7-9.98-101.21 24.03-107.89 29.47a2.21 2.21 0 0 0-.81 1.84c.01.23.03.51.04.81.36 6.5 1.77 27.75 5.21 35.75.51 1.18 1.06 2.07 1.66 2.59 5.42 4.65 46.97 15.74 78.71 6.45 31.74-9.29 42.58-30.19 43.87-35.1.68-2.57.43-6.36-.22-11.3-.59-4.49-1.5-9.93-2.36-16.32-.04-.29-.09-.56-.14-.83Zm-8.89 31.81c-2.84 5.68-20.39 18.84-36.65 20.9s-45.94 3.1-53.16-14.45c0 0-.39-1.76-.83-4.38-.06-.36-.13-.75-.19-1.15-.02-.1-.03-.2-.05-.3-.06-.38-.12-.76-.18-1.16 0-.05-.01-.09-.02-.14-.06-.43-.13-.88-.19-1.33-.01-.11-.03-.22-.04-.34-.05-.38-.1-.76-.14-1.15-.01-.1-.02-.2-.04-.31-.05-.47-.11-.94-.15-1.42l-.03-.3c-.04-.39-.07-.79-.1-1.18l-.03-.38c-.04-.48-.07-.96-.09-1.44v-.19c-.02-.42-.03-.83-.04-1.25V144.3c0-.45.03-.89.05-1.32 0-.12.02-.23.02-.35.02-.35.06-.69.09-1.03 0-.08.02-.17.03-.25.05-.4.11-.78.18-1.14l.06-.26c.06-.29.13-.57.21-.84.02-.08.05-.17.07-.25.1-.32.21-.62.34-.9.02-.05.05-.09.07-.13.11-.23.23-.44.37-.63.04-.06.08-.12.13-.18.16-.22.34-.42.53-.58 0 0 26.32-26.84 77.16-19.35H511.5c.05 0 .13.02.23.03.1.01.22.03.36.06.07.01.14.03.21.04.09.02.18.03.27.06.1.02.2.04.3.07.09.02.18.04.28.07.44.11.95.26 1.49.46.1.03.19.07.29.1.17.06.34.13.52.21.1.04.2.08.3.13.19.08.37.16.56.26.07.03.14.07.22.11.38.19.77.41 1.16.65a10.71 10.71 0 0 1 .81.54c.11.08.22.16.33.25.18.14.36.28.54.43.11.09.22.19.33.29.33.29.64.61.95.95.1.11.19.2.29.31.14.17.28.36.42.54.12.16.24.31.35.48.13.19.25.38.37.59.05.08.1.14.14.22h-.02c.91 1.56 1.59 3.46 1.85 5.81 1.29 11.61 2.84 20.65 0 26.32Z" style="fill:#232421;stroke-width:0"/><path d="M522.18 123.94c-47.05-7.66-74.41 5.67-82.28 13.03-4.95 4.63-6.24 14.39-6.51 21.17.45 2.62.83 4.38.83 4.38 7.23 17.55 36.9 16.52 53.16 14.45s33.81-15.23 36.65-20.9 1.29-14.71 0-26.32c-.26-2.35-.95-4.24-1.85-5.81Z" style="fill:#68694d;stroke-width:0"/><path style="fill:#5e6044;stroke-width:0" d="M433.39 158.14v-.01.01zM522.18 123.94c-.04-.07-.08-.15-.12-.22-.12-.2-.25-.4-.37-.59-.11-.17-.23-.32-.35-.48-.14-.18-.27-.37-.42-.54-.09-.11-.19-.21-.29-.31-.31-.34-.62-.66-.95-.95-.11-.1-.22-.2-.33-.29-.18-.15-.36-.29-.54-.43-.11-.08-.22-.17-.33-.25-.19-.13-.37-.26-.55-.38-.09-.06-.17-.11-.26-.16-.39-.24-.77-.46-1.16-.65-.07-.04-.14-.08-.22-.11-.19-.09-.38-.17-.56-.26-.1-.04-.2-.09-.3-.13-.18-.07-.35-.14-.52-.21-.1-.04-.19-.07-.29-.1-.55-.19-1.05-.34-1.49-.46-.09-.02-.19-.05-.28-.07-.11-.03-.21-.05-.3-.07-.1-.02-.19-.04-.27-.06-.07-.01-.15-.03-.21-.04-.14-.02-.26-.05-.36-.06-.1-.01-.17-.02-.23-.03H511.39c-50.84-7.48-77.16 19.35-77.16 19.35-.19.16-.37.36-.53.58-.04.06-.09.12-.13.18-.13.19-.25.41-.37.63-.02.05-.05.09-.07.13-.13.28-.24.58-.34.9-.03.08-.05.17-.07.25-.08.27-.15.54-.21.84l-.06.26c-.07.37-.13.75-.18 1.14l-.03.25c-.04.33-.07.68-.09 1.03 0 .12-.02.23-.02.35-.02.43-.04.87-.05 1.32V146.1c.01.41.02.83.04 1.25v.19c.02.48.06.96.09 1.44 0 .13.02.25.03.38.03.4.07.79.1 1.18 0 .1.02.2.03.3l.15 1.42c.01.1.02.2.04.31.05.39.09.77.14 1.15.01.11.03.22.04.34.06.45.12.9.19 1.33 0 .05.01.09.02.14.06.4.12.78.18 1.16.02.1.03.2.05.3.06.4.13.78.19 1.15.27-6.78 1.56-16.54 6.51-21.17 7.87-7.36 35.22-20.7 82.28-13.03Z"/><path d="M513.13 117.43c.44.11.94.26 1.49.46-.55-.19-1.05-.34-1.49-.46ZM522.2 123.94c-.04-.08-.1-.15-.14-.22.04.07.08.15.12.22h.02Z" style="fill:#5e6044;stroke-width:0"/><path d="M653.84 129.42c-.59-7.92-34.55-32.25-85.73-22.75 0 0-14.81.72-16.44 13.5-.18 1.41-.36 2.77-.54 4.08-.95 6.92-1.86 12.5-2.09 16.69-.12 2.23-.05 4.07.31 5.51 1.16 4.67 10.95 24.56 39.6 33.4 28.65 8.84 56.32-6.68 61.22-11.09 5.81-5.23 3.94-35.9 3.68-39.35Zm-10.75 22.65c-2.8 19.79-33.6 18.59-49.14 16.78-14.67-1.89-30.51-13.93-33.08-19.12-2.3-4.66-1.41-11.8-.36-20.9.12-1.04.24-2.1.36-3.19 1.19-9.77 9.42-11.26 11.41-11.57 45.89-6.85 68.9 12.32 68.9 12.32.13.2.25.41.37.64.04.07.07.15.11.22.08.17.16.34.23.52.04.09.07.18.1.27.07.19.14.38.2.58.03.09.06.18.08.27.07.24.14.48.2.74.02.06.03.12.05.18.25 1.01.44 2.13.59 3.32v.01c.05.4.09.81.13 1.22.76 7.83-.17 17.69-.17 17.69Z" style="fill:#232421;stroke-width:0"/><path d="M642.54 129.82c.25 1.01.44 2.13.59 3.32-.15-1.19-.34-2.31-.59-3.32ZM584.94 117.14c-18.82-.34-23.98 13.44-25.4 21.52.18-2.95.56-6.24.98-9.83-1.05 9.09-1.94 16.23.36 20.9 2.56 5.19 18.4 17.23 33.08 19.12 15.54 1.81 46.34 3 49.14-16.78 0 0 .93-9.86.17-17.69-24.03-18.96-32.89-16.77-58.32-17.23Z" style="fill:#68694d;stroke-width:0"/><path d="M584.94 117.14c25.44.46 34.29-1.73 58.32 17.23-.04-.41-.08-.82-.13-1.22v-.01c-.15-1.19-.34-2.31-.59-3.32-.01-.06-.03-.12-.05-.18-.06-.25-.13-.5-.2-.74-.03-.09-.06-.18-.08-.27-.06-.2-.13-.4-.2-.58-.03-.09-.07-.18-.1-.27-.07-.18-.15-.36-.23-.52-.04-.07-.07-.15-.11-.22-.12-.23-.24-.45-.37-.64 0 0-23.01-19.17-68.9-12.32-1.99.31-10.22 1.8-11.41 11.57-.12 1.09-.24 2.15-.36 3.19-.41 3.59-.8 6.88-.98 9.83 1.42-8.08 6.58-21.87 25.4-21.52Z" style="fill:#5e6044;stroke-width:0"/><path d="m390.15 183.64-.26-1.56-5.17-30.59a5.07 5.07 0 0 0-1.13-2.42c-1.23-1.47-3.26-2.23-5.31-1.78l-16.69 3.63c-2.85.62-4.65 3.33-4.05 6.1l.17.77 6.58 30.3.15.67c.61 2.81 3.47 4.6 6.37 3.98l15.24-3.23c2.77-.59 4.58-3.17 4.13-5.87Zm-15.2 1.47-5.5 1.11-6.01-28.86 15.55-4.03 5.1 29.88-9.14 1.91Z" style="fill:#4a4d4a;stroke-width:0"/><path d="M348.91 135.61c.04 1.46.08 2.9.13 4.31.99-.44 2.08-.92 3.29-1.44l-1.59-3.67c-.64.28-1.25.54-1.83.8ZM401.1 116.25c-6.89 2.17-13.81 4.48-20.55 6.89l1.34 3.77c6.7-2.39 13.56-4.69 20.41-6.84l-1.2-3.82ZM559.56 96.53l.14-4c-7.11-.24-14.4-.28-21.7-.12l.09 4c7.22-.16 14.44-.12 21.47.12ZM355.49 132.8l1.54 3.69c6.37-2.66 13.11-5.29 20.04-7.84l-1.38-3.75a521.34 521.34 0 0 0-20.2 7.9ZM532.97 96.55l-.14-4c-7.11.25-14.39.7-21.66 1.32l.35 3.99c7.2-.62 14.41-1.06 21.45-1.31ZM586.51 94.46c-7.07-.79-14.35-1.37-21.65-1.72l-.19 4c7.21.35 14.41.92 21.4 1.7l.44-3.98ZM427.91 112.68l-1.02-3.87c-6.93 1.82-13.95 3.81-20.85 5.91l1.16 3.83c6.86-2.09 13.82-4.06 20.71-5.87ZM506.43 98.34l-.39-3.98c-7.07.7-14.32 1.58-21.53 2.63l.58 3.96c7.15-1.04 14.33-1.92 21.34-2.61ZM480.02 101.71l-.62-3.95c-7.04 1.1-14.22 2.39-21.34 3.82l.79 3.92c7.07-1.42 14.2-2.69 21.17-3.79ZM453.83 106.53l-.83-3.91a543.31 543.31 0 0 0-21.12 4.9l.98 3.88c6.98-1.77 14.04-3.4 20.96-4.87ZM613.09 98.55c-6.99-1.38-14.2-2.55-21.45-3.47l-.51 3.97c7.15.91 14.28 2.06 21.17 3.43l.78-3.92ZM618.86 99.76c-.25-.05-.5-.12-.75-.17l-.84 3.91c1.58.34 3.16.7 4.74 1.07-.94-1.7-1.99-3.3-3.14-4.81ZM402.27 203.48c.35 2.95.72 5.85 1.11 8.72l4.04.06c-.42-3.03-.81-6.12-1.18-9.24l-3.97.46ZM403.87 177.21l-3.99.28c.5 7.17 1.12 14.24 1.84 21l3.98-.43c-.72-6.71-1.33-13.73-1.83-20.85ZM402.6 151.31l-4 .12c.2 7.04.52 14.13.94 21.05l3.99-.24c-.42-6.88-.74-13.92-.94-20.92ZM402.34 133.73c0-5.23.08-8.29.08-8.32l-4-.11s-.08 3.14-.08 8.43c0 4.07.05 8.34.14 12.68l4-.08c-.09-4.31-.14-8.55-.14-12.59ZM618.46 223.65l.95 3.89c6.83-1.67 13.7-2.96 20.41-3.85l-.53-3.97c-6.86.91-13.87 2.23-20.84 3.93ZM670.39 222.34c6.93.33 13.86 1.11 20.59 2.32l.71-3.94c-6.9-1.24-14-2.04-21.11-2.38l-.19 4ZM644.32 219.13l.42 3.98c6.96-.73 13.98-1.04 20.72-.92l.07-4c-6.91-.12-14.09.2-21.21.94ZM696.34 223.18l-.52 2.43c1.59.34 3.18.71 4.76 1.1-1.11-1.09-2.55-2.28-4.24-3.53ZM438.74 214.38c-1.09-.07-2.16-.15-3.2-.22.77.5 1.55 1.01 2.37 1.53l.83-1.31Z" style="fill:#7b755a;stroke-width:0"/><path d="M440.05 212.31c-3.53-2.23-6.52-4.31-8.96-6.11-1.66.52-3.22 1.02-4.66 1.5 2.34 1.8 5.39 4.02 9.11 6.47 1.04.07 2.11.15 3.2.22l1.31-2.07ZM568.34 236.78l.66 3.95c6.84-1.14 13.8-2.66 20.7-4.5l-1.03-3.86c-6.77 1.81-13.61 3.3-20.33 4.42ZM535.76 239.53c-6.25 0-12.54-.32-18.69-.94l-.4 3.98c6.29.64 12.71.96 19.09.96h.01c.69 0 1.38 0 2.08-.01l-.04-4c-.69 0-1.35.02-2.05.01ZM542.76 239.4l.15 4c6.97-.26 14.07-.89 21.11-1.9l-.56-3.96c-6.91.98-13.87 1.61-20.7 1.86ZM601.6 228.49c-2.71.89-5.45 1.75-8.16 2.53l1.12 3.84c2.75-.8 5.54-1.67 8.29-2.58 3.92-1.29 7.87-2.48 11.76-3.52l-1.04-3.86a225.54 225.54 0 0 0-11.97 3.59ZM442.24 218.33a177.78 177.78 0 0 0 18.91 9.67l1.61-3.66c-6.38-2.8-12.6-5.98-18.48-9.45l-2.03 3.45ZM465.81 229.97a186.31 186.31 0 0 0 20.09 6.84l1.07-3.86c-6.66-1.84-13.27-4.09-19.65-6.69l-1.51 3.71ZM490.79 238.09c6.83 1.69 13.85 3 20.85 3.9l.51-3.97a182.33 182.33 0 0 1-20.4-3.82l-.96 3.88Z" style="fill:#7b755a;stroke-width:0"/><path d="M451.09 175.77c7.41 2.1 16.07 2.48 23.89 2.18l7.66-61.59c-9.34.98-17.36 3.09-24.03 5.6l-7.52 53.8ZM575.92 162.36c5.4 3.05 11.62 5.59 17.67 6.44l-4.36-55.79c-4.26.08-8.79.33-13.6.76.1 10.46.3 32.82.29 48.6Z" style="fill:#7b7952;opacity:.5;stroke-width:0"/></g></svg>