<svg id="sheep-knitted" xmlns="http://www.w3.org/2000/svg" viewBox="0 0 1000 1000"><g id="right-leg"><rect x="414.91" y="595.42" width="63.33" height="148.71" rx="31.67" ry="31.67" style="fill:#e4dcb2"/><path d="M414.91 701.77v10.69c0 17.49 14.18 31.67 31.67 31.67 17.49 0 31.67-14.18 31.67-31.67v-10.69h-63.33Z" style="fill:#8aa0da"/></g><g id="left-leg"><rect x="519.53" y="595.42" width="63.33" height="148.71" rx="31.67" ry="31.67" style="fill:#e4dcb2"/><path d="M519.53 701.77v10.69c0 17.49 14.18 31.67 31.67 31.67 17.49 0 31.67-14.18 31.67-31.67v-10.69h-63.33Z" style="fill:#8aa0da"/></g><rect id="left-hand-upper" x="536.71" y="413.44" width="137.33" height="53.98" rx="26.99" ry="26.99" transform="rotate(21.99 605.412 440.454)" style="fill:#e4dcb2"/><rect id="right-hand-upper" x="314.45" y="419.45" width="143.04" height="53.98" rx="26.99" ry="26.99" transform="rotate(-26.04 385.91 446.413)" style="fill:#e4dcb2"/><g id="body"><path d="M581.26 633.1c-9.09 25.92-141.48 17.24-141.48 17.24-15.28 0-27.67-12.39-27.67-27.67V391.8h160.87s21.11 174.23 8.28 241.3Z" style="fill:#e4dcb2"/><rect x="462.34" y="426" width="88.45" height="194.27" rx="27.31" ry="27.31" style="fill:#f1e9c5"/><path d="M582.71 505.04v-.05l-.08-8.99-7.21.07.08 8.99-7.2.07.08 8.99-7.21.07v.03l7.2-.07.08 8.99-7.2.07-7.2.07.08 8.99v.05l.08 8.94-7.2.07v.05l7.21-.07.08 8.85 7.2-.07v-.05l7.2-.07.08 8.99-7.2.07v.08l7.21-.07.08 8.99 7.2-.07.08 8.99 7.21-.07-.08-8.99v-.05l2.21-.02c-.12-20.19-1.02-41.83-2.29-62.78h-.51Z" style="fill:#89a0d9"/><path style="fill:#89a0d9" d="m575.83 541.01.08 8.86-7.2.07-.09-8.99 7.21-.07-.09-8.8-7.2.07-.08-8.99 7.2-.07.08 8.94 7.21-.07.08 8.99-7.2.06z"/><path style="fill:#62c47e" d="m546.93 532.32-.08-8.94-7.2.07v-.03l-.08-8.99h-.01l.08 8.91-7.2.07-.09-8.99h.01l-.09-8.91-7.2.06v-.05l-.08-8.99-7.21.07.08 8.99-7.2.07.09 8.99-7.21.06v.03l7.2-.07.08 8.99-7.2.07-7.2.07.08 8.99v.05l.08 8.94-7.2.07v.05l7.21-.07.08 8.85 7.2-.07v-.04l7.2-.07.09 8.99-7.21.06v.08l7.21-.06.09 8.99 7.2-.07.08 8.99 7.21-.07-.08-8.99v-.05l7.2-.06-.09-8.97-.08-8.99 7.2-.07.08 8.97h.01l-.08-8.99v-.03l7.2-.07-.08-8.8h-.01l-.08-8.99 7.2-.06v-.05l-7.2.06z"/><path transform="rotate(-.53 530.515 530.015)" style="fill:#62c47e" d="M525.27 523.47h7.2v8.99h-7.2z"/><path style="fill:#62c47e" d="m525.48 550.39-.08-8.86-7.21.07.09 8.8-7.21.07-.08-8.99 7.2-.07-.08-8.8-7.2.07-.09-8.99 7.21-.07.08 8.94 7.21-.07v.06l.08 8.85 7.2-.07.09 8.99-7.21.07zM547.01 541.36h.01v-.05l7.2-.06-.09-8.94-7.2.06.08 8.99zM416.68 560.39l.82-.01-.08-8.96 6.39-.06v-.05l7.2-.07-.08-8.85.82-.01-.09-8.94 6.38-.06v-.05l-7.2.07-.08-8.94-7.2.07v-.11l-6.39.06-.08-8.91h-.82l-.09-8.99-3.95.04v17.93l4.94-.04.08 8.99-5.02.04v8.91l5.11-.05.08 8.99-5.19.05v17.98l4.54-.04-.09-8.99z"/><path style="fill:#89a0d9" d="m489.3 532.91 7.2-.07v-.05l-7.2.07-.08-8.94-7.2.06v-.03l-.09-8.98h-.01l.09 8.91-7.21.06-.08-8.98-.08-8.92-7.2.07v-.05l-.08-8.99-7.21.07.08 8.99-7.2.06.08 8.99-7.21.07v.02l7.21-.06.08 8.99-7.2.06v.01l-7.2.07.08 8.99v.05h-.83l.09 8.94-6.38.06v.05l7.21-.06.08 8.84 7.2-.06v-.05l7.2-.07.08 8.99-7.2.07v.08l7.21-.07.08 8.99 7.2-.07.09 8.99 7.21-.06-.09-8.99v-.05l7.2-.07-.08-8.97-.09-8.98 7.21-.07.08 8.96h.01l-.08-8.99v-.03l7.19-.06-.08-8.8-.08-8.99z"/><path style="fill:#89a0d9" d="m467.85 550.92-.08-8.85-7.21.07v-.06l.08 8.86-7.2.06-.08-8.98 7.2-.07-.08-8.8-7.21.06-.08-8.98 7.21-.07.08 8.94 7.2-.07-.08-8.99 7.2-.07.09 8.99-7.21.07v.05l.08 8.85 7.21-.06.08 8.99-7.2.06zM496.58 541.78l-.08-8.94-7.2.07.08 8.99v-.05l7.2-.07z"/><path transform="rotate(-.53 436.42 539.31)" style="fill:#89a0d9" d="M431.7 533.41h6.38v8.94h-6.38z"/><path style="fill:#354573" d="m417.42 551.39-.08-8.99-5.11.05v8.99l5.19-.05zM417.5 560.38v.03l7.21-.07-.09-8.99-.81.01.08 8.97-6.39.05z"/><path transform="rotate(-.53 422.28 557.622)" style="fill:#354573" d="M417.46 551.39h6.39v8.96h-6.39z"/><path transform="rotate(-.53 429.808 566.305)" style="fill:#354573" d="M424.75 560.31h7.2v8.99h-7.2z"/><path transform="rotate(-.53 437.33 576.07)" style="fill:#354573" d="M432.04 569.23h7.2v8.99h-7.2z"/><path style="fill:#354573" d="m446.24 551.15.08 8.94-.08-8.91v-.03z"/><path style="fill:#354573" d="m453.44 551.03-7.2.07v.08l.08 8.91 7.2-.07-.08-8.99z"/><path transform="rotate(-.53 443.861 566.37)" style="fill:#354573" d="M439.16 560.12h7.2v8.99h-7.2z"/><path style="fill:#354573" d="m417.25 533.5-.08-8.99-4.94.04v8.99l5.02-.04zM424.29 515.42l-7.2.07v.08l6.39-.06.08 8.91.81-.01-.08-8.99z"/><path transform="rotate(-.53 421.365 521.943)" style="fill:#354573" d="M417.13 515.54h6.39v8.91h-6.39z"/><path transform="rotate(-.53 428.972 513.33)" style="fill:#354573" d="M424.25 506.4h7.2v8.99h-7.2z"/><path transform="rotate(-.53 436.584 503.635)" style="fill:#354573" d="M431.37 497.35h7.2v8.99h-7.2z"/><path style="fill:#354573" d="m445.9 515.27.09 8.99v-.02l-.09-8.97z"/><path style="fill:#354573" d="m453.11 515.21-7.21.06.09 8.97v.02l7.2-.06-.08-8.99z"/><path transform="rotate(-.53 444.111 512.318)" style="fill:#354573" d="M438.66 506.32h7.2v8.99h-7.2z"/><path style="fill:#354573" d="m467.76 541.93-.08-8.85v-.05l-7.2.07-.08-8.94-7.21.07.08 8.98 7.21-.06.08 8.8-7.2.07.08 8.98 7.2-.06-.08-8.86v.06l7.21-.07.08 8.85 7.2-.06-.08-8.99-7.21.06z"/><path transform="rotate(-.53 480.637 562.216)" style="fill:#354573" d="M475.14 559.82h7.2v.02h-7.2z"/><path style="fill:#354573" d="m475.05 550.89.09 8.98v-.02l7.2-.07-.08-8.96-7.21.07z"/><path transform="rotate(-.53 488.184 566.575)" style="fill:#354573" d="M482.38 559.77h7.2v8.99h-7.2z"/><path transform="rotate(-.53 494.63 575.254)" style="fill:#354573" d="M489.67 568.7h7.2v8.99h-7.2z"/><path style="fill:#354573" d="m503.87 550.61.08 8.94-.08-8.91v-.03z"/><path style="fill:#354573" d="m511.07 550.5-7.2.07v.07l.08 8.91 7.21-.06-.09-8.99z"/><path transform="rotate(-.53 502.243 565.56)" style="fill:#354573" d="M496.79 559.59h7.2v8.99h-7.2z"/><path transform="rotate(-.53 472.139 529.745)" style="fill:#354573" d="M467.64 524.01h7.2V533h-7.2z"/><path transform="rotate(-.54 482.453 519.004)" style="fill:#354573" d="M474.72 514.92h7.2v.08h-7.2z"/><path style="fill:#354573" d="m474.8 523.94 7.21-.06-.09-8.91-7.2.06v-.07l.08 8.98z"/><path transform="rotate(-.53 487.358 511.437)" style="fill:#354573" d="M481.88 505.87h7.2v8.99h-7.2z"/><path transform="rotate(-.53 494.966 502.824)" style="fill:#354573" d="M489 496.81h7.2v8.99H489z"/><path style="fill:#354573" d="m503.54 514.74.08 8.99v-.03l-.08-8.96z"/><path style="fill:#354573" d="m510.74 514.67-7.2.07.08 8.96v.03l7.2-.07-.08-8.99z"/><path transform="rotate(-.53 501.412 511.502)" style="fill:#354573" d="M496.29 505.78h7.2v8.99h-7.2z"/><path style="fill:#354573" d="m525.4 541.4-.08-8.85v-.06l-7.21.07-.08-8.94-7.21.07.09 8.99 7.2-.07.08 8.8-7.2.07.08 8.99 7.21-.07-.09-8.8 7.21-.07.08 8.86 7.21-.07-.09-8.99-7.2.07z"/><path transform="rotate(-.53 537.937 561.4)" style="fill:#354573" d="M532.77 559.28h7.2v.02h-7.2z"/><path style="fill:#354573" d="m532.69 550.35.08 8.99v-.02l7.2-.07-.08-8.97-7.2.07z"/><path transform="rotate(-.53 545.485 565.76)" style="fill:#354573" d="M540.01 559.24h7.2v8.99h-7.2z"/><path transform="rotate(-.53 553.012 574.443)" style="fill:#354573" d="M547.3 568.16h7.2v8.99h-7.2z"/><path style="fill:#354573" d="m575.74 532.03-.08-8.94-7.2.07.08 8.99 7.2-.07.09 8.8-7.21.07.09 8.99 7.2-.07-.08-8.86 7.2-.06-.08-8.99-7.21.07zM561.59 559.02l-.09-8.91v-.03l.08 8.94h.01z"/><path style="fill:#354573" d="m561.5 550.11.09 8.91 7.2-.07-.08-8.99-7.21.07v.08z"/><path transform="rotate(-.53 560.62 565.83)" style="fill:#354573" d="M554.42 559.05h7.2v8.99h-7.2z"/><path transform="rotate(-.53 530.515 530.015)" style="fill:#354573" d="M525.27 523.47h7.2v8.99h-7.2z"/><path transform="rotate(-.54 540.815 518.218)" style="fill:#354573" d="M532.36 514.39h7.2v.08h-7.2z"/><path style="fill:#354573" d="m532.44 523.41 7.2-.07-.08-8.91-7.2.07v-.08h-.01l.09 8.99z"/><path transform="rotate(-.53 544.654 511.702)" style="fill:#354573" d="M539.51 505.33h7.2v8.99h-7.2z"/><path transform="rotate(-.53 552.266 502.008)" style="fill:#354573" d="M546.64 496.28h7.2v8.99h-7.2z"/><path style="fill:#354573" d="M561.25 523.19v-.02l-.08-8.96.08 8.98z"/><path style="fill:#354573" d="m561.25 523.19 7.21-.06-.09-8.99-7.2.07.08 8.96v.02z"/><path transform="rotate(-.53 558.712 510.686)" style="fill:#354573" d="M553.92 505.25h7.2v8.99h-7.2z"/><path transform="rotate(-.53 418.887 590.038)" style="fill:#314573" d="M416.24 587.06h7.2v9h-7.2z"/><path transform="rotate(-.53 438.316 596.615)" style="fill:#314573" d="M430.94 586.92h7.2v9h-7.2z"/><path transform="rotate(-.53 448.08 589.092)" style="fill:#314573" d="M445.64 586.79h7.2v9h-7.2z"/><path transform="rotate(-.53 462.134 589.157)" style="fill:#314573" d="M460.34 586.65h7.2v9h-7.2z"/><path transform="rotate(-.53 482.644 595.739)" style="fill:#314573" d="M475.04 586.51h7.2v9h-7.2z"/><path transform="rotate(-.53 492.403 589.297)" style="fill:#314573" d="M489.74 586.38h7.2v9h-7.2z"/><path transform="rotate(-.53 506.457 589.362)" style="fill:#314573" d="M504.44 586.24h7.2v9h-7.2z"/><path transform="rotate(-.53 526.967 595.944)" style="fill:#314573" d="M519.14 586.1h7.2v9h-7.2z"/><path transform="rotate(-.53 542.102 596.014)" style="fill:#314573" d="M533.83 585.97h7.2v9h-7.2z"/><path transform="rotate(-.52 554.848 593.113)" style="fill:#314573" d="M548.53 585.83h7.2v9h-7.2z"/><path transform="rotate(-.53 571.295 595.068)" style="fill:#314573" d="M563.23 585.69h7.2v9h-7.2z"/><path d="M585.17 594.52v-.97c-.02.32-.03.65-.04.97h.04Z" style="fill:#314573"/><path d="m577.89 585.59.08 9 7.16-.07.03-.97-.07-8.03-7.2.07Z" style="fill:#314573"/><path transform="rotate(-1.71 415.338 485.075)" style="fill:#314573" d="M412.55 481.78h7.2v9h-7.2z"/><path transform="rotate(-1.7 431.661 486.748)" style="fill:#314573" d="M427.25 481.34h7.2v9h-7.2z"/><path transform="rotate(-1.7 446.5 486.294)" style="fill:#314573" d="M441.94 480.91h7.2v9h-7.2z"/><path transform="rotate(-1.7 461.338 485.84)" style="fill:#314573" d="M456.64 480.47h7.2v9h-7.2z"/><path transform="rotate(-1.7 475.834 485.718)" style="fill:#314573" d="M471.33 480.03h7.2v9h-7.2z"/><path transform="rotate(-1.7 490.673 485.264)" style="fill:#314573" d="M486.02 479.59h7.2v9h-7.2z"/><path transform="rotate(-1.7 505.511 484.81)" style="fill:#314573" d="M500.72 479.16h7.2v9h-7.2z"/><path transform="rotate(-1.7 520.013 484.351)" style="fill:#314573" d="M515.41 478.72h7.2v9h-7.2z"/><path transform="rotate(-1.7 534.85 483.897)" style="fill:#314573" d="M530.1 478.28h7.2v9h-7.2z"/><path transform="rotate(-1.7 549.69 483.443)" style="fill:#314573" d="M544.8 477.85h7.2v9h-7.2z"/><path transform="rotate(-1.7 564.19 482.984)" style="fill:#314573" d="M559.49 477.41h7.2v9h-7.2z"/><path transform="rotate(-1.7 579.03 482.53)" style="fill:#314573" d="M574.18 476.97h7.2v9h-7.2z"/></g><g id="clock"><rect id="clock-base" x="309.84" y="478.22" width="365.82" height="110.73" rx="30.44" ry="30.44" transform="rotate(-2.44 492.94 533.832)" style="opacity:.7"/><text id="clock-text" transform="rotate(-3 10978.207 -5950.493)" style="fill:#42c17f;font-family:Rubik-Bold,Rubik;font-size:71.15px"><tspan x="0" y="0">00:00</tspan><tspan x="215.66" y="0" style="letter-spacing:-.02em"> </tspan><tspan x="228.82" y="0">AM</tspan></text></g><g id="right-ear"><path d="M308.66 233.84s-8.52 5.19-21.79 5.77-33.5-2.14-33.5-2.14-19.25-2.06-10.25 23.66c8.99 25.73 34.59 31.98 34.59 31.98s21.49 8.23 37.85-3.19l-6.89-56.08Z" style="fill:#dac09b"/><path d="m312.64 266.27-3.99-32.43s-8.52 5.19-21.79 5.77c-13.27.57-33.5-2.14-33.5-2.14s-19.25-2.06-10.25 23.66c1.69 4.84 3.97 8.99 6.56 12.54 11.2 2.06 25.12 3.53 33.25 4.54 12.68 1.58 28.51-5.49 28.51-5.49l1.22-6.45Z" style="fill:#faf5dd"/></g><g id="left-ear"><path d="M680.16 214.07s8.85 4.62 22.13 4.31c13.28-.31 33.28-4.35 33.28-4.35s19.07-3.33 11.8 22.93c-7.27 26.26-32.39 34.2-32.39 34.2s-20.89 9.64-37.98-.68l3.17-56.41Z" style="fill:#dac09b"/><path d="m678.32 246.69 1.83-32.62s8.85 4.62 22.13 4.31c13.28-.31 33.28-4.35 33.28-4.35s19.07-3.33 11.8 22.93a48.368 48.368 0 0 1-5.71 12.94c-11.04 2.8-24.83 5.18-32.87 6.73-12.55 2.41-28.81-3.59-28.81-3.59l-1.64-6.36Z" style="fill:#faf5dd"/></g><path d="M701.3 248.19c.76-17.79-3.62-33.81-11.03-44.19-.54-.76-.71-1.7-.48-2.6 3.31-12.73 1.74-30.03-5.33-47.35-9.33-22.87-25.5-39.03-40.13-41.93-1.11-.22-2-1.03-2.31-2.12-3.85-13.46-17.05-28.98-36-40.51-20.37-12.39-41.79-16.77-55.52-12.61l-3.52-.71c-10.45-8.75-28.44-14.86-49.06-15.51-23.54-.74-44.11 5.82-54.14 15.99-.37.38-.83.66-1.35.8h-.02c-.51.15-1.04.15-1.56.02-14.81-3.67-36.99 1.6-57.83 15.09-20.12 13.03-33.75 30.34-37.1 45.03l-2.77 3.26c-12.85 5.18-26.25 19.08-34.99 38-9.66 20.92-10.95 42.2-4.63 55.22.46.95.38 2.07-.21 2.95-7.88 11.72-10.57 31.72-5.88 53 4.27 19.37 13.64 35.2 24.4 43.41.74.57 1.19 1.45 1.19 2.38.13 13.61 7.41 30.74 20.68 45.78 15.4 17.46 34.6 27.24 49.12 26.49 1.01-.05 1.95.45 2.55 1.26 7.8 10.57 21.76 20.52 39.16 26.75 23.75 8.49 46.97 7.56 59.22-1.09.54-.38 1.18-.59 1.84-.58l1.79.03c.39 0 .77.09 1.13.24 14.05 5.96 36.91 5.77 60.82-1.76 21.56-6.79 38.99-17.98 48.15-29.6.2-.26.44-.47.71-.65.55-.35 1.09-.71 1.63-1.07.39-.26.82-.41 1.28-.47 13.97-1.76 31.01-11.89 45.01-28.17 14.87-17.28 22.39-36.91 20.98-51.26-.05-.5.02-.99.21-1.45.1-.23.19-.46.29-.69.24-.59.67-1.08 1.21-1.42 12.26-7.75 21.48-27.03 22.45-49.95Z" style="fill:#e4dcb2"/><g id="head"><path d="M647.49 256.46c-4.11 1.51-8.39 1.76-12.44.45-9.01-2.92-14.41-12.71-14.55-24.33-8.32 9.93-22.13 14.36-35.21 10.13-11.56-3.74-19.6-13.31-21.96-24.4-4.94 14.06-22.7 24.9-44.23 25.65-21.05.74-39.19-8.39-45.51-21.6-1.53 10.15-7.69 20.18-17.66 26.95-16.96 11.52-38.65 9.33-49.13-4.72-.23 1.27-.51 2.55-.86 3.83-4.47 16.35-17.44 27.19-29.52 25.06-.26 1.2-.52 2.42-.75 3.67-11.52 61.75 65.5 115.91 144.26 111.09 77.42-4.73 136.47-48.45 128.23-126.56-.19-1.8-.42-3.54-.69-5.22Z" style="fill:#f9f5de"/><circle cx="468.06" cy="311.84" r="21.97" style="fill:#2d2927"/><circle cx="468.98" cy="311.41" r="21.97" style="fill:#5a595a"/><circle cx="460.82" cy="305.09" r="3.74" style="fill:#2d282d"/><circle cx="476.15" cy="302.91" r="3.74" style="fill:#2d282d"/><circle cx="462.6" cy="320.11" r="3.74" style="fill:#2d282d"/><circle cx="478.22" cy="318" r="3.74" style="fill:#2d282d"/><ellipse cx="608.34" cy="304.29" rx="20.23" ry="21.97" style="fill:#2d2927"/><ellipse cx="607.5" cy="304.73" rx="20.23" ry="21.97" style="fill:#5a595a"/><ellipse cx="615.01" cy="311.04" rx="3.45" ry="3.74" style="fill:#2d282d"/><ellipse cx="600.88" cy="313.23" rx="3.45" ry="3.74" style="fill:#2d282d"/><ellipse cx="613.37" cy="296.02" rx="3.45" ry="3.74" style="fill:#2d282d"/><ellipse cx="598.98" cy="298.13" rx="3.45" ry="3.74" style="fill:#2d282d"/><path d="M558.12 388.66c-.21 0-.43-.03-.64-.08a2.494 2.494 0 0 1-1.77-3.06c1.23-4.64 2.06-10.87 2.47-18.53a2.502 2.502 0 0 1 2.63-2.36 2.49 2.49 0 0 1 2.36 2.63c-.43 8-1.31 14.57-2.63 19.54a2.504 2.504 0 0 1-2.41 1.86Zm2.85-31.03a2.5 2.5 0 0 1-2.5-2.5c0-7.21-.29-15.22-.85-23.83-.09-1.38.95-2.57 2.33-2.66 1.35-.08 2.57.95 2.66 2.33.57 8.71.86 16.84.86 24.15a2.5 2.5 0 0 1-2.5 2.5Zm-1.79-35.96c-1.28 0-2.37-.98-2.49-2.28-.69-7.68-1.56-15.68-2.61-23.77a2.5 2.5 0 1 1 4.96-.64 620.61 620.61 0 0 1 2.63 23.96c.12 1.38-.89 2.59-2.27 2.71h-.23Zm-4.26-35.75c-1.22 0-2.29-.89-2.47-2.14-1.16-7.9-2.48-15.84-3.91-23.6-.25-1.36.65-2.66 2.01-2.91 1.36-.25 2.66.65 2.91 2.01 1.44 7.82 2.77 15.82 3.94 23.78.2 1.37-.74 2.64-2.11 2.84-.12.02-.25.03-.37.03Zm-6.21-35.47a2.51 2.51 0 0 1-2.45-2c-1.66-8.11-3.43-15.95-5.28-23.3-.34-1.34.48-2.7 1.82-3.03 1.33-.34 2.7.48 3.03 1.81 1.87 7.42 3.66 15.34 5.33 23.52a2.503 2.503 0 0 1-2.45 3Z" style="fill:#c3b996"/><path d="M577.85 319.04a3.505 3.505 0 0 0-4.93-.48l-12.02 9.88-18.45-7.85c-1.78-.76-3.83.07-4.59 1.85s.07 3.83 1.85 4.59l18.23 7.76-.47 21.53a3.5 3.5 0 0 0 3.17 3.56c.08 0 .17.01.25.01 1.93.04 3.53-1.49 3.58-3.42l.49-22.29 12.41-10.21a3.505 3.505 0 0 0 .48-4.93Z" style="fill:#201d1d"/><path d="M690.28 203.99c-.54-.76-.71-1.7-.48-2.6 3.31-12.73 1.74-30.03-5.33-47.35-9.33-22.87-25.5-39.03-40.13-41.92-1.11-.22-2-1.03-2.31-2.12-3.85-13.46-17.05-28.98-36-40.51-20.37-12.39-41.79-16.77-55.52-12.61-1.1-.22-2.42-.49-3.52-.71-10.45-8.75-28.44-14.86-49.06-15.51-23.54-.74-44.11 5.82-54.14 15.99-.37.38-.83.66-1.35.8h-.02c-.51.15-1.04.15-1.56.02-14.81-3.67-36.99 1.6-57.83 15.09-20.12 13.03-33.75 30.34-37.1 45.03l-2.77 3.26c-12.85 5.18-26.25 19.08-34.99 38-9.66 20.92-10.95 42.2-4.63 55.22.46.95.38 2.07-.21 2.95-7.88 11.72-10.57 31.72-5.88 53 4.27 19.37 13.64 35.2 24.4 43.41.74.57 1.19 1.45 1.19 2.38.13 13.61 7.41 30.74 20.68 45.78 15.4 17.46 34.6 27.24 49.12 26.49 1.01-.05 1.95.45 2.55 1.26 7.8 10.57 21.76 20.52 39.16 26.75 23.75 8.49 46.97 7.56 59.22-1.09.54-.38 1.18-.59 1.84-.58l1.79.03c.39 0 .77.09 1.13.24 14.05 5.96 36.91 5.77 60.82-1.76 21.56-6.79 38.99-17.98 48.15-29.6.2-.26.44-.47.71-.65.55-.35 1.09-.71 1.63-1.07.39-.26.82-.41 1.28-.47 13.97-1.76 31.01-11.89 45.01-28.17 14.87-17.28 22.39-36.91 20.98-51.27-.05-.5.02-.99.21-1.45.1-.23.19-.46.29-.69.24-.59.67-1.08 1.21-1.42 12.26-7.75 21.48-27.03 22.45-49.95.76-17.79-3.62-33.81-11.03-44.19ZM519.95 388.24c-78.76 4.82-155.79-49.34-144.26-111.09.23-1.25.49-2.47.75-3.67 12.08 2.13 25.05-8.71 29.52-25.06.35-1.28.63-2.56.86-3.83 10.48 14.05 32.16 16.24 49.13 4.72 9.97-6.77 16.13-16.8 17.66-26.95 6.32 13.2 24.46 22.33 45.51 21.6 21.53-.75 39.28-11.59 44.23-25.65 2.36 11.09 10.4 20.65 21.96 24.4 13.08 4.24 26.89-.2 35.21-10.13.14 11.62 5.55 21.41 14.55 24.33 4.05 1.31 8.33 1.06 12.44-.45.26 1.69.5 3.42.69 5.22 8.24 78.12-50.81 121.83-128.23 126.56Z" style="fill:#e4dcb2"/></g><g id="right-hand-lower"><rect x="607.45" y="462.68" width="143.04" height="53.98" rx="26.99" ry="26.99" transform="rotate(-135 678.965 489.664)" style="fill:#e4dcb2"/><path d="M729.54 540.24c10.54-10.54 10.54-27.63 0-38.17l-2.32-2.32-40.3 36.04 4.45 4.45c10.54 10.54 27.63 10.54 38.17 0Z" style="fill:#8aa0da"/></g><g id="left-hand-lower"><rect x="242.8" y="474.04" width="143.04" height="53.98" rx="26.99" ry="26.99" transform="rotate(-50.52 314.283 501.005)" style="fill:#e4dcb2"/><path d="M268.84 556.23c11.5 9.48 28.51 7.83 37.99-3.67l2.09-2.53-39.75-36.65-4 4.86c-9.48 11.5-7.84 28.51 3.67 37.99Z" style="fill:#8aa0da"/></g></svg>