<svg id="sheep" xmlns="http://www.w3.org/2000/svg" viewBox="0 0 1000 1000"><g id="right-leg"><rect x="414.91" y="595.42" width="63.33" height="148.71" rx="31.67" ry="31.67" style="fill:#fff"/><path d="M414.91 701.77v10.69c0 17.49 14.18 31.67 31.67 31.67 17.49 0 31.67-14.18 31.67-31.67v-10.69h-63.33Z" style="fill:#81613c"/></g><g id="left-leg"><rect x="519.53" y="595.42" width="63.33" height="148.71" rx="31.67" ry="31.67" style="fill:#fff"/><path d="M519.53 701.77v10.69c0 17.49 14.18 31.67 31.67 31.67 17.49 0 31.67-14.18 31.67-31.67v-10.69h-63.33Z" style="fill:#81613c"/></g><rect id="left-hand-upper" x="536.71" y="413.44" width="137.33" height="53.98" rx="26.99" ry="26.99" transform="rotate(21.99 605.412 440.454)" style="fill:#fff"/><rect id="right-hand-upper" x="314.45" y="419.45" width="143.04" height="53.98" rx="26.99" ry="26.99" transform="rotate(-26.04 385.91 446.413)" style="fill:#fff"/><g id="body"><path d="M581.26 633.1c-9.09 25.92-141.48 17.24-141.48 17.24-15.28 0-27.67-12.39-27.67-27.67V391.8h160.87s21.11 174.23 8.28 241.3Z" style="fill:#fff"/><rect x="462.34" y="426" width="88.45" height="194.27" rx="27.31" ry="27.31" style="fill:#f7e5d6"/></g><g id="clock"><rect id="clock-base" x="309.84" y="478.22" width="365.82" height="110.73" rx="30.44" ry="30.44" transform="rotate(-2.44 492.94 533.832)" style="opacity:.7"/><text id="clock-text" transform="rotate(-3 10978.207 -5950.493)" style="fill:#42c17f;font-family:Rubik-Bold,Rubik;font-size:71.15px"><tspan x="0" y="0">00:00</tspan><tspan x="215.66" y="0" style="letter-spacing:-.02em"> </tspan><tspan x="228.82" y="0">AM</tspan></text></g><g id="right-ear"><path d="M308.66 233.84s-8.52 5.19-21.79 5.77-33.5-2.14-33.5-2.14-19.25-2.06-10.25 23.66c8.99 25.73 34.59 31.98 34.59 31.98s21.49 8.23 37.85-3.19l-6.89-56.08Z" style="fill:#e49a5d"/><path d="m312.64 266.27-3.99-32.43s-8.52 5.19-21.79 5.77c-13.27.57-33.5-2.14-33.5-2.14s-19.25-2.06-10.25 23.66c1.69 4.84 3.97 8.99 6.56 12.54 11.2 2.06 25.12 3.53 33.25 4.54 12.68 1.58 28.51-5.49 28.51-5.49l1.22-6.45Z" style="fill:#f4cb8e"/></g><g id="left-ear"><path d="M680.16 214.07s8.85 4.62 22.13 4.31c13.28-.31 33.28-4.35 33.28-4.35s19.07-3.33 11.8 22.93c-7.27 26.26-32.39 34.2-32.39 34.2s-20.89 9.64-37.98-.68l3.17-56.41Z" style="fill:#e49a5d"/><path d="m678.32 246.69 1.83-32.62s8.85 4.62 22.13 4.31c13.28-.31 33.28-4.35 33.28-4.35s19.07-3.33 11.8 22.93a48.368 48.368 0 0 1-5.71 12.94c-11.04 2.8-24.83 5.18-32.87 6.73-12.55 2.41-28.81-3.59-28.81-3.59l-1.64-6.36Z" style="fill:#f4cb8e"/></g><g id="head"><path d="M701.3 248.19c.76-17.79-3.62-33.81-11.03-44.19-.54-.76-.71-1.7-.48-2.6 3.31-12.73 1.74-30.03-5.33-47.35-9.33-22.87-25.5-39.03-40.13-41.93-1.11-.22-2-1.03-2.31-2.12-3.85-13.46-17.05-28.98-36-40.51-20.37-12.39-41.79-16.77-55.52-12.61l-3.52-.71c-10.45-8.75-28.44-14.86-49.06-15.51-23.54-.74-44.11 5.82-54.14 15.99-.37.38-.83.66-1.35.8h-.02c-.51.15-1.04.15-1.56.02-14.81-3.67-36.99 1.6-57.83 15.09-20.12 13.03-33.75 30.34-37.1 45.03l-2.77 3.26c-12.85 5.18-26.25 19.08-34.99 38-9.66 20.92-10.95 42.2-4.63 55.22.46.95.38 2.07-.21 2.95-7.88 11.72-10.57 31.72-5.88 53 4.27 19.37 13.64 35.2 24.4 43.41.74.57 1.19 1.45 1.19 2.38.13 13.61 7.41 30.74 20.68 45.78 15.4 17.46 34.6 27.24 49.12 26.49 1.01-.05 1.95.45 2.55 1.26 7.8 10.57 21.76 20.52 39.16 26.75 23.75 8.49 46.97 7.56 59.22-1.09.54-.38 1.18-.59 1.84-.58l1.79.03c.39 0 .77.09 1.13.24 14.05 5.96 36.91 5.77 60.82-1.76 21.56-6.79 38.99-17.98 48.15-29.6.2-.26.44-.47.71-.65.55-.35 1.09-.71 1.63-1.07.39-.26.82-.41 1.28-.47 13.97-1.76 31.01-11.89 45.01-28.17 14.87-17.28 22.39-36.91 20.98-51.26-.05-.5.02-.99.21-1.45.1-.23.19-.46.29-.69.24-.59.67-1.08 1.21-1.42 12.26-7.75 21.48-27.03 22.45-49.95Z" style="fill:#fff"/><path d="M647.49 256.46c-4.11 1.51-8.39 1.76-12.44.45-9.01-2.92-14.41-12.71-14.55-24.33-8.32 9.93-22.13 14.36-35.21 10.13-11.56-3.74-19.6-13.31-21.96-24.4-4.94 14.06-22.7 24.9-44.23 25.65-21.05.74-39.19-8.39-45.51-21.6-1.53 10.15-7.69 20.18-17.66 26.95-16.96 11.52-38.65 9.33-49.13-4.72-.23 1.27-.51 2.55-.86 3.83-4.47 16.35-17.44 27.19-29.52 25.06-.26 1.2-.52 2.42-.75 3.67-11.52 61.75 65.5 115.91 144.26 111.09 77.42-4.73 136.47-48.45 128.23-126.56-.19-1.8-.42-3.54-.69-5.22Z" style="fill:#f4cb8e"/><circle cx="468.91" cy="311.3" r="21.97" style="fill:#211e1e"/><ellipse cx="608.01" cy="304.35" rx="22.71" ry="20.56" transform="rotate(-84.64 608.049 304.34)" style="fill:#211e1e"/><path d="M577.85 319.04a3.505 3.505 0 0 0-4.93-.48l-12.02 9.88-18.45-7.85c-1.78-.76-3.83.07-4.59 1.85s.07 3.83 1.85 4.59l18.23 7.76-.47 21.53a3.5 3.5 0 0 0 3.17 3.56c.08 0 .17.01.25.01 1.93.04 3.53-1.49 3.58-3.42l.49-22.29 12.41-10.21a3.505 3.505 0 0 0 .48-4.93Z" style="fill:#211e1e"/></g><g id="right-hand-lower"><rect x="607.45" y="462.68" width="143.04" height="53.98" rx="26.99" ry="26.99" transform="rotate(-135 678.965 489.664)" style="fill:#fff"/><path d="M729.54 540.24c10.54-10.54 10.54-27.63 0-38.17l-2.32-2.32-40.3 36.04 4.45 4.45c10.54 10.54 27.63 10.54 38.17 0Z" style="fill:#81613c"/></g><g id="left-hand-lower"><rect x="242.8" y="474.04" width="143.04" height="53.98" rx="26.99" ry="26.99" transform="rotate(-50.52 314.283 501.005)" style="fill:#fff"/><path d="M268.84 556.23c11.5 9.48 28.51 7.83 37.99-3.67l2.09-2.53-39.75-36.65-4 4.86c-9.48 11.5-7.84 28.51 3.67 37.99Z" style="fill:#81613c"/></g></svg>