<svg id="sunnyaan-chonk" xmlns="http://www.w3.org/2000/svg" viewBox="0 0 1000 1000"><g id="tail"><path d="M528.5,799.49c-2.79,26.65-15.47,43.22-26.65,57.85-10.14,13.26-18.14,23.73-20,41.49-2.56,24.42,5.67,51.86,12.06,68.72A19.69,19.69,0,0,1,484.61,992h0a19.68,19.68,0,0,1-27.52-10.39c-7.9-20.77-17.74-54.46-14.34-86.85,3-28.75,16.8-46.78,27.88-61.26,9.58-12.53,17.14-22.43,18.79-38.08,4.14-39.49-7.43-99.49-7.55-100.09l-.56-2.89,6.54-62.3a19.65,19.65,0,0,1,22.31-17.4c10.55,1.49,17.84,11.38,16.73,22l-5.89,56C523.46,704.16,532.75,759.07,528.5,799.49Z" style="fill:#5d3038"/><path d="M447.18,949.37a255.75,255.75,0,0,0,9.91,32.21A19.68,19.68,0,0,0,484.61,992h0a19.69,19.69,0,0,0,9.29-24.42,215.89,215.89,0,0,1-9.37-31.44Z" style="fill:#f3f3f4"/></g><g id="right-leg"><rect x="412.91" y="619.1" width="58.3" height="136.9" rx="29.15" style="fill:#5d3038"/><path d="M412.91,720v6.9A29.15,29.15,0,0,0,442.06,756h0a29.15,29.15,0,0,0,29.15-29.15V720Z" style="fill:#f9f9fa"/></g><g id="left-leg"><rect x="545.7" y="619.1" width="58.3" height="136.9" rx="29.15" style="fill:#5d3038"/><path d="M545.7,720v6.9A29.15,29.15,0,0,0,574.85,756h0A29.15,29.15,0,0,0,604,726.85V720Z" style="fill:#f9f9fa"/></g><rect id="left-hand-upper" x="539.92" y="451.58" width="126.42" height="49.69" rx="24.85" transform="translate(222.28 -191.19) rotate(21.99)" style="fill:#5d3038"/><rect id="right-hand-upper" x="335.31" y="462.64" width="131.68" height="49.69" rx="24.85" transform="translate(-173.27 225.56) rotate(-26.04)" style="fill:#5d3038"/><g id="left_hand_sleeve" data-name="left hand sleeve"><path d="M529.63,448.71S536.48,432,571.21,435a20.93,20.93,0,0,1,3.24.48c.9.23,4.11.2,15.33-3.65,9.54-3.27,18.49-.33,23.72,2.23a17.92,17.92,0,0,1,8.64,9l.09.19a18,18,0,0,1,.4,12.63l-17.94,53.7a17.74,17.74,0,0,1-6.91,9.21,21.25,21.25,0,0,1-19.18,2.3s-8.57-1.4-19.34-16.34a69.28,69.28,0,0,0-20.83-19.4,18.06,18.06,0,0,1-4.89-4.11C529.07,475.9,521.69,463.71,529.63,448.71Z" style="fill:#f9bbd6"/><path d="M586.4,462.71c4.16,0,14.12-1.17,15-6.48s-2.65-12-13.93-12c-12.44,0-21.21,6.4-24,10.46C563.48,454.69,577.77,462.79,586.4,462.71Z" style="fill:#f45e96"/><path d="M579,483.84c3.33,2.5,10.69,9.28,8.34,14s-9.13,7.94-18.21,1.25c-10-7.38-13.36-17.62-13.27-22.5C555.87,476.61,572.1,478.66,579,483.84Z" style="fill:#f45e96"/></g><g id="body"><path id="body_base" data-name="body base" d="M593.69,663.35c-17.82,10.66-118.43,5.95-158.81,6.3C408.11,667.5,402,658.25,402,644.18V431.65H593.09C588.84,445.22,626.88,645.78,593.69,663.35Z" style="fill:#996c65"/><rect id="body_pattern" data-name="body pattern" x="461.68" y="463.13" width="105.06" height="178.84" rx="28.56" style="fill:#f9f9fa"/></g><g id="cloth"><path d="M375,505.69s-22.4,156.86-4.28,188.6c0,0-1.31,5.2,21.37,8.8a58.28,58.28,0,0,0,13.34.53c6.72-.47,18.85-1.24,28.82-1.38a63.64,63.64,0,0,1,14.84,1.51c5.83,1.31,13.74,3.55,19.43,6.92,7,4.18,23.68,5.19,33.18,5.42a78.52,78.52,0,0,0,13.11-.77A246.43,246.43,0,0,0,547,708.4a71.18,71.18,0,0,1,23.21-2.86c6.53.29,16.66,2.11,24.5,2.6,33.66,2.1,56.2-10.35,56.2-10.35s5.13-48.83-7-78.69c-12.54-30.94-25.36-80.44-25.66-88.73-.25-6.88,1.16-50-15-65.63-3.44-3.34-9.9-4.51-15.26-2.72-8.65,2.9-23.22,10.28-38.17,29,0,0-28.68-25-96.48-32.42a14,14,0,0,0-9.19,2C431,469.67,386.52,499.8,375,505.69Z" style="fill:#f7bad3"/><path d="M619.53,543.73c-.69-6.62-1.15-11.41-1.22-13.36-.25-6.88,1.16-50-15-65.63-3.44-3.34-9.9-4.51-15.26-2.72-8.65,2.9-23.22,10.28-38.17,29,0,0-28.68-25-96.48-32.42-3.36-.37-38.76-3.73-41.17-2.08C399,465.56,386.52,499.8,375,505.69c0,0,.31,14.28.49,33.65,46.55,3.13,178.17,19.29,178.17,19.29S599.14,546.57,619.53,543.73Z" style="fill:#f1719c"/><path d="M428,702.39c10-76.33,5.94-94.14,5.94-94.14s-10.61,64.54-22.69,95C416.14,702.92,422.15,702.59,428,702.39Z" style="fill:#ef5d94"/><path d="M492.25,635.54s2.91,50.57,2.42,80.27c2.55.14,4.94.23,7,.28,1.63,0,3.26,0,4.89-.05A742.62,742.62,0,0,0,492.25,635.54Z" style="fill:#f15b94"/><path d="M575.44,589.63s1.64,71.35,12.08,117.82c2.5.29,5,.55,7.21.69a79.63,79.63,0,0,0,10.61,0C593.29,673.41,575.44,589.63,575.44,589.63Z" style="fill:#ef5d94"/></g><g id="right-ear"><path d="M358,134.81s-18.41,32-13.21,156.14L489.7,192.46s-60.59-53.65-106.9-66.86C382.8,125.6,366,118.53,358,134.81Z" style="fill:#5d3038"/><path d="M371,150.29s-12.82,45.38-3.21,98.63l80.88-52.85s-30-42.58-62.46-54C386.2,142,373.71,137.89,371,150.29Z" style="fill:#f69b9b"/></g><g id="left-ear"><path d="M516.56,190.09s51.15-45.31,99.52-67.56c49.91-23,39,131.06,39,131.06L654,291Z" style="fill:#5d3038"/><path d="M565.63,195.93s19.49-36.56,57.92-54.18c0,0,9.88-5.87,13.35,14.41,0,0,10.41,47.51-2.67,95.83Z" style="fill:#f69b9b"/></g><g id="face"><path d="M708.61,376.1c0,79.45-64.53,85.68-208.82,85.68-128.2,0-208.81-6.23-208.81-85.68s81.26-195.65,208.81-195.65C659.72,180.45,708.61,296.64,708.61,376.1Z" style="fill:#996c65"/><path id="face_partten_3" data-name="face partten 3" d="M664.56,349.23c0,27.53-17.82,48.76-46.9,48.76S567,377.88,567,350.36s23-52.2,52.08-52.2S664.56,321.7,664.56,349.23Z" style="fill:#5d3038"/><path id="face_partten_2" data-name="face partten 2" d="M526.89,351.21c0,27-25.73,52.85-54.81,52.85S419.43,379,419.43,352s23.57-50.25,52.65-50.25S526.89,324.23,526.89,351.21Z" style="fill:#5d3038"/><path id="face_partten_1" data-name="face partten 1" d="M321.41,437s-.05,0,0,0c36.23,23.43,107.86,24.81,178.38,24.81,105.63,0,184.62,0,203.54-51.62,0,0,0-.08,0-.13-3-27-38.62-23.59-38.62-23.59-43.76.2-54-9.61-54-9.61-19.56-14.61-36.18-72.26-36.18-72.26s-8.07-25-25.91-24.23c-9.91.45-15.6,8.15-18.7,14.92a41.68,41.68,0,0,0-3.58,13.64c-5.13,57.3-31.53,76.41-32,76.74h0c-.24.29-11.7,13.76-53.28,9.4-41.88-4.39-61.93,3.14-62.1,3.2h0C356.74,404.06,328.61,426,321.41,437Z" style="fill:#f3f3f4"/><path id="nose" d="M569.49,389.56l10.71-10.07a2.18,2.18,0,0,0-1.54-3.77l-28.47.58a2.19,2.19,0,0,0-1,4.11L567,389.89A2.18,2.18,0,0,0,569.49,389.56Z" style="fill:#f69ca0"/><path id="right_eyebrow" data-name="right eyebrow" d="M513.16,316.48c-3.28,9.71-18.2,12.72-35.47,7.71s-29.23-18.5-25.95-28.21,19.93-13.51,37.2-8.49S516.43,306.77,513.16,316.48Z" style="fill:#f3f3f4"/><path id="left_eyebrow" data-name="left eyebrow" d="M582.5,315.12c-5.55-8.77,2.08-21.05,17.68-29.55s32.93-5.19,38.48,3.58-1.13,20.31-16.74,28.81S588.05,323.89,582.5,315.12Z" style="fill:#f3f3f4"/><ellipse id="right_eye" data-name="right eye" cx="617.71" cy="360.98" rx="12.13" ry="11.25" style="fill:#7088dc"/><ellipse id="left_eye" data-name="left eye" cx="485.28" cy="366.66" rx="12.13" ry="11.25" style="fill:#7088dc"/></g><g id="clock"><rect id="clock-base" x="334.16" y="523.83" width="352.55" height="106.71" rx="29.33" transform="translate(-24.12 22.26) rotate(-2.44)" style="opacity:0.7000000000000001"/><text id="clock-text" transform="translate(350.13 608.82) rotate(-3)" style="font-size:68.56871795654297px;fill:#f9bbd6;font-family:Rubik-Bold, Rubik;font-weight:700">00:00<tspan x="207.83" y="0" style="letter-spacing:-0.024994884527171756em"> </tspan><tspan x="220.51" y="0" style="letter-spacing:-0.000007121049722840956em">AM</tspan></text></g><g id="left-hand-lower"><rect x="604" y="496.67" width="131.68" height="49.69" rx="24.85" transform="translate(774.71 1363.94) rotate(-135)" style="fill:#5d3038"/><path d="M716.39,568.07a24.84,24.84,0,0,0,0-35.13L704,520.56c-6.19.67-15.95,3-22.8,10.58-7.16,8-10.36,18.82-11.71,25.2l11.74,11.73a24.84,24.84,0,0,0,35.14,0Z" style="fill:#f3f3f4"/></g><g id="right-hand-lower"><rect x="276.9" y="517.57" width="131.68" height="49.69" rx="24.85" transform="translate(-298.34 569.02) rotate(-60.09)" style="fill:#5d3038"/><path d="M309.9,599.48a24.85,24.85,0,0,0,33.93-9.14l8.73-15.17c-2.26-5.81-7-14.63-16.15-19.27-9.55-4.84-20.87-5.1-27.37-4.73l-8.28,14.39a24.83,24.83,0,0,0,9.14,33.92Z" style="fill:#f3f3f4"/></g><g id="bunnyear"><path d="M335.4,292.5c.27-23.45,10.36-66.57,74.24-94.86,0,0-58-20.54-57.52-75.28A249.41,249.41,0,0,1,372.48,63a20.1,20.1,0,0,0,1.82-12.34C372,37,369.41,6.32,393.06,10c30.31,4.75,55.58,50.75,55.58,50.75s33,58.83,30.6,118.51c0,0,39-.91,46.31,2.83-4.36-.28,21.22-136,100.32-145.66,0,0,24,.87,18.39,21.38-3.76,13.77-4.62,22.07-4.78,26a12.23,12.23,0,0,0,.84,4.93c3.78,9.67,18.6,50.75,8.48,75.82-11.53,28.58-50.41,35.71-50.41,35.71s71.22,30.23,62,67.42c-.44,1.76-3.19,2.13-4.39.57-9.93-13-48.32-52.41-148.38-53-73.28-.43-115.73,25-137.64,44.75a93.44,93.44,0,0,0-24.22,34.44h0C343.7,298.46,335.34,296.86,335.4,292.5Z" style="fill:#ffefef"/><path d="M399.74,49.48s-5.58-.49-4.95,41c0,0-12.2,25.26-11.05,48.67s26,37.3,26,37.3,19.55,12,35.15,8.18c0,0,11.12-2.51,4.92-40.23s-11.41-45.6-11.41-45.6-6.22-24.87-30.89-48C407.53,50.79,403.12,48.35,399.74,49.48Z" style="fill:#f4989c"/><path d="M556.12,187.59c-4-7.83-4.34-78.59,50.92-113.7a6.64,6.64,0,0,1,7.35.23c3.3,2.51,2.41,7.22,1.54,18.24-1.7,21.64.5,28.75.5,28.75s10.5,32.82-4,52.51S569,192.86,569,192.86s-3.82-.38-7.1-1.1A8.41,8.41,0,0,1,556.12,187.59Z" style="fill:#f4989c"/></g><g id="right_hand_sleeve" data-name="right hand sleeve"><path d="M461,450.93s-8.55-15.92-42.77-9.29a21.35,21.35,0,0,0-3.17.81c-.88.32-4.07.63-15.64-2C389.54,438.16,381,442,376,445.1a18,18,0,0,0-7.65,9.87l-.06.21a17.87,17.87,0,0,0,.91,12.6l23.41,51.54a17.69,17.69,0,0,0,7.83,8.44,21.19,21.19,0,0,0,19.31.3s8.39-2.28,17.54-18.26A69.15,69.15,0,0,1,456,488.35a18.14,18.14,0,0,0,4.44-4.6C464.33,477.91,470.41,465,461,450.93Z" style="fill:#f9bbd6"/><path d="M405.94,470.74c-4.15.39-14.16.31-15.63-4.88s1.39-12.23,12.61-13.38c12.37-1.26,21.75,4.17,25,7.91C427.9,460.39,414.54,469.94,405.94,470.74Z" style="fill:#f45e96"/><path d="M415.49,491c-3.05,2.83-9.68,10.34-6.85,14.81s9.91,6.95,18.24-.65c9.19-8.38,11.46-18.91,10.87-23.75C437.75,481.41,421.82,485.13,415.49,491Z" style="fill:#f45e96"/></g></svg>