<svg id="sunnyaan" xmlns="http://www.w3.org/2000/svg" viewBox="0 0 1000 1000"><g id="tail"><path d="M528.5,799.49c-2.79,26.65-15.47,43.22-26.65,57.85-10.14,13.26-18.14,23.73-20,41.49-2.56,24.42,5.67,51.86,12.06,68.72A19.69,19.69,0,0,1,484.61,992h0a19.68,19.68,0,0,1-27.52-10.39c-7.9-20.77-17.74-54.46-14.34-86.85,3-28.75,16.8-46.78,27.88-61.26,9.58-12.53,17.14-22.43,18.79-38.08,4.14-39.49-7.43-99.49-7.55-100.09l-.56-2.89,6.54-62.3a19.65,19.65,0,0,1,22.31-17.4c10.55,1.49,17.84,11.38,16.73,22l-5.89,56C523.46,704.16,532.75,759.07,528.5,799.49Z" style="fill:#5d3038"/><path d="M447.18,949.37a255.75,255.75,0,0,0,9.91,32.21A19.68,19.68,0,0,0,484.61,992h0a19.69,19.69,0,0,0,9.29-24.42,215.89,215.89,0,0,1-9.37-31.44Z" style="fill:#f3f3f4"/></g><g id="right-leg"><rect x="427.8" y="619.1" width="58.3" height="136.9" rx="29.15" style="fill:#5d3038"/><path d="M427.8,720v6.9A29.15,29.15,0,0,0,457,756h0a29.15,29.15,0,0,0,29.15-29.15V720Z" style="fill:#f9f9fa"/></g><g id="left-leg"><rect x="523.64" y="619.1" width="58.3" height="136.9" rx="29.15" style="fill:#5d3038"/><path d="M523.64,720v6.9A29.15,29.15,0,0,0,552.79,756h0a29.15,29.15,0,0,0,29.15-29.15V720Z" style="fill:#f9f9fa"/></g><rect id="left-hand-upper" x="539.92" y="451.58" width="126.42" height="49.69" rx="24.85" transform="translate(222.28 -191.19) rotate(21.99)" style="fill:#5d3038"/><rect id="right-hand-upper" x="335.31" y="462.64" width="131.68" height="49.69" rx="24.85" transform="translate(-173.27 225.56) rotate(-26.04)" style="fill:#5d3038"/><g id="left_hand_sleeve" data-name="left hand sleeve"><path d="M529.63,448.71S536.48,432,571.21,435a20.93,20.93,0,0,1,3.24.48c.9.23,4.11.2,15.33-3.65,9.54-3.27,18.49-.33,23.72,2.23a17.92,17.92,0,0,1,8.64,9l.09.19a18,18,0,0,1,.4,12.63l-17.94,53.7a17.74,17.74,0,0,1-6.91,9.21,21.25,21.25,0,0,1-19.18,2.3s-8.57-1.4-19.34-16.34a69.28,69.28,0,0,0-20.83-19.4,18.06,18.06,0,0,1-4.89-4.11C529.07,475.9,521.69,463.71,529.63,448.71Z" style="fill:#f9bbd6"/><path d="M586.4,462.71c4.16,0,14.12-1.17,15-6.48s-2.65-12-13.93-12c-12.44,0-21.21,6.4-24,10.46C563.48,454.69,577.77,462.79,586.4,462.71Z" style="fill:#f45e96"/><path d="M579,483.84c3.33,2.5,10.69,9.28,8.34,14s-9.13,7.94-18.21,1.25c-10-7.38-13.36-17.62-13.27-22.5C555.87,476.61,572.1,478.66,579,483.84Z" style="fill:#f45e96"/></g><g id="body"><path id="body_base" data-name="body base" d="M573.67,663.35c-13.81,10.66-91.78,5.95-123.08,6.3-20.75-2.15-25.48-11.4-25.48-25.47V431.65h148.1C569.91,445.22,599.4,645.78,573.67,663.35Z" style="fill:#996c65"/><rect id="body_pattern" data-name="body pattern" x="471.36" y="463.13" width="81.43" height="178.84" rx="25.14" style="fill:#f9f9fa"/></g><g id="cloth"><path d="M420.3,505.69s1.44,96.31-1,127.93c-.26,3.26-.42,6.52-.54,9.79-.4,11.06-2.31,36.17-11.37,44.71a48.27,48.27,0,0,0,24.66,15,27.48,27.48,0,0,0,9.13.53c4.6-.47,12.92-1.24,19.74-1.38a30.53,30.53,0,0,1,10.17,1.51c4,1.31,9.41,3.55,13.31,6.92,4.82,4.18,16.22,5.19,22.73,5.42a37,37,0,0,0,9-.77,124,124,0,0,0,22.09-6.92,34.53,34.53,0,0,1,15.9-2.86c4.48.29,11.41,2.11,16.79,2.6,23,2.1,37.36-17.35,37.36-17.35a140.44,140.44,0,0,1-15.08-59c-.8-33.36-5.93-93.14-6.14-101.43-.17-6.88.8-50-10.24-65.63A8.33,8.33,0,0,0,566.29,462c-5.93,2.9-15.9,10.28-26.15,29,0,0-19.64-25-66.08-32.42a7.27,7.27,0,0,0-6.3,2C458.66,469.67,428.22,499.8,420.3,505.69Z" style="fill:#f7bad3"/><path d="M587.83,543.73c-.48-6.62-.8-11.41-.85-13.36-.17-6.88.8-50-10.24-65.63A8.33,8.33,0,0,0,566.29,462c-5.93,2.9-15.9,10.28-26.15,29,0,0-19.64-25-66.08-32.42-2.31-.37-26.55-3.73-28.2-2.08-9.11,9.05-17.64,43.29-25.56,49.18,0,0,.21,14.28.33,33.65,31.89,3.13,122,19.29,122,19.29S573.86,546.57,587.83,543.73Z" style="fill:#f1719c"/><path d="M456.6,702.39c6.84-76.33,4.07-94.14,4.07-94.14s-7.27,64.54-15.54,95C448.51,702.92,452.62,702.59,456.6,702.39Z" style="fill:#ef5d94"/><path d="M500.64,635.54s2,50.57,1.66,80.27c1.74.14,3.38.23,4.79.28,1.11,0,2.23,0,3.35-.05C507.15,674.38,500.64,635.54,500.64,635.54Z" style="fill:#f15b94"/><path d="M557.62,589.63s1.12,71.35,8.28,117.82c1.71.29,3.39.55,4.94.69a37.33,37.33,0,0,0,7.26,0C569.85,673.41,557.62,589.63,557.62,589.63Z" style="fill:#ef5d94"/></g><g id="right-ear"><path d="M358,134.81s-18.41,32-13.21,156.14L489.7,192.46s-60.59-53.65-106.9-66.86C382.8,125.6,366,118.53,358,134.81Z" style="fill:#5d3038"/><path d="M371,150.29s-12.82,45.38-3.21,98.63l80.88-52.85s-30-42.58-62.46-54C386.2,142,373.71,137.89,371,150.29Z" style="fill:#f69b9b"/></g><g id="left-ear"><path d="M516.56,190.09s51.15-45.31,99.52-67.56c49.91-23,39,131.06,39,131.06L654,291Z" style="fill:#5d3038"/><path d="M565.63,195.93s19.49-36.56,57.92-54.18c0,0,9.88-5.87,13.35,14.41,0,0,10.41,47.51-2.67,95.83Z" style="fill:#f69b9b"/></g><g id="face"><path d="M670.8,344.87c0,79.46-52.85,116.91-171,116.91-105,0-171-37.45-171-116.91s66.55-164.42,171-164.42C630.76,180.45,670.8,265.42,670.8,344.87Z" style="fill:#996c65"/><path id="face_partten_3" data-name="face partten 3" d="M652.65,349.23c0,27.53-16.54,48.76-43.51,48.76s-47-20.11-47-47.63,21.34-52.2,48.31-52.2S652.65,321.7,652.65,349.23Z" style="fill:#5d3038"/><path id="face_partten_2" data-name="face partten 2" d="M524.93,351.21c0,27-23.87,52.85-50.85,52.85S425.24,379,425.24,352s21.86-50.25,48.84-50.25S524.93,324.23,524.93,351.21Z" style="fill:#5d3038"/><path id="face_partten_1" data-name="face partten 1" d="M366.39,426.87a.11.11,0,0,0,0,.14c29.66,23.43,75.62,34.77,133.37,34.77,86.5,0,138-20.08,159.38-62a.11.11,0,0,0,0-.12c-12.72-14-24.32-13.21-24.32-13.21-35.83.2-44.24-9.61-44.24-9.61-16-14.61-29.63-72.26-29.63-72.26s-6.61-25-21.22-24.23c-8.11.45-12.77,8.15-15.31,14.92a49,49,0,0,0-2.93,13.64c-4.2,57.3-25.82,76.41-26.19,76.74h0c-.21.29-9.59,13.76-43.64,9.4-34.29-4.39-50.71,3.14-50.85,3.2h0A58.16,58.16,0,0,0,366.39,426.87Z" style="fill:#f3f3f4"/><path id="nose" d="M566.11,392.55l13.65-13.83a2.86,2.86,0,0,0-2.1-4.87l-36.29.81A2.86,2.86,0,0,0,540,380l22.64,13A2.86,2.86,0,0,0,566.11,392.55Z" style="fill:#f69ca0"/><path id="right_eyebrow" data-name="right eyebrow" d="M512.19,316.48c-3,9.71-16.88,12.72-32.9,7.71s-27.12-18.5-24.08-28.21,18.49-13.51,34.51-8.49S515.23,306.77,512.19,316.48Z" style="fill:#f3f3f4"/><path id="left_eyebrow" data-name="left eyebrow" d="M576.52,315.12c-5.14-8.77,1.93-21.05,16.41-29.55s30.55-5.19,35.69,3.58-1,20.31-15.53,28.81S581.67,323.89,576.52,315.12Z" style="fill:#f3f3f4"/><circle id="right_eye" data-name="right eye" cx="481.99" cy="365.16" r="20.67" style="fill:#7088dc"/><circle id="left_eye" data-name="left eye" cx="611.97" cy="360.23" r="20.67" style="fill:#7088dc"/></g><g id="clock"><rect id="clock-base" x="334.16" y="523.83" width="352.55" height="106.71" rx="29.33" transform="translate(-24.12 22.26) rotate(-2.44)" style="opacity:0.7000000000000001"/><text id="clock-text" transform="translate(350.13 608.82) rotate(-3)" style="font-size:68.56871795654297px;fill:#f9bbd6;font-family:Rubik-Bold, Rubik;font-weight:700">00:00<tspan x="207.83" y="0" style="letter-spacing:-0.024994884527171756em"> </tspan><tspan x="220.51" y="0" style="letter-spacing:-0.000007121049722840956em">AM</tspan></text></g><g id="left-hand-lower"><rect x="604" y="496.67" width="131.68" height="49.69" rx="24.85" transform="translate(774.71 1363.94) rotate(-135)" style="fill:#5d3038"/><path d="M716.39,568.07a24.84,24.84,0,0,0,0-35.13L704,520.56c-6.19.67-15.95,3-22.8,10.58-7.16,8-10.36,18.82-11.71,25.2l11.74,11.73a24.84,24.84,0,0,0,35.14,0Z" style="fill:#f3f3f4"/></g><g id="right-hand-lower"><rect x="276.9" y="517.57" width="131.68" height="49.69" rx="24.85" transform="translate(-298.34 569.02) rotate(-60.09)" style="fill:#5d3038"/><path d="M309.9,599.48a24.85,24.85,0,0,0,33.93-9.14l8.73-15.17c-2.26-5.81-7-14.63-16.15-19.27-9.55-4.84-20.87-5.1-27.37-4.73l-8.28,14.39a24.83,24.83,0,0,0,9.14,33.92Z" style="fill:#f3f3f4"/></g><g id="bunnyear"><path d="M357.25,311.27c-2.24-24.24,1.92-70,54.11-107.33,0,0-52.32-13.88-57.66-70.46A305.06,305.06,0,0,1,365,69.6a25,25,0,0,0,.27-13c-3.43-13.82-8.92-45.15,11.9-44.32,26.69,1.07,53.38,45.37,53.38,45.37s34.7,56.59,39,118.51c0,0,33.63-5.87,40.31-2.93-3.8.26,3.95-143.15,71.26-163.09,0,0,20.82-2.13,18.15,19.75-1.79,14.7-1.66,23.38-1.38,27.49a14.62,14.62,0,0,0,1.26,5c4.28,9.51,21.43,50.05,15.34,77.23-6.94,31-39.77,43.24-39.77,43.24s64.72,22.21,60.65,61.78a2.1,2.1,0,0,1-3.72,1.14c-10-12.14-47.3-48-133.8-36-63.35,8.82-97.34,40.41-114.18,63.61A104.51,104.51,0,0,0,366.38,312h0C365.05,316.37,357.66,315.78,357.25,311.27Z" style="fill:#ffefef"/><path d="M387.13,52.2s-4.87.2.07,43c0,0-7.87,27.63-4.4,51.65s26.42,35.23,26.42,35.23,18.15,9.88,31.23,4c0,0,9.34-4,0-42.17s-14.68-45.65-14.68-45.65-8-24.89-31.76-45.67C394,52.57,389.94,50.6,387.13,52.2Z" style="fill:#f4989c"/><path d="M536.84,175.05c-4.24-7.59-12.06-80.61,32-123.85a5,5,0,0,1,6.39-.69c3.1,2.17,2.84,7.15,3.25,18.64.82,22.56,3.47,29.63,3.47,29.63s12.55,32.56,2.14,54.71-35.5,25.36-35.5,25.36a51.41,51.41,0,0,1-6.25-.23A7.13,7.13,0,0,1,536.84,175.05Z" style="fill:#f4989c"/></g><g id="right_hand_sleeve" data-name="right hand sleeve"><path d="M461,450.93s-8.55-15.92-42.77-9.29a21.35,21.35,0,0,0-3.17.81c-.88.32-4.07.63-15.64-2C389.54,438.16,381,442,376,445.1a18,18,0,0,0-7.65,9.87l-.06.21a17.87,17.87,0,0,0,.91,12.6l23.41,51.54a17.69,17.69,0,0,0,7.83,8.44,21.19,21.19,0,0,0,19.31.3s8.39-2.28,17.54-18.26A69.15,69.15,0,0,1,456,488.35a18.14,18.14,0,0,0,4.44-4.6C464.33,477.91,470.41,465,461,450.93Z" style="fill:#f9bbd6"/><path d="M405.94,470.74c-4.15.39-14.16.31-15.63-4.88s1.39-12.23,12.61-13.38c12.37-1.26,21.75,4.17,25,7.91C427.9,460.39,414.54,469.94,405.94,470.74Z" style="fill:#f45e96"/><path d="M415.49,491c-3.05,2.83-9.68,10.34-6.85,14.81s9.91,6.95,18.24-.65c9.19-8.38,11.46-18.91,10.87-23.75C437.75,481.41,421.82,485.13,415.49,491Z" style="fill:#f45e96"/></g></svg>