<svg id="wolf" xmlns="http://www.w3.org/2000/svg" viewBox="0 0 1000 1000"><g id="tail"><path d="M500.73 655.36c5.13 13 6.69 20.15 5.07 23.13-1.2 2.2-5.11 3-10.53 4.06-11.23 2.25-28.2 5.64-46.81 25.9a2.84 2.84 0 0 0-.63 1.14s-1 3.66-1.51 5.44c-9.48 33.78-15.2 61.29-12.35 85.77a2.82 2.82 0 0 0 4.62 1.82 40.78 40.78 0 0 1 13.26-7.86l1-.4c.12 1 .24 2 .36 3.07 3.36 28.54 8 67.63 56.94 82.09a2.81 2.81 0 0 0 3.24-4.09c-19.35-33.88-14.62-59.33 15.82-85.09l.37-.31c5.19-4.44 10.09-8.64 13.28-13.91a2.72 2.72 0 0 0 .4-1.62c-3-50.53-6.35-61.82-36.38-120.82a2.9 2.9 0 0 0-.6-.79 2.41 2.41 0 0 0-.44-.33l-1-.63a2.82 2.82 0 0 0-4.09 3.43Z" style="fill:#dbdad8"/><path d="M475.42 597.76c-4.84 34-13.59 63.8-22 92.59-1.95 6.62-4 13.46-5.85 20.13a2.76 2.76 0 0 0 0 1.61 35.28 35.28 0 0 1 1.2 4.88 57 57 0 0 1-.52 10.74c-.18 1.56-.35 3.18-.47 4.75-.21 2.35-.4 4.68-.59 7-.23 2.88-.46 5.79-.74 8.84-.54 6.48-.88 12-1.06 17.55-.1 3.21-.15 6.39-.13 9.71s.1 6.89.24 10.57a2.82 2.82 0 0 0 3.53 2.61 19.09 19.09 0 0 0 2.76-1l.4-.17c.8-.33 1.58-.74 2.26-1.1l.5-.25.13-.08a36.55 36.55 0 0 0 4.86-3.38c1-.86 2.05-1.75 3-2.66v3.26c.07 3.35.26 6.67.55 9.88.27 2.93.65 6 1.16 9.54.46 3.14 1 6.32 1.72 9.41.54 2.69 1.23 5.63 2.16 9.26.79 3.11 1.64 6.19 2.54 9.16 1.62 5.49 3.53 11.51 5.84 18.4a2.81 2.81 0 0 0 5.48-.84c.11-5.66.29-9.9.56-13.71.19-2.22.43-4.41.73-6.53s.59-4.24 1-6.26l.22-1c.38-1.76.74-3.42 1.26-5.1a50.92 50.92 0 0 1 4.62-11 52.41 52.41 0 0 1 3.3-5.1 30.28 30.28 0 0 1 2.27-2.66 30.84 30.84 0 0 1 2.6-2.49c.82-.7 1.67-1.34 2.57-2l.81-.57c.88-.58 1.8-1.18 2.67-1.68a32.17 32.17 0 0 1 3.32-1.67c1.37-.59 2.45-1 3.52-1.4 1.24-.43 2.41-.83 3.56-1.13s2.4-.62 3.54-.81a59 59 0 0 1 7.44-.88h.12a63.25 63.25 0 0 1 6.94-.17l.65.1a2.8 2.8 0 0 0 2.48-.83c21.9-22.85 31.4-55.25 26.07-88.89-4.12-26-16.51-49.36-34.42-65.93A98.33 98.33 0 0 0 508.14 614l-28.41-18.2a2.82 2.82 0 0 0-4.31 2Z" style="fill:#9c9c9a"/></g><path id="right-leg" d="M454.36 558.77a30.91 30.91 0 0 0-31 30.81l-.55 125.12a30.91 30.91 0 0 0 30.81 31 30.91 30.91 0 0 0 31-30.81l.55-125.12a30.91 30.91 0 0 0-30.81-31Z" style="fill:#9c9c9a"/><path id="left-leg" d="M541.62 559.08a31 31 0 0 0-30.27 31.67l3 127.71a30.94 30.94 0 0 0 61.84-1.46l-3-127.71a31 31 0 0 0-31.57-30.21Z" style="fill:#9c9c9a"/><g id="right-ear"><path d="M426.69 22.11c-4.81-2-9.67-.93-14.45 3.25-20.55 17.9-42.43 54.24-57.12 94.83-16.22 44.85-20.9 87.48-12.84 117a1.35 1.35 0 0 0 .79.89 1.3 1.3 0 0 0 .52.1 1.44 1.44 0 0 0 .66-.17L468 168.43a1.34 1.34 0 0 0 .68-1.25c-2.57-45.52-17.58-134.81-41.99-145.07Z" style="fill:#9c9c9a"/><path d="M453.77 159.82c-5.3-32.21-12-65.33-30-85.16a2.82 2.82 0 0 0-3.92-.24c-35.5 30.62-41.51 62.93-47.32 94.17-1.52 8.15-3.08 16.58-5.16 24.87a2.83 2.83 0 0 0 .9 2.82 2.79 2.79 0 0 0 1.83.68 2.76 2.76 0 0 0 1.09-.22l80.91-33.87a2.81 2.81 0 0 0 1.67-3.05Z" style="fill:#676767"/></g><g id="left-ear"><path d="M630 198.35c-4.19-49.4-11.2-132.1-48.43-175.21-6-7-12-9.71-17.69-8.1-22.54 6.34-34.82 81-42.15 125.66-.72 4.4-1.39 8.49-2 12.14a1.36 1.36 0 0 0 .59 1.36l110.22 72a1.36 1.36 0 0 0 .74.22 1.37 1.37 0 0 0 .73-.21 1.36 1.36 0 0 0 .61-1.32c-.98-6.62-1.76-15.89-2.62-26.54Z" style="fill:#9c9c9a"/><path d="M617.41 197.7c-3-12.23-5-24.35-7-36.07-5-30.1-10.26-61.23-32.88-95a2.83 2.83 0 0 0-2.34-1.25 2.78 2.78 0 0 0-2.34 1.27c-16.4 25-26 50.26-31.89 84a2.87 2.87 0 0 0-1.63 1.23 2.8 2.8 0 0 0 .92 3.87l.39.25a2.82 2.82 0 0 0 2 1.47h.4l70.15 43.32a2.82 2.82 0 0 0 3.14-.12 2.81 2.81 0 0 0 1.08-2.97Z" style="fill:#676767"/></g><rect id="left-hand-upper" x="533.65" y="417.1" width="118.05" height="63.11" rx="31.55" transform="rotate(19.1 592.658 448.642)" style="fill:#9c9c9a"/><rect id="right-hand-upper" x="339.42" y="423.15" width="118.05" height="63.11" rx="31.55" transform="rotate(150 398.45 454.702)" style="fill:#9c9c9a"/><g id="g934"><path d="M574.39 497.4c-1.92-22.15-6.66-44.06-10.58-60.66-2.79-11.82-10.5-35-10.57-35.27a.67.67 0 0 0-.69-.49l-133.8 2.82a.72.72 0 0 0-.69.59c-.09.52-8.78 51.82-9.16 77.56 0 2.46-.08 4.93-.12 7.41-.54 32.33-1.11 65.76 9.31 96.34l.91 2.67c5.31 15.72 12.59 37.25 27.07 40.74 6.46 1.56 20.69 2.3 36.84 2.3 29.19 0 64.67-2.39 72.11-6.6 13.93-7.88 17.73-30.6 19.37-47 3.1-30.9 2.24-54.49 0-80.41Z" style="fill:#9c9c9a"/><path d="m539.88 412.94-1.41-21.83a.73.73 0 0 0-.85-.66l-78.14 14.77a.7.7 0 0 0-.55.5l-1.41 4.93a.64.64 0 0 0 0 .2L459.6 570a.49.49 0 0 0 0 .12c2.13 12.13 5.51 24.07 21.13 25.24l48.59-.7a.73.73 0 0 0 .33-.08 29.45 29.45 0 0 1 4.2-1.79c6.29-2.3 12.79-4.67 14.47-25.63Z" style="fill:#dbdad8"/></g><g id="head"><path d="M457.82 418.81 350 222a1.35 1.35 0 0 0-1.55-.65l-4.15 1.18a1.37 1.37 0 0 0-.35.15c-11.29 7-24.09 15-33.42 29.26a1.36 1.36 0 0 0 .35 1.85l9.73 6.8c-16.37 6.74-35.87 17.63-47.32 41a1.37 1.37 0 0 0 .15 1.44l1.47 1.85c8.06 10.17 16.37 20.67 27.18 25a39.07 39.07 0 0 1-3.42 2.74c-3.94 2.91-8 5.92-10.73 15.22a1.35 1.35 0 0 0 .43 1.41c35 29.15 54.32 39.4 87 52.66 21.29 8.66 46.13 12.93 68 16.7 4.56.78 8.87 1.52 13 2.27a1 1 0 0 0 .24 0 1.38 1.38 0 0 0 1.1-.56 1.36 1.36 0 0 0 .11-1.51Z" style="fill:#bdbdbd"/><path d="m679.43 260.77-33.26-23.23C610.34 160.05 559.35 124 490.31 127.18c-48.53 1.17-85.19 14.7-112.09 41.35-21.29 21.1-36.84 50.86-48.92 93.63-2.25 2-4.59 4-6.86 5.83-7.77 6.37-15.8 13-21.56 25.88a1.38 1.38 0 0 0 0 1.14c7.13 14.59 17.63 26.32 32.94 36.75a89.6 89.6 0 0 0-21.44 12.48 1.35 1.35 0 0 0-.5 1 1.33 1.33 0 0 0 .41 1c29.61 28.74 58.17 48.48 87.29 60.34a20.5 20.5 0 0 0 7.79 1.5c7.44 0 14.88-3.68 22.13-7.27 7.73-3.82 15-7.42 21.84-6.53 13.79 1.81 32.77-6.27 51.13-14.09 13.56-5.77 26.37-11.23 37-12.89 17.54-2.77 31.12 5.46 44.27 13.42 18.46 11.19 35.91 21.75 58.94-5.33 12.64-14.82 24.15-34.14 35.17-59.05a1.35 1.35 0 0 0-.85-1.84l-18.88-5.66 21.76-46.41a1.37 1.37 0 0 0-.45-1.66Z" style="fill:#9c9c9a"/><path d="M651.13 338.65a1.33 1.33 0 0 0-1.47.26c-6.37 6-25 21-34.59 17.43-10.72-4-18.85-10.34-26.72-16.49-9-7-17.51-13.68-28.9-16-13.26-2.76-28.12-1-39.76 4.82-6.42 3.19-10.55 9.07-14.55 14.75s-8 11.42-14.33 14.74c-34.16 18-75.58 16.5-130.35-4.77-1.93-.74-3-.17-3.49.43-1.84 2.13.28 7.81 8.1 21.71l.23.4c5.27 9.41 11.95 17.1 19.3 22.24 13.69 9.6 45.66 17.59 47 17.92h.07A304.88 304.88 0 0 0 491.4 422a316.14 316.14 0 0 0 60.39-5.94c4.07-.66 8.14-1.18 12.46-1.74 24.55-3.14 52.37-6.7 76.82-38.28a1.2 1.2 0 0 0 .16-.27c.6-1.31 1.21-2.61 1.82-3.91 4.26-9.11 8.68-18.53 8.89-32a1.35 1.35 0 0 0-.81-1.21Z" style="fill:#dcdbd9"/><path d="M502.18 318.91c-1-1.77-3.95-4-4.36-4.31a131.37 131.37 0 0 0-62.61-20 1.34 1.34 0 0 0-1.4 1.25c-.08 1-1.95 25.51 1.66 34.33 3.92 9.48 19.24 23.71 34.35 24.43 2.35.11 4.67.21 6.94.21 12.88 0 24-3.39 26.84-29.2a10.2 10.2 0 0 0-1.42-6.71Z" style="fill:#dcdbd9"/><path d="m497.61 325-38.34-6a1.35 1.35 0 0 0-1.53 1.08c-1.69 8.89-.45 16.1 3.69 21.43 3.74 4.82 9.66 7.72 16.69 8.16.72 0 1.43.06 2.12.06 9.67 0 15.83-4.39 18.5-23.25a1.35 1.35 0 0 0-1.13-1.48Z" style="fill:#231f20"/><path d="M637.25 293.09v-.13L633 282.85a1.13 1.13 0 0 0-1.48-.6c-11.4 4.88-26.24 11.93-39.94 23.21-5.11 4.2-6.33 11.81-5.82 17.05.64 6.84 4.08 16.42 11.69 20.86a18.55 18.55 0 0 0 9.37 2.26 37.23 37.23 0 0 0 12.37-2.42 35.58 35.58 0 0 0 18-15.8c4.08-7.57 4.12-19.76.06-34.32Z" style="fill:#dcdbd9"/><path d="M621.63 309.73a1.14 1.14 0 0 0-1.23-.3l-29.79 11.13a1.5 1.5 0 0 0-.32.19c-1.73 1.42-1.11 5.51.21 8.72a19.57 19.57 0 0 0 18.57 12.36c.8 0 1.64 0 2.51-.12 4.77-.47 8.36-3.5 10.39-8.76 3.25-8.47 1.75-20.95-.34-23.22ZM590 355.24c-10.33-4.65-28.06-4.69-38.69 3.35a.31.31 0 0 0-.09.07l-.11.1c-1.06 1-2.83 2.61-.59 5.76a1 1 0 0 0 .22.24 40.51 40.51 0 0 1 4.45 4.25c3.86 4.07 7.86 8.28 16.92 9 .72.06 1.36.09 1.93.09a11 11 0 0 0 5-1.08l1-.41a1.1 1.1 0 0 0 .37-.23c.78-.72 1.57-1.41 2.36-2.11 3.67-3.22 7.46-6.54 9.61-12.19a1.34 1.34 0 0 0 .07-.27c0-.2 0-.4.08-.6.24-1.82.59-4.31-2.53-5.97Z" style="fill:#231f20"/><path d="M501.78 240.15c-1.85-8.63-10-17.72-17-22.26-11-7.08-31-11.4-38.23-.7-6.33 9.5 3.76 25 13.79 31.89 6.35 4.32 16.25 8 25 8a26.14 26.14 0 0 0 5.14-.48c4.41-.89 7.71-3 9.8-6.18a13.19 13.19 0 0 0 1.5-10.27Zm108.03-14.86c-.45-4.85-2.28-8.72-5.32-11.17-8.94-7.23-25.32.45-32.23 8.71S560.9 248.5 569.57 256a14.84 14.84 0 0 0 10 3.38c.55 0 1.12 0 1.69-.07 7.65-.57 16.34-5 21.15-10.63 5.09-5.9 8.11-15.51 7.4-23.39Z" style="fill:#dcdbd9"/></g><g id="clock"><rect id="clock-base" x="323.66" y="489.25" width="365.82" height="110.73" rx="30.44" transform="rotate(-2.44 506.802 544.697)" style="opacity:.7000000000000001"/><text id="clock-text" transform="rotate(-3 11195.917 -6208.855)" style="font-size:71.15160369873047px;fill:#42c17f;font-family:Rubik-Bold,Rubik;font-weight:700">00:00<tspan x="215.66" y="0" style="letter-spacing:-.02499339747885022em"> </tspan><tspan x="228.82" y="0">AM</tspan></text></g><rect id="left-hand-lower" x="587.26" y="443.29" width="114.77" height="63.11" rx="31.55" transform="rotate(34.33 644.678 474.874)" style="fill:#9c9c9a"/><rect id="right-hand-lower" x="296.85" y="460.34" width="114.77" height="63.11" rx="31.55" transform="rotate(130.2 354.23 491.911)" style="fill:#9c9c9a"/></svg>