<svg id="wolf-wherewolf" xmlns="http://www.w3.org/2000/svg" viewBox="0 0 1000 1000"><g id="tail"><path d="M475.78 674.45s6.75 83.35-17.47 120.28c-24.22 36.93-12.15 84.34-12.15 84.34s11.91-9.1 15.21-20.24c3.3-11.14-7.65 22.55 13.32 59.88s14.46 46.9 14.46 46.9 25.88-23.76 31.8-52.57c0 0 6.71 15.04 14.12 23.14 0 0 9.6-15.16 10.54-45.46 0 0-.48-32.33-3.63-40.53 0 0-4.56-20.08-2.68-37.92 1.88-17.84-1.33-43.39-1.33-43.39s9.56 25.89 10.3 35.53c0 0 8.45-5.51 9.9-38.16 1.45-32.65-34.46-77.1-34.46-77.1l2.15-79.26s-22.47-48.37-48.18-1.49l-1.89 66.06Z" style="fill:#422635"/><path d="M525.85 609.88s-22.47-48.37-48.18-1.49l-1.89 66.06s6.35 78.46-15.39 116.86c-.76 10.28.31 24.67 6.59 43.58 0 0 14.46-1.17 27.54-24.5-1.23 2.5-5.22 14.54 7.61 50.29 0 0 9.29-18.35 16.24-23.02 0 0 13.1-12.05 20.72-23.31.05-.69.11-1.39.19-2.08 1.88-17.84-1.33-43.39-1.33-43.39s9.56 25.89 10.3 35.53c0 0 8.45-5.51 9.9-38.16 1.45-32.65-34.46-77.1-34.46-77.1l2.15-79.26Z" style="fill:#60354a"/></g><g id="right-leg"><rect x="413.91" y="592.94" width="63.95" height="150.16" rx="31.97" ry="31.97" style="fill:#60354a"/><path d="M445.89 743.1c17.66 0 31.97-14.32 31.97-31.97v-19.58l-10.11-16.32-10.35 18.78-10.79-18.78-10.35 18.04-10.79-18.04-11.55 20.54v15.35c0 17.66 14.32 31.97 31.97 31.97Z" style="fill:#422635"/><path d="M471.26 715.23c3.91-1.48 10.17-1.3 16.38 9.5 1.42 2.46 2.42 5.17 2.67 8 .2 2.31-.03 5.03-1.43 7.49-.77 1.34-2.64 1.56-3.7.43-3.22-3.43-10.34-10.44-17.93-14.09-1.23-.59-2-1.86-1.93-3.22.01-.33.05-.69.12-1.07.55-3.19 2.81-5.88 5.83-7.02ZM455.22 725.35c3.91-1.48 10.17-1.3 16.38 9.5 1.42 2.46 2.42 5.17 2.67 8 .2 2.31-.03 5.03-1.43 7.49-.77 1.34-2.64 1.56-3.7.43-3.22-3.43-10.34-10.44-17.93-14.09-1.23-.59-2-1.86-1.93-3.22.01-.33.05-.69.12-1.07.55-3.19 2.81-5.88 5.83-7.02ZM432.94 725.8c3.96-1.34 10.21-.94 16.03 10.07 1.33 2.51 2.24 5.25 2.39 8.09.12 2.32-.2 5.03-1.7 7.43-.82 1.32-2.7 1.46-3.72.29-3.09-3.54-9.97-10.8-17.42-14.72a3.423 3.423 0 0 1-1.82-3.29c.03-.33.08-.68.16-1.07.66-3.17 3.01-5.77 6.08-6.81Z" style="fill:#99889a"/></g><g id="left-leg"><rect x="518.9" y="592.94" width="63.95" height="150.16" rx="31.97" ry="31.97" style="fill:#60354a"/><path d="M550.87 743.1c17.66 0 31.97-14.32 31.97-31.97v-19.58l-10.11-16.32-10.35 18.78-10.79-18.78-10.35 18.04-10.79-18.04-11.55 20.54v15.35c0 17.66 14.32 31.97 31.97 31.97Z" style="fill:#422635"/><path d="M576.24 715.23c3.91-1.48 10.17-1.3 16.38 9.5 1.42 2.46 2.42 5.17 2.67 8 .2 2.31-.03 5.03-1.43 7.49-.77 1.34-2.64 1.56-3.7.43-3.22-3.43-10.34-10.44-17.93-14.09-1.23-.59-2-1.86-1.93-3.22.01-.33.05-.69.12-1.07.55-3.19 2.81-5.88 5.83-7.02ZM560.2 725.35c3.91-1.48 10.17-1.3 16.38 9.5 1.42 2.46 2.42 5.17 2.67 8 .2 2.31-.03 5.03-1.43 7.49-.77 1.34-2.64 1.56-3.7.43-3.22-3.43-10.34-10.44-17.93-14.09-1.23-.59-2-1.86-1.93-3.22.01-.33.05-.69.12-1.07.55-3.19 2.81-5.88 5.83-7.02ZM537.93 725.8c3.96-1.34 10.21-.94 16.03 10.07 1.33 2.51 2.24 5.25 2.39 8.09.12 2.32-.2 5.03-1.7 7.43-.82 1.32-2.7 1.46-3.72.29-3.09-3.54-9.97-10.8-17.42-14.72a3.423 3.423 0 0 1-1.82-3.29c.03-.33.08-.68.16-1.07.66-3.17 3.01-5.77 6.08-6.81Z" style="fill:#99889a"/></g><rect id="left-hand-upper" x="536.9" y="409.2" width="138.66" height="54.5" rx="27.25" ry="27.25" transform="rotate(21.99 606.267 436.47)" style="fill:#60354a"/><rect id="right-hand-upper" x="312.47" y="421.33" width="144.43" height="54.5" rx="27.25" ry="27.25" transform="rotate(-26.04 384.64 448.556)" style="fill:#60354a"/><g id="body"><path d="M573.52 387.34H411.09c1.51 23.54 2.59 46.85 3.24 69.94-2.08 12.91-4.6 28.31-4.6 28.31l5.13-3.21c0 .4.01.8.02 1.2l-5.15 39.05 5.28-4.03v.34l-5.28 42.72 4.54-3.75c-.65 21.06-1.69 41.91-3.17 62.53 0 15.43 12.51 27.94 27.94 27.94 0 0 133.68 8.77 142.86-17.4 12.95-67.73-8.36-243.65-8.36-243.65Z" style="fill:#60354a"/><rect x="461.81" y="421.88" width="89.31" height="196.16" rx="27.58" ry="27.58" style="fill:#865665"/></g><g id="clock"><rect id="clock-base" x="323.66" y="484.09" width="365.82" height="110.73" rx="30.44" ry="30.44" transform="rotate(-2.44 506.677 539.527)" style="opacity:.7"/><text id="clock-text" transform="rotate(-2.44 13567.183 -7696.382)" style="fill:#42c17f;font-family:Rubik-Bold,Rubik;font-size:71.15px"><tspan x="0" y="0">00:00</tspan><tspan x="215.66" y="0" style="letter-spacing:-.02em"> </tspan><tspan x="228.82" y="0">AM</tspan></text></g><g id="left-ear"><path d="M576.8 8.33c-9.52 14.16-34.97 59.17-34.97 135.63l108.83 89.61c4.31-.16 22.77-125.69-66.58-225.5-2.03-2.27-5.58-2.26-7.28.27Z" style="fill:#412636"/><path d="M588.76 65.65c-5.78 8.83-16.99 31.18-22.97 77.71l69.2 60.03s18.24-54.71-39.26-137.83c-1.7-2.45-5.34-2.41-6.97.09Z" style="fill:#865666"/></g><g id="right-ear"><path d="M421.55 9.23c-19.15 24.08-80.72 111.58-67.95 227.29l130.86-104.69S471.75 52.48 433.21 8.98c-3.15-3.55-8.71-3.47-11.66.25Z" style="fill:#412636"/><path d="M418.45 65.6c-10.26 16.1-38.12 65.71-33.58 123.45l81.18-50.35s-15.75-53.23-38.56-74.08c-2.75-2.52-7.03-2.16-9.04.99Z" style="fill:#865666"/></g><g id="head"><path d="M370.24 211.9c-3.33 1.33-20.18 7.76-20.18 7.76s-17.09 9.6-26.08 20.59c-1.05 1.28-.76 3.19.63 4.08l8.59 5.5s-35.41 19.04-46.26 34.18c-1.42 1.98-1.52 4.6-.3 6.7 4.31 7.41 15.69 25.53 26.38 30.09l-14.59 13.45a4.183 4.183 0 0 0-.67 5.38c6.51 9.88 32.97 41.92 117.29 73.66l-44.8-201.39Z" style="fill:#422635"/><path d="M512.85 122.36c116.22 0 150.82 117.41 150.82 117.41 23.27 16.16 31.94 26.83 34.93 31.42 1 1.54 1.28 3.42.83 5.2-6 23.82-23.35 41.45-23.35 41.45 8.21 2.29 13.96 7.05 17 10.14 1.57 1.6 1.98 4.02.97 6.03-52.88 105.26-172.54 99.17-172.54 99.17s-150.79-1.47-196.47-88.46c-.76-1.45-.8-3.19-.09-4.66 1.48-3.04 6.04-7.85 19.31-13.63 0 0-21.68-19.54-30.15-37.48-.81-1.71-.63-3.72.43-5.28 3.43-5.05 12.49-16.86 28.84-28.51 0 0 22.18-136.18 169.45-132.78Z" style="fill:#60354a"/><path d="M385.06 327.69c-1.54-1.34-.9-3.84 1.07-4.33 3.61-.9 9.43-1.64 16.94-.11 13.09 2.66 48.57 25.06 48.57 25.06s46.13 22.62 64.54 24.62c0 0 63.88-68.76 108.46-10.2 0 0 24.64-25.19 45.63-27.69 2.56-.31 4.27 2.56 2.75 4.65-5.13 7.06-15.15 19.89-21.99 22.59 0 0 14.65-6.53 23.33-1.01 1.76 1.12 2.2 3.5.91 5.15-14.39 18.35-109.44 125.36-301.11 25.2-2.6-1.36-2.5-5.12.18-6.33l20.07-9.03s-21.86-5.37-35.09-16.82c-2.08-1.8-1.73-5.11.71-6.39 5.42-2.86 19.11-6.14 53.68-4.96 0 0-19.11-12.1-28.65-20.39Z" style="fill:#865665"/><path d="M563.88 353.46c8.1-4.83 24.92-11.89 42.09-.84a5.294 5.294 0 0 1 1.86 6.82c-2.36 4.67-7.66 12.19-18.76 17.34-.88.41-1.85.55-2.81.43-3.75-.44-13.47-2.83-23.79-15.51-2.13-2.61-1.49-6.51 1.41-8.24Z" style="fill:#12010f"/><path d="M436.77 294.11c8.01 3.06 32.8 11.39 87.14 21.12.88.16 1.63.75 1.97 1.58 2.5 6.15 11.27 31.65-13.47 35.75 0 0-44.71 10.26-73.07-28.85-.97-1.34.07-3.21 1.71-3.11l14.39.87s-16.76-11.23-20.98-25.23c-.42-1.39.96-2.64 2.31-2.12ZM669.38 286.32c-6.16 3.21-26.22 11.63-66.14 26.93-.65.25-1.25.79-1.51 1.65-1.92 6.43-8.8 27.07 9.46 32.56 4.81 1.94 38.53 11.88 59.26-32.33.67-1.43-.05-3.35-1.32-3.25l-10.1 1.59s8.89-10.29 12.14-24.94c.32-1.45-.74-2.76-1.78-2.22Z" style="fill:#412636"/><path d="m470.49 311.04 45.47 11.76s-.89 27.28-27.5 25.51c-26.62-1.77-22.4-33.49-17.97-37.26ZM604.06 317.89l37.58-12.37s11.38 26.33-9.02 36.96-29.43-17.39-28.56-24.59Z" style="fill:#cfff71"/><ellipse cx="504.27" cy="250.21" rx="19.79" ry="32.17" transform="rotate(-60 504.275 250.21)" style="fill:#875666"/><ellipse cx="609.41" cy="246.04" rx="31.12" ry="19.79" transform="rotate(-32.6 609.31 246.033)" style="fill:#875666"/></g><g id="left-hand-lower"><path d="m721.91 524.72-4.38 7.62c6.84 6.43 14.6 11.76 23.29 15.95 0 0 2.82.85 3.39-1.13s3.11-6.21-10.73-21.31l-11.57-1.13ZM732.15 522.36s19.27 11.65 21.28 15.14c0 0 8.89 2.01 2.12-11.43-6.78-13.44-18-12.7-18-12.7l-5.4 9Z" style="fill:#99889a"/><path d="M738.92 511.13s11.97 1.91 19.17 11.43c0 0 8.15 2.54 2.96-10.8s-18.21-13.23-18.21-13.23l-3.92 12.6Z" style="fill:#99889a"/><rect x="610.61" y="452.34" width="144.43" height="54.5" rx="27.25" ry="27.25" transform="rotate(-143.96 682.854 479.57)" style="fill:#60354a"/><path d="M741.22 522.07c8.85-12.17 6.17-29.22-6.01-38.07l-18.92-13.76-16.24-2.65 4.82 16.61-18.32-4.79 5.02 18.8-17.74-4.24 4.69 16.2 24.61 17.91c12.17 8.85 29.22 6.17 38.07-6.01Z" style="fill:#422635"/></g><g id="right-hand-lower"><path d="m278.87 551.18-7.95-3.74c-5.86 7.34-10.54 15.5-14.01 24.51 0 0-.62 2.88 1.4 3.29s6.44 2.59 20.38-12.42l.19-11.63ZM282.06 561.19s-10.05 20.15-13.37 22.44c0 0-1.28 9.03 11.57 1.18 12.85-7.84 11.2-18.97 11.2-18.97l-9.41-4.65Z" style="fill:#99889a"/><path d="M293.79 567.03s-.93 12.09-9.84 20.03c0 0-1.87 8.33 11 2.07 12.88-6.25 11.71-19.22 11.71-19.22l-12.87-2.88Z" style="fill:#99889a"/><rect x="248.48" y="481.31" width="144.43" height="54.5" rx="27.25" ry="27.25" transform="rotate(-58.61 320.69 508.569)" style="fill:#60354a"/><path d="M283.08 570.21c12.85 7.84 29.62 3.78 37.46-9.07l12.18-19.97 1.33-16.4-16.17 6.15 3.29-18.65-18.33 6.53 2.79-18.02-15.77 5.99-15.85 25.98c-7.84 12.85-3.78 29.62 9.07 37.46Z" style="fill:#422635"/></g></svg>