<svg id="wvbbb" xmlns="http://www.w3.org/2000/svg" viewBox="0 0 1000 1000"><path id="tail" d="M454 656.07s27.29 125.85 27 134c0 0 10.93-2.84 17.47-33.89 0 0 3.65 21 3.28 24.2 0 0 27-51.87 14.68-102l-10.83-58.49 12.32-29.93-27.23-7.65-52.09 15.4Z" style="fill:#eee5e3"/><g id="right-leg"><rect x="414.05" y="595.71" width="63.72" height="149.62" rx="31.86" style="fill:#c7acaf"/><path d="M479.2 673.77h-66.58v27.06a1 1 0 0 0 1 1h6.55V688h5v13.87h6.74V688h5v13.87h6.49V688h5v13.87h6.86V688h5v13.87H467V688h5v13.87h6.18a1 1 0 0 0 1-1Z" style="fill:#afd1d9"/><path style="fill:#94bec6" d="M420.18 687.97h5v13.87h-5zM431.92 687.97h5v13.87h-5zM443.41 687.97h5v13.87h-5zM455.27 687.97h5v13.87h-5zM467.02 687.97h5v13.87h-5z"/><path d="M445.91 595.71A36.89 36.89 0 0 0 409 632.6v50.32a1.51 1.51 0 0 0 1.51 1.5h70.79a1.5 1.5 0 0 0 1.5-1.5V632.6a36.89 36.89 0 0 0-36.89-36.89Z" style="fill:#2e4a60"/></g><g id="left-leg"><rect x="519.08" y="595.71" width="63.72" height="149.62" rx="31.86" style="fill:#c7acaf"/><path d="M584.23 673.77h-66.58v27.06a1 1 0 0 0 1 1h6.55V688h5v13.87h6.8V688h5v13.87h6.49V688h5v13.87h6.87V688h5v13.87h6.74V688h5v13.87h6.18a1 1 0 0 0 1-1Z" style="fill:#afd1d9"/><path style="fill:#94bec6" d="M525.21 687.97h5v13.87h-5zM536.95 687.97h5v13.87h-5zM548.44 687.97h5v13.87h-5zM560.31 687.97h5v13.87h-5zM572.05 687.97h5v13.87h-5z"/><path d="M550.94 595.71a36.89 36.89 0 0 0-36.88 36.89v50.32a1.5 1.5 0 0 0 1.5 1.5h70.77a1.5 1.5 0 0 0 1.5-1.5V632.6a36.89 36.89 0 0 0-36.89-36.89Z" style="fill:#2e4a60"/></g><rect id="left-hand-upper" x="536.76" y="405.62" width="138.29" height="67.54" rx="33.77" transform="rotate(21.99 605.932 439.419)" style="fill:#2e4a60"/><rect id="right-hand-upper" x="313.14" y="419.38" width="138.29" height="67.54" rx="33.77" transform="rotate(154.54 382.28 453.162)" style="fill:#2e4a60"/><g id="body"><path d="M585.37 636.74c-36.06 27.48-117.53 15.61-150.18 14.84-24.06-2.5-28.43-15.15-28.43-31.46V373.67h171.73c-3.58 14.72 18.67 216.78 11.84 255a13 13 0 0 1-4.96 8.07Z" style="fill:#2e4a60"/><path d="m591.58 412-128.26 3.87-23 8.45c11.45 5.43 14.13 18 43.44 23.33v-21.49h5v22c2 .2 4 .39 6.21.56v-22.6h5v22.98c1.81.11 3.69.2 5.65.29h1.54v-23.23h5v23.25c1.91-.06 3.79-.19 5.65-.37v-22.88h5v22.25c2.37-.36 4.71-.81 7-1.34v-20.91h5v19.62c33.35-9.44 56.77-33.78 56.77-33.78Z" style="fill:#afd1d9"/><path d="M483.79 426.16v21.46c1.59.21 3.26.4 5 .58v-22ZM495 426.16v22.6c1.6.12 3.27.23 5 .34v-22.94ZM507.19 426.16v23.27h5v-23.27ZM517.84 426.16V449c1.68-.17 3.35-.37 5-.63v-22.21ZM529.84 426.16v20.91q2.53-.58 5-1.29v-19.62Z" style="fill:#94bec6"/><circle cx="520.34" cy="472.29" r="9.5" style="fill:#afd1d9"/><circle cx="520.34" cy="512.74" r="9.5" style="fill:#afd1d9"/><circle cx="521.34" cy="553.19" r="9.5" style="fill:#afd1d9"/><circle cx="521.34" cy="593.65" r="9.5" style="fill:#afd1d9"/><path d="M498.68 489.13c-1.63-4.22-6.28-4.74-9.95-4.43 0-.85.06-1.56.07-2.05a2 2 0 0 0-.69-1.56c-1.86-1.58-8-5.32-25.11-5.32-16.8 0-23.84 3.62-26.15 5.24a2.08 2.08 0 0 0-.88 1.83c2.37 34.55 27 33 27 33 9.55 0 15.56-4.3 19.35-9.84a17.84 17.84 0 0 0 11-4.1s8.2-5.42 5.36-12.77ZM462.61 488c-11.49 0-20.8-2.1-20.8-4.7s9.31-4.7 20.8-4.7 20.81 2.11 20.81 4.7-9.32 4.7-20.81 4.7Zm32 4.38c-1.08 7.79-9.85 9.73-9.85 9.73 2.6-4.43 2.6-13 2.6-13 8.12-2.6 7.26 3.24 7.26 3.24Z" style="fill:#afd1d9"/><path d="M481.76 508.32c-4 4.88-9.95 8.47-18.87 8.47a25.41 25.41 0 0 1-18.89-8.43c-6.72 1.36-11 3.41-11 5.72 0 4.08 13.43 7.38 30 7.38s30-3.3 30-7.38c0-2.33-4.39-4.41-11.24-5.76Z" style="fill:#afd1d9"/><path d="M558.48 506.9a6.9 6.9 0 1 0 0-13.8 6.82 6.82 0 0 0-1.93.28 6.91 6.91 0 1 0-11.46 1.83 6.9 6.9 0 1 0 7.22 8.9c.76 6.37-2.7 9.41-2.7 9.41l9-1.65c-2.92-.95-4.6-4.9-5.39-7.44a6.86 6.86 0 0 0 5.26 2.47ZM506.1 641.42a6.9 6.9 0 0 0-.74-13.79 7.19 7.19 0 0 0-1.92.38 6.79 6.79 0 0 0 .43-2.79 6.9 6.9 0 1 0-13.78.75 6.83 6.83 0 0 0 2 4.5 6.9 6.9 0 1 0 7.69 8.49c1.1 6.32-2.19 9.54-2.19 9.54l8.88-2.13c-3-.79-4.86-4.64-5.79-7.13a6.93 6.93 0 0 0 5.42 2.18ZM579.62 543c-3.1-.75-6.36 1.06-8.38 4.29-2.76-2.62-6.37-3.55-9.19-2-3.79 2-4.7 7.7-2 12.68s13.4 9.08 13.75 9.22c0 0 9.7-7 11-12.39s-1-10.8-5.18-11.8ZM454.9 598.72c-3.18-.29-6.15 2-7.67 5.46-3.12-2.19-6.82-2.59-9.39-.69-3.46 2.56-3.54 8.31-.18 12.84s14.57 7 14.94 7.13c0 0 8.59-8.28 9.11-13.85s-2.53-10.49-6.81-10.89ZM496.22 569.53c-1.11-5.58-10.45-12.93-10.76-13.17 0 0-11.61 3.94-14.52 8.88s-2.25 10.85 1.55 13.1c2.56 1.5 5.86 1 8.65-1-2.11 5.42-5.61 7.13-5.61 7.13l9.34 1.26c-1.95-1.67-2.35-5.23-2.31-8.19 2 2.86 4.94 4.46 7.87 3.88 4.33-.9 6.92-6.21 5.79-11.89ZM567.49 610.08c-.91-5.62-10-13.3-10.27-13.55 0 0-11.74 3.5-14.84 8.34s-2.64 10.76 1.08 13.14c2.5 1.6 5.82 1.19 8.68-.72-2.31 5.34-5.87 6.92-5.87 6.92l9.29 1.6c-1.89-1.74-2.16-5.31-2-8.26 1.86 2.92 4.77 4.63 7.72 4.16 4.35-.71 7.13-5.91 6.21-11.63ZM431.44 566.94l-15.2-11.42 8.73-17.29 15.19 11.42-8.72 17.29z" style="fill:#fffffe"/></g><g id="clock"><rect id="clock-base" x="323.62" y="483.82" width="350.18" height="105.99" rx="29.14" transform="rotate(-2.44 498.98 537.014)" style="opacity:.7000000000000001"/><text id="clock-text" transform="rotate(-3 11019.684 -6199.14)" style="font-size:68.10848236083984px;fill:#7da1bf;font-family:Rubik-Bold,Rubik;font-weight:700">00:00<tspan x="206.43" y="0" style="letter-spacing:-.02499172465012493em"> </tspan><tspan x="219.03" y="0">AM</tspan></text></g><g id="head"><path d="M670.29 295.39s-34.06-167.81-163.35-163.94c0 0-10.47-.84-26.34 1.43-60.15 3.76-152 79.86-152 79.86s18.57 2.58 33.93 0c-19.24 32.57-33.15 78.08-35.23 141.68 0 0 25.55 126.19 275.62 72 0 0 75.48-28.9 81.29-96.71.02 0 .98-16.71-13.92-34.32Z" style="fill:#eee5e3"/><circle cx="616.1" cy="312.69" r="24.52" style="fill:#fc1d5c"/><path d="M537 320.15a10 10 0 0 1 3.81-.48c14.57.77 110.5 7.26 117.47 14.23 0 0 29.1 24.13 30.56 68.57a1.05 1.05 0 0 1-.82 1.06c-4.43 1-32 3.2-204-8a1.23 1.23 0 0 1-1.17-1.2c-.07-3.53 1.13-14.53 17.14-22.87.01-.01 16.31-44.28 37.01-51.31Z" style="fill:#c7acaf"/><path d="M498.73 372.14c64.43 5.08 80.77.42 84.89-2.06a3.13 3.13 0 0 0 1.48-2.45C586.59 346.77 564 340 564 340c21 6 22.9-6.84 22.9-6.84a11.74 11.74 0 0 0-3.9-10.45c-19.55-1.64-36.68-2.75-42.19-3a10 10 0 0 0-3.81.48c-20.71 7-37 51.3-37 51.3Z" style="fill:#d6bdbf"/><circle cx="477.77" cy="319.65" r="24.52" style="fill:#fc1d5c"/><ellipse cx="480.1" cy="256.1" rx="20.65" ry="32.2" transform="rotate(-68.01 480.057 256.104)" style="fill:#d6bdbe"/><ellipse cx="608.35" cy="249.13" rx="32.2" ry="20.65" transform="rotate(-24.43 608.378 249.14)" style="fill:#d6bdbe"/></g><g id="right-hand-lower"><path d="M281.12 556c.59-1.6 2.08-5.47 4.3-11 4.66-11.57 12.53-30.38 21.9-50.59 2.23-4.82 4.55-9.72 6.94-14.62l12.14-25.58c6.43-13.55 22.42-18.12 36-11.69 13.55 6.43 19.52 21.42 13.09 35L369 491.09h.12s-7.7 19.7-16.27 34c-6.56 10.94-13.64 18.73-18.2 12.15 0 0-13.42 25.16-25 20.07-.32-.14-.54-.71-.68-1-.87-2.11.08-7.16.79-11.84a.54.54 0 0 0-.91-.18c-2.44 2.73-12.76 12.7-20.76 14.52-2.58.59-4.91.34-6.67-1.27a1.43 1.43 0 0 1-.3-1.54Z" style="fill:#eee5e3"/><path style="fill:#afd1d9" d="m311.79 503.81 20.66-43.47 5.77 2.72-20.66 43.47-5.77-2.72zM376.31 481a1.37 1.37 0 0 1 .65 1.81L357.6 523.9a1.36 1.36 0 0 1-1.81.65l-3.35-1.55 20.66-43.5ZM322.08 508.66l20.67-43.47 5.93 2.8-20.67 43.47-5.93-2.8zM347.91 520.84l-5.12-2.42 20.66-43.47 5.13 2.42-20.67 43.47zM302.7 499.52a1.36 1.36 0 0 1-.65-1.81l19.37-41.07a1.35 1.35 0 0 1 1.8-.65l4.71 2.22-20.66 43.47ZM332.54 513.59l20.66-43.47 5.73 2.7-20.66 43.47-5.73-2.7z"/><path style="fill:#94bec6" d="m307.27 501.68 20.66-43.48 4.52 2.14-20.66 43.47-4.52-2.13zM317.56 506.53l20.66-43.47 4.53 2.13-20.67 43.47-4.52-2.13zM328.01 511.46l20.67-43.47 4.52 2.13-20.66 43.47-4.53-2.13zM338.27 516.29l20.66-43.47 4.52 2.13-20.66 43.47-4.52-2.13zM373.1 479.5l-20.66 43.47-4.53-2.13 20.67-43.47 4.52 2.13z"/><path d="M362.56 441.36a33.77 33.77 0 0 1 16.15 44.95l-7.65 16.22a1.47 1.47 0 0 1-2 .71l-58.4-27.53a1.48 1.48 0 0 1-.71-2l7.64-16.23a33.77 33.77 0 0 1 44.97-16.12Z" style="fill:#2e4a60"/></g><g id="hat"><path d="M371.89 238.51c34.83-45.44 78.88-77.6 140.1-85.11a1 1 0 0 0 .4-1.83C492.22 139.19 365 142.11 370.12 238a1 1 0 0 0 1.77.51Z" style="fill:#7094b2"/><path d="M419.71 172.23s-29.1 56.38-61.23 31.8c0 0-9.67-5-19-37.55 0 0-31.75-26.9-36.2-39.48 0 0 3.68-16.65 60.78-4.84 0 0 25.16 6.19 42.77 19.94l4.45 7.74 5.81-7.16-4.26-5S399.52 69.9 441.32 37c0 0 5.62-6.19 21.49 45.29 0 0 49.16 47.42 18 67.74 0 0-13 16.84-42 13.55l-9.58-4.84-7.46 8.71Z" style="fill:#7ea0c0"/><path d="M385.65 185.18c2.18-3.39 11.38-16.08 32.12-25l11.36-7.4s22-18.47 39.51-13.49a2.71 2.71 0 0 1 2 2.35c.35 4.12-2.81 13.88-39.43 15.7l-13.67 8.51s-12.89 20.42-26.5 26.7a3.92 3.92 0 0 1-3.38 0c-1.32-.66-2.73-2.15-2.6-5.47a3.83 3.83 0 0 1 .59-1.9Z" style="fill:#7094b0"/><path d="M401.69 146.18a38.28 38.28 0 0 1 18-10.81 2.19 2.19 0 0 1 2.48 1l15.77 26.12a2.17 2.17 0 0 1-.11 2.36c-1.45 2-5.57 5.89-16.47 7.78a2.21 2.21 0 0 1-2.17-.88L401.46 149a2.18 2.18 0 0 1 .23-2.82Z" style="fill:#739ebd"/></g><g id="left-hand-lower"><path d="M719.22 535.17c-.75-1.52-2.64-5.22-5.42-10.46-5.85-11-15.63-28.9-27.07-48-2.72-4.56-5.54-9.19-8.43-13.82l-14.74-24.19c-7.82-12.8-23.58-15.5-36.38-7.69-12.8 7.81-17.8 23.18-10 36l7.82 12.8h-.11s9.71 18.79 19.74 32.13c7.66 10.19 15.52 17.2 19.36 10.18 0 0 16 23.62 26.92 17.35.3-.18.47-.77.57-1.1.65-2.19-.83-7.11-2-11.69a.55.55 0 0 1 .89-.28c2.71 2.46 14 11.3 22.17 12.27 2.62.32 4.92-.17 6.5-2a1.41 1.41 0 0 0 .18-1.5Z" style="fill:#eee5e3"/><path style="fill:#afd1d9" d="m683.27 486.47-25.1-41.07-5.45 3.31 25.09 41.07 5.46-3.31zM616.72 470.55a1.36 1.36 0 0 0-.46 1.87l23.55 38.82a1.36 1.36 0 0 0 1.87.46l3.17-1.92-25.1-41.07ZM673.54 492.38l-25.1-41.07-5.6 3.39 25.09 41.08 5.61-3.4zM649.12 507.19l4.84-2.94-25.09-41.07-4.84 2.94 25.09 41.07zM691.86 481.26a1.36 1.36 0 0 0 .46-1.87l-23.56-38.82a1.36 1.36 0 0 0-1.87-.46l-4.44 2.7 25.09 41.07ZM663.66 498.37l-25.1-41.07-5.42 3.29 25.1 41.07 5.42-3.29z"/><path style="fill:#94bec6" d="m687.54 483.88-25.09-41.07-4.28 2.59 25.1 41.07 4.27-2.59zM677.81 489.78l-25.09-41.07-4.28 2.6 25.1 41.07 4.27-2.6zM667.93 495.78l-25.09-41.08-4.28 2.6 25.1 41.07 4.27-2.59zM658.24 501.66l-25.1-41.07-4.27 2.59 25.09 41.07 4.28-2.59zM619.75 468.71l25.1 41.07 4.27-2.59-25.09-41.07-4.28 2.59z"/><path d="M626.24 429.67a33.77 33.77 0 0 0-11.36 46.39l9.31 15.33a1.47 1.47 0 0 0 2 .5l55.21-33.49a1.49 1.49 0 0 0 .5-2l-9.27-15.4a33.78 33.78 0 0 0-46.39-11.33Z" style="fill:#2e4a60"/></g><g id="boba-tea"><path d="m784.32 420.73-2-.84-73.08-30.31-8.51 25.7a1.72 1.72 0 0 0 1 2.1l.21.08.18.13c9.13 6.06 36.9 19.71 52.65 27.3 5.08 2.45 10.3 4.79 15.52 6.95s10.55 4.21 15.88 6.08c16.5 5.78 45.77 15.8 56.51 18h.22l.21.09a1.7 1.7 0 0 0 2.15-.81l12.13-24.2Z" style="fill:#e0fdff;opacity:.5"/><path d="M714.74 388.45 704.29 420s41.48 31.91 134.29 55.71L856.66 442Z" style="fill:#e4bb9f"/><path d="M723.23 397.43c-4.15 11.92-8.16 23.61-8.39 28.55l19.88 10.66c.14-4.62 3.7-16 8.17-29.28Z" style="fill:#fff;opacity:.5"/><path d="M702.81 421.59a535.1 535.1 0 0 0 66.62 33.34 518.31 518.31 0 0 0 69.82 23.28l-46.83 95.55a51.93 51.93 0 0 1-66.71 25.49l-28.31-11.74a52 52 0 0 1-29.23-64.8l34.64-101.12m139.76 55.08a512.45 512.45 0 0 1-72.26-23.87 530.58 530.58 0 0 1-68.76-34.63L666 522a54.24 54.24 0 0 0 30.53 67.67l28.31 11.74a54.23 54.23 0 0 0 69.67-26.62l48.07-98.08Z" style="fill:#e0fdff"/><path d="m792.42 573.76 46.83-95.55a518.31 518.31 0 0 1-69.82-23.28 535.1 535.1 0 0 1-66.62-33.34l-34.64 101.12a52 52 0 0 0 29.23 64.8l28.31 11.74a51.93 51.93 0 0 0 66.71-25.49Z" style="fill:#e0fdff;opacity:.5"/><path d="m789.54 570.82 46.76-94.44a506 506 0 0 1-67-22.41 520.19 520.19 0 0 1-63.92-31.9l-33.09 100.58a49.1 49.1 0 0 0 27.58 61.14l26.72 11.08a49 49 0 0 0 62.95-24.05Z" style="fill:#e4bb9f"/><path d="M739.21 478.36c.7-2.37 1.41-9.36-8.87-25.75a2 2 0 0 1 .13-2.47c1.59-1.78 5.53-3.95 13.38 2.93 0 0 10.88 10.67 4.55 21.29 0 0-4.92 8.08-8.39 6.47a2 2 0 0 1-.8-2.47ZM831 484s-5.55-5.28-13.78 3.76c0 0-4.88 4.85-14.58 7.54a1.17 1.17 0 0 0-.79 1.58c1.5 3.47 6.78 12.61 19.23 7.67.55-.21 1.06-.44 1.59-.66l9.51-19.21Z" style="fill:#b78c70"/><path d="M801.41 511.5c-11-3.42-9.84-9.22-9.84-9.22s-1.09-3.19 6.44-9.71-3.2-13.21-3.2-13.21c-15.5-6.07-21.36 4.66-23.29 10.21a2.6 2.6 0 0 1-3.72 1.43L753 478.89a2.61 2.61 0 0 0-3.19-.09c-3.65 2.66-12.62 8.66-17.08 6.93-5.67-2.19-6.77-9.23-5-16.54a16.67 16.67 0 0 0-2.12-12.72s-4.23-6.47-8.64-5.89c-3.1.4-4.57 3-5.17 4.49a5.36 5.36 0 0 1-1.51 2.1c-2.52 2.12-8.68 6.67-13.19 4.88a11.18 11.18 0 0 1-4-2.51l-20.79 63.11a49.1 49.1 0 0 0 27.58 61.14l26.71 11.08a49 49 0 0 0 63-24l26.18-52.89c-1.27-.98-5.42-3.68-14.37-6.48Z" style="fill:#b78c70"/><path d="m789.54 570.82 15.17-30.65c-7 1.61-24 4.86-32.62.55-11-5.52-1.18-21-1.18-21s9.67-15.76-1.11-22.88c-9.23-6.1-28.88 24.42-34.36 33.36a3.36 3.36 0 0 1-4.27 1.3c-4.15-1.92-10.75-6.4-4.1-13.58 9.18-9.93 4-9.67 4-9.67s-24 12.48-18.89-14.34c4-21.16-8.24-21.15-13.58-20.2a2.77 2.77 0 0 0-2.31 2.76c0 2.9-.13 8-1.39 11.48-1.33 3.61-10.46 9.83-15.49 13l-7.13 21.64a49.1 49.1 0 0 0 27.58 61.14l26.71 11.08a49 49 0 0 0 62.97-23.99Z" style="fill:#846552"/><path d="m756.1 411.72-21.29 178.19c8 4.15 15.39 5.06 22.09 2.2L776.12 420" style="fill:#aabbb7"/><path d="M715.62 427.92 677.1 550.37a14.26 14.26 0 0 0-.15 8.16 37.71 37.71 0 0 0 13.91 20.36s-3.65-12.52 1.7-25.13c5.5-13 41.28-116.15 41.28-116.15Z" style="fill:#fff;opacity:.5"/><circle cx="708.23" cy="560.24" r="10.62" style="fill:#3f3239" id="boba-12"/><circle cx="727.4" cy="541.63" r="10.62" style="fill:#3f3239" id="boba-14"/><circle cx="742.11" cy="529.26" r="10.62" style="fill:#3f3239" id="boba-15"/><circle cx="772.92" cy="558.96" r="10.62" style="fill:#3f3239" id="boba-16"/><g id="boba-1"><circle cx="758.85" cy="544.94" r="10.98" style="fill:#3f3239"/><path d="M767.69 547.76c1.13 3.28-1.37 6.17-5.05 7.43s-7.16.43-8.29-2.85.52-7.76 4.2-9a7.58 7.58 0 0 1 9.14 4.42Z" style="fill:#4a3842"/><circle cx="756.85" cy="540.12" r="5.29" style="fill:#6b4d5a"/></g><g id="boba-2"><circle cx="762.81" cy="568.21" r="10.98" style="fill:#3f3239"/><path d="M771.66 571c1.12 3.28-1.38 6.17-5.06 7.43s-7.15.43-8.28-2.85.51-7.76 4.2-9a7.58 7.58 0 0 1 9.14 4.42Z" style="fill:#4a3842"/><circle cx="760.82" cy="563.39" r="5.29" style="fill:#6b4d5a"/></g><g id="boba-3"><circle cx="782.07" cy="536.91" r="10.98" style="fill:#3f3239"/><path d="M790.91 539.73c1.13 3.28-1.37 6.16-5.06 7.43s-7.15.43-8.28-2.85.52-7.76 4.2-9a7.6 7.6 0 0 1 9.14 4.42Z" style="fill:#4a3842"/><circle cx="780.07" cy="532.09" r="5.29" style="fill:#6b4d5a"/></g><g id="boba-4"><circle cx="740.74" cy="505.31" r="10.98" style="fill:#3f3239"/><path d="M749.58 508.12c1.13 3.28-1.37 6.17-5.05 7.43s-7.16.43-8.29-2.85.52-7.76 4.2-9a7.58 7.58 0 0 1 9.14 4.42Z" style="fill:#4a3842"/><circle cx="738.74" cy="500.48" r="5.29" style="fill:#6b4d5a"/></g><g id="boba-5"><circle cx="712.45" cy="507.63" r="10.62" style="fill:#3f3239"/><path d="M721 510.35c1.09 3.17-1.32 6-4.88 7.19s-6.92.42-8-2.75.5-7.51 4.06-8.73a7.32 7.32 0 0 1 8.82 4.29Z" style="fill:#4a3842"/><circle cx="710.52" cy="502.97" r="5.11" style="fill:#6b4d5a"/></g><g id="boba-6"><circle cx="696.11" cy="511.58" r="10.62" style="fill:#3f3239"/><path d="M704.65 514.3c1.09 3.17-1.32 6-4.88 7.19s-6.92.41-8-2.76.5-7.5 4.06-8.72a7.32 7.32 0 0 1 8.82 4.29Z" style="fill:#4a3842"/><circle cx="694.18" cy="506.92" r="5.11" style="fill:#6b4d5a"/></g><g id="boba-7"><circle cx="693.84" cy="556.49" r="10.62" style="fill:#3f3239"/><path d="M702.39 559.21c1.09 3.17-1.32 6-4.88 7.19s-6.92.42-8-2.75.5-7.51 4.06-8.73a7.33 7.33 0 0 1 8.82 4.29Z" style="fill:#4a3842"/><circle cx="691.92" cy="551.83" r="5.11" style="fill:#6b4d5a"/></g><g id="boba-8"><circle cx="727.79" cy="576.28" r="10.62" style="fill:#3f3239"/><path d="M736.34 579c1.09 3.18-1.33 6-4.89 7.19s-6.92.42-8-2.75.5-7.51 4.06-8.73a7.34 7.34 0 0 1 8.83 4.29Z" style="fill:#4a3842"/><circle cx="725.86" cy="571.61" r="5.11" style="fill:#6b4d5a"/></g><g id="boba-9"><circle cx="713.36" cy="535.81" r="10.62" style="fill:#3f3239"/><path d="M721.91 538.53c1.09 3.17-1.33 6-4.89 7.18s-6.91.42-8-2.75.5-7.5 4.06-8.73a7.33 7.33 0 0 1 8.83 4.3Z" style="fill:#4a3842"/><circle cx="711.43" cy="531.14" r="5.11" style="fill:#6b4d5a"/></g><circle cx="685.46" cy="532.13" r="10.62" style="fill:#3f3239" id="boba-10"/><circle cx="731.14" cy="560.47" r="10.62" style="fill:#3f3239" id="boba-13"/><path d="m857.39 451-12.19 24.22a1.7 1.7 0 0 1-2.15.81l-.21-.09h-.22c-10.74-2.18-40-12.2-56.51-18-5.33-1.87-10.67-3.91-15.88-6.08s-10.44-4.5-15.52-6.95c-15.75-7.59-43.52-21.24-52.65-27.3l-.18-.13-.21-.08a1.72 1.72 0 0 1-1-2.1l8.51-25.7 73.08 30.31 2 .84L857.39 451m3.17-1.17L785.2 418.6l-2-.83-75.39-31.27-9.28 28.06a4 4 0 0 0 2.26 4.94c9.05 6 35.68 19.15 52.92 27.46q7.72 3.72 15.63 7t16 6.12c18.06 6.33 46.16 15.91 56.81 18.06a4 4 0 0 0 5.1-1.89l13.3-26.39Z" style="fill:#e0fdff"/><path d="M782.3 422.74c-44.15-18.31-78.3-37.12-76.27-42l-1.88 4.52c-2 4.89 32.12 23.69 76.27 42S862 456.47 864 451.59l1.88-4.53c-2.01 4.94-39.44-6-83.58-24.32Z" style="fill:#213852"/><path d="M858.43 439.14c-12.21-8.36-38.08-21.34-68.8-34.08s-58.17-21.89-72.72-24.63c-6.36-1.19-10.26-1.17-10.88.31-2 4.88 32.12 23.69 76.27 42s81.57 29.21 83.6 24.32c.62-1.48-2.13-4.26-7.47-7.92Z" style="fill:#2e4a60"/><ellipse cx="774.86" cy="344.29" rx="3.26" ry="11.08" transform="rotate(-84.78 774.817 344.312)" style="fill:#8cbac6"/><g id="tealeaf"><path d="M876.11 316.25s17.8-65.89-57.39-99-106 3-98.28 4.6c0 0-37.15 9.93-7.27 36.51 0 0 20.3 19.12 85.22 29.25 0-.04 53.94 11.23 77.72 28.64Z" style="fill:#5db744"/><path d="M720.44 221.81s-37.15 9.93-7.27 36.51c0 0 20.3 19.12 85.22 29.25 0 0 53.94 11.27 77.72 28.68-20.04-53.14-67.11-87.9-155.67-94.44Z" style="fill:#70be4c"/><path d="M729.17 223.21s3.38-1.7 20.66.89c0 0 21.5-12.74 44.09-14.29 0 0-31.55 9.29-39.22 14.93 0 0 26.63 5 38.48 10.77 0 0 13.39-9.85 42.89-4.43 0 0-21-1.42-38.87 5.6 0 0 22.47 8.6 37.24 21 0 0 13.6-4.5 33.27 7.27 0 0-15.64-7.37-30.6-5.62 0 0 27.09 23.06 34.72 43.12 0 0-24.39-33.92-35.77-39.29 0 0 6 15.75 3.35 27.19 0 0-2.8-22.21-6.83-28.82 0 0-27.92-19.46-35.13-19.92 0 0 16.08 22.41 16.24 41.55 0 0-10.85-34.93-20-43 0 0-28.55-11.47-39.28-11.95 0 0 16.26 22.63 19.28 43.54 0 0-14.58-36.57-23-44.19-.07.03-18.38-2.35-21.52-4.35Z" style="fill:#4aa631"/><path d="M772.39 281.25s21.05 78.62-6.64 120.49c0 0-10 2.4-4.26-7.94 0 0 18.4-34.69 12.58-73.76 0 0-4.77-39.7-7.18-44.75Z" style="fill:#4fa833"/></g><path d="m755.94 405.5 8-62.18s-.12 3.28 10.65 4.22 11.41-2.2 11.41-2.2l-7.54 67.74a.36.36 0 0 1-.23.3c-4.47 1.64-13.39-2.53-22-7.3a.59.59 0 0 1-.29-.58Z" style="fill:#afd1d8"/></g></svg>