<svg id="skullcat" xmlns="http://www.w3.org/2000/svg" viewBox="0 0 1000 1000"><path id="tail" d="M491.91,585.24l2.45,82.43s-6.62,178.84-10,190.86-3.78,15.84-9.39,28.83S460.2,910.67,457,937.82,474,986,491,991.1s42,3.72,50.38-2.56c0,0-25.92-13.13-27-56.22,0,0-8.8-88.11-3.85-156.74S512.59,586,512.59,586Z" style="fill:#8c5f91"/><rect id="right-leg" x="414.91" y="592.42" width="63.33" height="148.71" rx="31.67" style="fill:#8c5f91"/><rect id="left-leg" x="519.53" y="592.42" width="63.33" height="148.71" rx="31.67" style="fill:#8c5f91"/><rect id="left-hand-upper" x="536.71" y="410.44" width="137.33" height="53.98" rx="26.99" transform="translate(207.85 -194.86) rotate(21.99)" style="fill:#8c5f91"/><rect id="right-hand-upper" x="314.45" y="422.45" width="143.04" height="53.98" rx="26.99" transform="translate(-158.11 215.04) rotate(-26.04)" style="fill:#8c5f91"/><g id="body"><path id="body_base" data-name="body base" d="M581.26,630.1c-9.09,25.92-141.48,17.23-141.48,17.23a27.67,27.67,0,0,1-27.67-27.67V388.79H573S594.09,563,581.26,630.1Z" style="fill:#8c5f91"/><rect id="body_pattern" data-name="body pattern" x="462.34" y="423" width="88.45" height="194.27" rx="27.31" style="fill:#b88bb5"/></g><g id="right-ear"><path d="M411.08,5C389.5,14.87,340.35,80.7,337.41,131.5c-.14,2.48-6,55.36,21.72,96.24L486,154.07s-.43-44.28-23.42-84.74S416.75,2.45,411.08,5Z" style="fill:#8c5f91"/><path d="M411.08,67.63S383,92.75,377,133.21c0,0-4.69,47.69,11.92,77.5L463.88,172s-27.67-90.7-39.6-104.33A12.25,12.25,0,0,0,411.08,67.63Z" style="fill:#e798c3"/></g><g id="left-ear"><path d="M670.41,24.2S575.24,53.79,532,152.32l3.89,15.8,108.16,69s50.24-35.35,51.52-139.25c0,0-8.52-66.42-17.46-73.66C678.07,24.2,675.3,22.6,670.41,24.2Z" style="fill:#8c5f91"/><path d="M652.52,80S601.1,103.61,573,166.53l56.53,36.73s13.73,1.27,23-20.76c9.12-21.7,16.69-44.12,12.66-96.52a7.08,7.08,0,0,0-3.87-5.8C659.32,79.19,656.44,78.67,652.52,80Z" style="fill:#e798c3"/></g><g id="head"><path id="head_base" data-name="head base" d="M697.87,316l55.25-25.23-65.47-10.54,31.94-27.46H672.52C650.84,197.12,597.64,150.66,510,148.32c-90.08-2.4-144,42.05-165.14,101.73l-57.26-1.45,40,31.52-84.31,11.07,70.26,27.68L276.1,334.62l65.32,15.7c21.38,53.25,89.37,80.32,168.57,80.32,83.5,0,153.24-30.1,170-89.23l47.59-13.28Z" style="fill:#8c5f91"/><path id="head_face" data-name="head face" d="M706.43,404.45l-59-29.62c11-13.75,27.26-44.88,8.51-96-26.4-72-65.15-45.56-65.15-45.56s-21.72,7.66-41.73,68.55c0,0-20.44-77.92-82.61-83.88s-95,59.61-95.81,73.66c-.52,8.56-8.78,45.71,14.19,77.2l-51.11,20.05a4.61,4.61,0,0,0-2.61,6L333,399.8a4.62,4.62,0,0,0,6,2.61l56.07-22a91.37,91.37,0,0,0,9.11,7.48L349.93,422a4.63,4.63,0,0,0-1.45,6.38l2.82,4.49a4.62,4.62,0,0,0,6.38,1.46l60.4-38c15.07,7.76,34.59,13.81,59.86,17q7.08.9,13.8,1.56c3.36,16.17,21.54,32.61,21.54,32.61,7.13-6.34,14.38-20.65,18.86-30.62q8.52,0,16.22-.52L566,447.57c8.82-7.84,17.82-27.87,21.54-36.79a134.44,134.44,0,0,0,30.73-11.29l61.12,45.17a4.63,4.63,0,0,0,6.46-1l3.16-4.28a4.62,4.62,0,0,0-1-6.46l-56.68-41.89A54.25,54.25,0,0,0,637,385.9l62.88,31.56a4.62,4.62,0,0,0,6.2-2.06l2.39-4.75A4.62,4.62,0,0,0,706.43,404.45Z" style="fill:#e1e5e0"/><circle id="right_eye" data-name="right eye" cx="465.64" cy="343.6" r="22.5" style="fill:#221f1f"/><circle id="left_eye" data-name="left eye" cx="600.74" cy="343.6" r="22.5" style="fill:#221f1f"/><rect id="right_eyebrow" data-name="right eyebrow" x="561.91" y="285.25" width="81.56" height="20.27" rx="10.14" transform="translate(-49.55 137.04) rotate(-12.46)" style="fill:#231f20"/><rect id="right_eyebrow-2" data-name="right eyebrow" x="420.94" y="285.25" width="85.88" height="20.27" rx="10.14" transform="translate(78.58 -97.02) rotate(13.04)" style="fill:#231f20"/></g><g id="clock"><rect id="clock-base" x="323.66" y="484.09" width="365.82" height="110.73" rx="30.44" transform="translate(-22.51 22.06) rotate(-2.44)" style="opacity:0.7000000000000001"/><text id="clock-text" transform="matrix(1, -0.04, 0.04, 1, 339.96, 570.62)" style="font-size:71.15160369873047px;fill:#42c17f;font-family:Rubik-Bold, Rubik;font-weight:700">00:00<tspan x="215.66" y="0" style="letter-spacing:-0.02499339747885022em"> </tspan><tspan x="228.82" y="0">AM</tspan></text></g><rect id="right-hand-lower" x="253.98" y="480.55" width="137.33" height="53.98" rx="26.99" transform="translate(-278.22 533.19) rotate(-60)" style="fill:#8c5f91"/><rect id="left-hand-lower" x="607.45" y="459.68" width="143.04" height="53.98" rx="26.99" transform="translate(814.94 1310.89) rotate(-135)" style="fill:#8c5f91"/></svg>